<svg width="42" height="42" viewBox="0 0 42 42" fill="none" xmlns="http://www.w3.org/2000/svg">
<g clip-path="url(#clip0_7_711)">
<path d="M26.0834 7.9834C25.3046 7.9834 24.5433 8.21433 23.8958 8.64699C23.2483 9.07965 22.7436 9.6946 22.4456 10.4141C22.1476 11.1336 22.0696 11.9253 22.2215 12.6891C22.3735 13.4529 22.7485 14.1545 23.2992 14.7051C23.8498 15.2558 24.5514 15.6308 25.3152 15.7827C26.079 15.9347 26.8707 15.8567 27.5902 15.5587C28.3097 15.2607 28.9246 14.756 29.3573 14.1085C29.79 13.4609 30.0209 12.6997 30.0209 11.9209C30.0209 10.8766 29.606 9.87509 28.8676 9.13667C28.1292 8.39824 27.1277 7.9834 26.0834 7.9834ZM26.0834 13.41C25.7889 13.41 25.501 13.3227 25.2561 13.1591C25.0112 12.9954 24.8203 12.7629 24.7076 12.4908C24.5949 12.2187 24.5654 11.9193 24.6229 11.6304C24.6803 11.3416 24.8221 11.0763 25.0304 10.868C25.2386 10.6597 25.504 10.5179 25.7928 10.4605C26.0817 10.403 26.3811 10.4325 26.6532 10.5452C26.9253 10.6579 27.1578 10.8487 27.3214 11.0936C27.4851 11.3385 27.5724 11.6264 27.5724 11.9209C27.5724 12.3158 27.4155 12.6946 27.1363 12.9738C26.857 13.2531 26.4783 13.41 26.0834 13.41Z" fill="#0462B4"/>
<path d="M40.3717 25.1734C39.8661 24.8155 39.2818 24.5845 38.6682 24.4999C38.0545 24.4154 37.4295 24.4798 36.846 24.6878C36.8394 24.6878 36.8394 24.6943 36.8329 24.6943L27.3851 28.1987L20.5504 27.7131L24.076 25.6787C24.571 25.3932 25.0036 25.0112 25.348 24.5553C25.6925 24.0995 25.9419 23.579 26.0813 23.0249C26.2208 22.4708 26.2475 21.8944 26.1598 21.3297C26.0722 20.7651 25.872 20.2239 25.5711 19.7381C25.2703 19.2523 24.8749 18.832 24.4084 18.502C23.9419 18.172 23.4139 17.9391 22.8557 17.8171C22.2975 17.6951 21.7205 17.6865 21.1589 17.7918C20.5973 17.8971 20.0626 18.1142 19.5865 18.4302L19.2249 18.0974L20.2963 16.4622C20.4331 16.2528 20.5075 16.0086 20.5107 15.7585C20.5139 15.5083 20.4457 15.2623 20.3143 15.0494L20.3149 15.0491C19.899 14.2781 19.6399 13.4323 19.5526 12.5606C19.5286 12.3225 19.4401 12.0954 19.2964 11.904C19.1528 11.7125 18.9596 11.564 18.7377 11.4743L16.9289 10.7437L17.3066 9.06947L19.2692 9.17874C19.5076 9.19144 19.745 9.13916 19.9561 9.02748C20.1671 8.91579 20.3439 8.74889 20.4675 8.5446C20.927 7.77913 21.5371 7.11492 22.2608 6.59218C22.4553 6.45287 22.6079 6.26311 22.7024 6.04338C22.7969 5.82365 22.8295 5.58229 22.7969 5.34536L22.5282 3.408L24.1683 2.89627L25.0518 4.64136C25.1596 4.85417 25.3234 5.0336 25.5255 5.16034C25.7276 5.28709 25.9604 5.35637 26.1989 5.36074C27.0936 5.37871 27.9754 5.57854 28.7905 5.94808C29.0077 6.04594 29.2474 6.08276 29.484 6.05459C29.7205 6.02642 29.9449 5.93431 30.1331 5.78818L31.6853 4.58462L32.9446 5.74366L31.8738 7.37852C31.7424 7.57893 31.6684 7.81152 31.6598 8.05104C31.6512 8.29056 31.7084 8.52786 31.8251 8.73717C32.2638 9.52073 32.5358 10.3865 32.624 11.2801C32.6479 11.5176 32.7361 11.744 32.879 11.9351C33.0219 12.1262 33.2141 12.2748 33.4351 12.3648L35.2413 13.1002L34.8643 14.771L32.9074 14.662C32.6694 14.6495 32.4325 14.7017 32.2218 14.8129C32.011 14.9242 31.8343 15.0904 31.7104 15.2939C31.2524 16.0613 30.6407 16.7258 29.9138 17.2457C29.7181 17.3846 29.5642 17.5745 29.4689 17.7948C29.3736 18.0151 29.3405 18.2573 29.3733 18.4951L29.642 20.4376L28.4462 20.8096C28.1463 20.9027 27.8896 21.1002 27.7229 21.3663C27.5562 21.6324 27.4904 21.9495 27.5375 22.26C27.5845 22.5705 27.7414 22.8538 27.9795 23.0585C28.2177 23.2632 28.5213 23.3757 28.8354 23.3757C29.7309 23.167 30.6151 22.9127 31.4846 22.6137C31.7816 22.5215 32.0362 22.3269 32.2031 22.0645C32.3699 21.8021 32.4382 21.489 32.3958 21.181L32.0784 18.8828C32.6152 18.4211 33.0961 17.8983 33.5114 17.3249L35.8273 17.454C36.1376 17.4725 36.4443 17.3798 36.6925 17.1926C36.9406 17.0054 37.1139 16.7359 37.1814 16.4325L38.0483 12.5933C38.1166 12.2902 38.0752 11.9726 37.9314 11.6971C37.7876 11.4216 37.5507 11.2061 37.2628 11.0889L35.1213 10.217C34.9893 9.51736 34.7753 8.8357 34.484 8.18605L35.7516 6.25094C35.922 5.99092 35.9946 5.67883 35.9563 5.37031C35.918 5.06178 35.7714 4.77688 35.5426 4.56641L32.6471 1.90195C32.4187 1.69177 32.1233 1.56928 31.8132 1.5562C31.5031 1.54312 31.1984 1.64029 30.9532 1.83049L29.1168 3.25418C28.4502 3.01959 27.7587 2.86282 27.0561 2.78699L26.0091 0.719229C25.8686 0.442179 25.6345 0.223859 25.3484 0.103015C25.0622 -0.0178283 24.7425 -0.0333802 24.446 0.0591198L20.6836 1.23381C20.387 1.32644 20.1329 1.52123 19.9665 1.78355C19.8 2.04586 19.732 2.35871 19.7744 2.66648L20.0924 4.96209C19.5594 5.42428 19.0805 5.94556 18.6652 6.51588L16.3429 6.38675C16.0324 6.36776 15.7253 6.46032 15.477 6.64775C15.2287 6.83517 15.0556 7.10513 14.9887 7.40896L14.1219 11.2545C14.0535 11.5583 14.0953 11.8765 14.2399 12.1523C14.3845 12.428 14.6224 12.6434 14.9112 12.7599L17.0552 13.6261C17.1886 14.3236 17.4004 15.0039 17.6868 15.6538L16.4185 17.5899C16.2482 17.8498 16.1756 18.1619 16.2138 18.4703C16.2519 18.7788 16.3983 19.0638 16.6269 19.2744L17.2822 19.8778L13.407 22.3121H10.5904L10.4985 21.5049C10.4611 21.1847 10.3074 20.8895 10.0664 20.6753C9.82554 20.4611 9.51429 20.343 9.19194 20.3433H1.31333C0.965461 20.3443 0.632103 20.4828 0.386068 20.7288C0.140033 20.9747 0.00131751 21.308 0.000221252 21.6558V40.6872C0.00157033 41.035 0.140367 41.3682 0.386347 41.614C0.632327 41.8599 0.965539 41.9985 1.31333 41.9997C1.39868 41.9997 11.4177 40.0047 11.4177 40.0047C11.7411 39.9405 12.0286 39.7571 12.2232 39.4909C12.4178 39.2247 12.5052 38.8951 12.4682 38.5675L12.3368 37.4059H29.5451C29.7707 37.4054 29.9923 37.3466 30.1885 37.2353L39.9843 31.7031C40.56 31.3911 41.0466 30.9374 41.3981 30.385C41.7496 29.8325 41.9544 29.1996 41.9932 28.5459C42.032 27.8923 41.9034 27.2396 41.6197 26.6494C41.336 26.0593 40.9064 25.5513 40.3717 25.1734ZM2.62644 39.086V22.9684H8.0233L9.71722 37.6684L2.62644 39.086ZM38.7106 29.4062L29.1971 34.7809H12.0283L10.8943 24.9371H13.7879C14.0345 24.9374 14.2761 24.8667 14.4838 24.7337L21.1216 20.5664C21.4983 20.3506 21.9452 20.2928 22.3644 20.4058C22.7836 20.5188 23.141 20.7934 23.3581 21.1694C23.5753 21.5453 23.6346 21.992 23.523 22.4117C23.4115 22.8313 23.1382 23.1895 22.7629 23.408L17.7272 26.3086C17.5272 26.4246 17.3612 26.5912 17.2459 26.7916C17.1307 26.992 17.0702 27.2193 17.0706 27.4505V28.8746C17.071 29.2071 17.1971 29.5271 17.4236 29.7705C17.6501 30.0139 17.9602 30.1627 18.2918 30.1871L27.4836 30.8433C27.6708 30.8531 27.8581 30.8264 28.0351 30.7646L37.7389 27.1552C38.0306 27.0604 38.3472 27.0778 38.6267 27.2041C38.9062 27.3304 39.1285 27.5565 39.25 27.8381C39.3716 28.1197 39.3837 28.4366 39.2839 28.7266C39.1841 29.0166 38.9797 29.259 38.7106 29.4062Z" fill="#0462B4"/>
<path d="M5.91609 36.0933C6.64097 36.0933 7.22859 35.5056 7.22859 34.7808C7.22859 34.0559 6.64097 33.4683 5.91609 33.4683C5.19122 33.4683 4.60359 34.0559 4.60359 34.7808C4.60359 35.5056 5.19122 36.0933 5.91609 36.0933Z" fill="#0462B4"/>
</g>
<defs>
<clipPath id="clip0_7_711">
<rect width="42" height="42" fill="white"/>
</clipPath>
</defs>
</svg>
