<svg width="220" height="62" viewBox="0 0 220 62" fill="none" xmlns="http://www.w3.org/2000/svg">
<g clip-path="url(#clip0_25_2)">
<path d="M76.837 47.1005C76.4413 46.7436 75.9218 46.5432 75.381 46.539C74.1182 46.539 73.3838 47.4593 73.3935 48.5605C73.3935 49.5152 73.9797 50.4323 75.381 50.4323C75.8643 50.4434 76.3344 50.2787 76.6985 49.9706V48.9099H75.1942V48.1643H77.4974V50.3044C77.2359 50.5981 76.9105 50.8322 76.5446 50.9897C76.1787 51.1472 75.7813 51.2242 75.381 51.2154C73.3999 51.2154 72.5463 49.9394 72.5463 48.5512C72.5463 47.0444 73.5384 45.7622 75.381 45.7622C76.1275 45.7614 76.8441 46.0462 77.3749 46.5546L76.837 47.1005Z" fill="#00A9CB"/>
<path d="M82.5805 51.1218H78.5862V45.8995H82.5451V46.7106H79.4494V48.1207H82.4517V48.8975H79.4784V50.3013H82.5966L82.5805 51.1218Z" fill="#00A9CB"/>
<path d="M86.9099 47.0537C86.749 46.8639 86.5448 46.7127 86.3134 46.612C86.0821 46.5114 85.8298 46.4639 85.5763 46.4735C84.8547 46.4735 84.3297 46.7636 84.3297 47.2628C84.3297 47.7619 84.9321 47.9116 85.6375 48.0084C86.7489 48.1581 87.8022 48.4576 87.8022 49.6275C87.8022 50.7973 86.6941 51.2403 85.5699 51.2403C84.5391 51.2403 83.7434 50.9284 83.2505 50.0548L83.8948 49.6368C84.0702 49.9117 84.3183 50.1362 84.6133 50.287C84.9084 50.4379 85.2398 50.5096 85.5731 50.4947C86.2173 50.4947 86.9389 50.2857 86.9389 49.6275C86.9389 49.0628 86.314 48.8663 85.5602 48.7695C84.4875 48.6292 83.4728 48.3671 83.4728 47.2503C83.4728 46.1334 84.5809 45.7497 85.5505 45.7497C86.3301 45.7497 87.1064 45.9275 87.5606 46.6295L86.9099 47.0537Z" fill="#00A9CB"/>
<path d="M89.9991 46.6513H88.2274V45.8995H92.6309V46.6513H90.8689V51.1218H89.9991V46.6513Z" fill="#00A9CB"/>
<path d="M96.6929 50.0237H93.7712L93.2655 51.1218H92.3474L94.7666 45.8995H95.7072L98.1231 51.1218H97.2083L96.6929 50.0237ZM94.0257 45.1383C94.1739 44.7202 94.4799 44.4364 94.9341 44.5331C95.1209 44.5799 95.282 44.6891 95.4592 44.7514C95.6363 44.8138 95.8522 44.817 95.9359 44.5549L96.4449 44.7421C96.4381 44.8462 96.4072 44.9474 96.3545 45.0384C96.3019 45.1294 96.2287 45.2077 96.1406 45.2676C96.0524 45.3275 95.9515 45.3675 95.8453 45.3845C95.739 45.4015 95.6302 45.3952 95.5268 45.366C95.3491 45.3032 95.1749 45.2313 95.005 45.1508C94.9565 45.131 94.9044 45.1211 94.8518 45.1219C94.7993 45.1226 94.7474 45.1339 94.6996 45.155C94.6518 45.1761 94.609 45.2066 94.5739 45.2445C94.5389 45.2824 94.5124 45.327 94.496 45.3754L94.0257 45.1383ZM95.2369 46.7792L94.0966 49.2749H96.3772L95.2369 46.7792Z" fill="#00A9CB"/>
<path d="M103.847 48.5325C103.847 49.9425 102.962 51.231 101.09 51.231C99.2184 51.231 98.3325 49.9114 98.3325 48.5387C98.3146 48.1791 98.3737 47.8197 98.506 47.4832C98.6384 47.1467 98.8412 46.8404 99.1016 46.5835C99.3621 46.3265 99.6746 46.1245 100.02 45.9902C100.365 45.8558 100.734 45.792 101.106 45.8028C102.945 45.809 103.847 47.1224 103.847 48.5325ZM101.09 50.4635C102.43 50.4635 102.991 49.5464 102.991 48.5481C102.991 47.5498 102.424 46.5858 101.106 46.564C99.8562 46.564 99.1733 47.4063 99.1733 48.5481C99.2023 49.4715 99.7563 50.4635 101.09 50.4635Z" fill="#00A9CB"/>
<path d="M106.788 51.1218V45.8995H110.602V46.7137H107.652V48.3016H110.454V49.0784H107.652V51.1155L106.788 51.1218Z" fill="#00A9CB"/>
<path d="M111.611 51.1218V45.8995H112.464V51.1218H111.611Z" fill="#00A9CB"/>
<path d="M117.541 49.615V45.8995H118.404V51.1218H117.76L114.7 47.4343V51.1218H113.83V45.8995H114.494L117.541 49.615Z" fill="#00A9CB"/>
<path d="M123.494 50.0237H120.575L120.066 51.1218H119.152L121.568 45.8995H122.508L124.927 51.1218H124.006L123.494 50.0237ZM122.038 46.7792L120.898 49.2749H123.178L122.038 46.7792Z" fill="#00A9CB"/>
<path d="M129.395 49.615V45.8995H130.259V51.1218H129.614L126.557 47.4343V51.1218H125.688V45.8995H126.348L129.395 49.615Z" fill="#00A9CB"/>
<path d="M136.15 50.4479C135.882 50.7006 135.565 50.8993 135.217 51.0326C134.87 51.166 134.498 51.2312 134.124 51.2247C132.166 51.2247 131.289 49.9207 131.28 48.548C131.27 47.1754 132.198 45.809 134.124 45.809C134.491 45.8074 134.854 45.8766 135.192 46.0127C135.531 46.1488 135.838 46.3489 136.096 46.6014L135.519 47.1473C135.144 46.7988 134.644 46.6062 134.124 46.6107C133.858 46.5966 133.592 46.6371 133.344 46.7297C133.095 46.8222 132.869 46.9646 132.682 47.1476C132.494 47.3306 132.348 47.55 132.254 47.7913C132.16 48.0327 132.12 48.2906 132.137 48.548C132.137 49.5027 132.729 50.451 134.124 50.451C134.659 50.4452 135.172 50.2422 135.558 49.8833L136.15 50.4479Z" fill="#00A9CB"/>
<path d="M141.008 51.1218H137.026V45.8995H140.985V46.7106H137.89V48.1207H140.863V48.8975H137.89V50.3013H141.008V51.1218Z" fill="#00A9CB"/>
<path d="M142.119 51.1218V45.8995H142.973V51.1218H142.119Z" fill="#00A9CB"/>
<path d="M148.981 51.1218H147.972L146.33 49.3311H145.192V51.1374H144.329V45.8995C145.167 45.8995 146.001 45.8995 146.838 45.8995C148.088 45.8995 148.742 46.7262 148.742 47.6059C148.762 48.0076 148.621 48.4012 148.349 48.7046C148.076 49.0081 147.693 49.1979 147.28 49.2344L148.89 50.972L148.981 51.1218ZM145.192 46.6607V48.5543H146.832C146.966 48.5689 147.101 48.5553 147.228 48.5143C147.356 48.4733 147.473 48.406 147.571 48.317C147.669 48.228 147.746 48.1194 147.796 47.9988C147.847 47.8782 147.869 47.7484 147.863 47.6184C147.867 47.4885 147.843 47.3593 147.792 47.239C147.741 47.1187 147.666 47.0099 147.569 46.9195C147.473 46.8291 147.358 46.7591 147.232 46.714C147.106 46.6689 146.972 46.6497 146.838 46.6575L145.192 46.6607Z" fill="#00A9CB"/>
<path d="M153.616 50.0237H150.698L150.189 51.1218H149.274L151.69 45.8995H152.63L155.049 51.1218H154.131L153.616 50.0237ZM152.16 46.7792L151.02 49.2749H153.3L152.16 46.7792Z" fill="#00A9CB"/>
<path d="M160.973 50.0237H158.055L157.546 51.1218H156.628L159.047 45.8995H159.988L162.407 51.1218H161.489L160.973 50.0237ZM159.517 46.7792L158.377 49.2749H160.658L159.517 46.7792Z" fill="#00A9CB"/>
<path d="M167.442 45.8995V48.9505C167.442 50.4885 166.395 51.2559 165.093 51.2122C163.892 51.181 162.867 50.4355 162.867 48.9505V45.8995H163.721V48.9505C163.721 49.8864 164.291 50.4136 165.093 50.4417C165.957 50.4885 166.588 49.9425 166.588 48.9505V45.8995H167.442Z" fill="#00A9CB"/>
<path d="M169.954 46.6513H168.183V45.8995H172.586V46.6513H170.824V51.1218H169.954V46.6513Z" fill="#00A9CB"/>
<path d="M178.426 48.5324C178.426 49.9425 177.54 51.2309 175.669 51.2309C173.797 51.2309 172.911 49.9113 172.911 48.5387C172.893 48.1792 172.952 47.8199 173.084 47.4834C173.216 47.1469 173.418 46.8406 173.678 46.5836C173.939 46.3266 174.251 46.1245 174.596 45.9902C174.94 45.8558 175.31 45.792 175.682 45.8027C177.524 45.809 178.426 47.1224 178.426 48.5324ZM175.669 50.4635C177.009 50.4635 177.569 49.5463 177.569 48.548C177.569 47.5498 176.999 46.5858 175.682 46.5639C174.435 46.5639 173.765 47.4062 173.765 48.548C173.781 49.4715 174.335 50.4635 175.669 50.4635Z" fill="#00A9CB"/>
<path d="M184.141 47.1224L182.311 49.59H182.124L180.314 47.1224V51.128H179.454V45.8995H180.456L182.234 48.3453L184.006 45.8995H185.007V51.1218H184.144L184.141 47.1224Z" fill="#00A9CB"/>
<path d="M190.094 50.0237H187.175L186.666 51.1218H185.748L188.167 45.8995H189.108L191.527 51.1218H190.609L190.094 50.0237ZM188.638 46.7792L187.497 49.2749H189.778L188.638 46.7792Z" fill="#00A9CB"/>
<path d="M193.012 46.6513H191.24V45.8995H195.647V46.6513H193.882V51.1218H193.012V46.6513Z" fill="#00A9CB"/>
<path d="M196.456 51.1218V45.8995H197.309V51.1218H196.456Z" fill="#00A9CB"/>
<path d="M198.434 45.8995H202.37V46.2801L199.406 50.3356H202.37V51.1343H198.182V50.6632L201.081 46.6794H198.414L198.434 45.8995Z" fill="#00A9CB"/>
<path d="M207.092 50.0237H204.174L203.665 51.1218H202.747L205.182 45.8995H206.123L208.542 51.1218H207.624L207.092 50.0237ZM205.636 46.7792L204.496 49.2749H206.793L205.636 46.7792Z" fill="#00A9CB"/>
<path d="M211.303 45.8995C213.145 45.8995 213.983 47.1754 214.005 48.4638C214.028 49.7522 213.19 51.1218 211.303 51.1218H209.273V45.8995H211.303ZM210.117 50.3138H211.303C212.62 50.3138 213.174 49.3779 213.152 48.442C213.161 48.2057 213.12 47.97 213.03 47.7502C212.94 47.5303 212.804 47.3311 212.63 47.1653C212.456 46.9996 212.248 46.871 212.019 46.7879C211.79 46.7047 211.546 46.6688 211.303 46.6825H210.117V50.3138Z" fill="#00A9CB"/>
<path d="M218.57 50.0237H215.648L215.142 51.1218H214.224L216.643 45.8995H217.584L220 51.1218H219.085L218.57 50.0237ZM217.101 46.7792L215.961 49.2749H218.241L217.101 46.7792Z" fill="#00A9CB"/>
<path d="M93.5619 35.1616C90.7916 37.8133 87.4221 38.8678 83.7015 38.8678C74.0377 38.8678 70.2914 32.9872 70.256 26.5295C70.2205 20.4088 74.4694 13.9168 83.7015 13.9168C85.4693 13.8997 87.2225 14.2279 88.8564 14.8818C90.4902 15.5358 91.9712 16.502 93.2107 17.7227L88.9297 21.8033C88.2467 21.1352 87.4318 20.6072 86.5336 20.2508C85.6353 19.8944 84.6722 19.7168 83.7015 19.7287C78.9631 19.7287 77.1012 23.4723 77.1366 26.5607C77.172 29.6492 78.8568 33.1557 83.7015 33.1557C85.8823 33.1027 87.9585 32.2392 89.4998 30.7442L93.5619 35.1616Z" fill="#143C68"/>
<path d="M107.99 38.8335C99.9367 38.8335 94.335 34.3131 94.335 26.3548C94.335 18.537 99.9496 13.8762 107.99 13.8762C116.03 13.8762 121.642 18.4309 121.642 26.3548C121.642 34.2788 116.062 38.8335 107.99 38.8335ZM107.99 19.6289C104.021 19.6289 101.283 22.4147 101.283 26.358C101.283 30.3012 104.057 33.0902 107.99 33.0902C112.062 33.0902 114.693 30.3012 114.693 26.358C114.693 22.2806 112.062 19.6289 107.99 19.6289Z" fill="#143C68"/>
<path d="M140.386 21.0545C138.702 19.8316 136.769 19.423 134.63 19.423C132.945 19.423 131.293 19.9346 131.293 21.1918C131.293 22.8234 132.945 23.0636 135.364 23.2976C140.245 23.8092 145.334 25.7122 145.334 31.184C145.334 36.5904 140.071 38.9021 134.559 38.9364C130.136 38.9707 126.976 38.222 123.571 34.7529L127.398 30.504C129.82 32.7844 132.523 33.19 134.594 33.19C136.875 33.19 138.46 32.4101 138.46 31.0842C138.46 29.8925 137.055 29.1469 134.353 28.9005C128.983 28.4263 124.351 27.1004 124.351 21.1856C124.351 16.1536 129.44 13.9792 134.636 13.9792C138.321 13.9792 141.198 14.7934 143.83 16.7868L140.386 21.0545Z" fill="#143C68"/>
<path d="M148.633 38.2563V14.4596H155.546V38.2563H148.633Z" fill="#143C68"/>
<path d="M181.064 24.0806L174.78 31.287H173.552L167.41 24.1118V38.2563H160.529V14.4596H167.796L174.239 22.5177L180.681 14.4596H187.913V38.2563H181.064V24.0806Z" fill="#143C68"/>
<path d="M205.211 38.8335C197.158 38.8335 191.559 34.3131 191.559 26.3548C191.559 18.537 197.174 13.8762 205.211 13.8762C213.248 13.8762 218.866 18.4309 218.866 26.3548C218.866 34.2788 213.284 38.8335 205.211 38.8335ZM205.211 19.6289C201.246 19.6289 198.508 22.4147 198.508 26.358C198.508 30.3012 201.281 33.0902 205.211 33.0902C209.283 33.0902 211.915 30.3012 211.915 26.358C211.915 22.2806 209.283 19.6289 205.211 19.6289Z" fill="#143C68"/>
<path d="M43.6031 59.0519C46.946 59.0519 49.6559 56.4275 49.6559 53.1901C49.6559 49.9527 46.946 47.3283 43.6031 47.3283C40.2603 47.3283 37.5504 49.9527 37.5504 53.1901C37.5504 56.4275 40.2603 59.0519 43.6031 59.0519Z" fill="url(#paint0_linear_25_2)"/>
<path d="M25.7927 4.24898C26.8477 4.24898 27.7029 3.42073 27.7029 2.39903C27.7029 1.37733 26.8477 0.549072 25.7927 0.549072C24.7377 0.549072 23.8825 1.37733 23.8825 2.39903C23.8825 3.42073 24.7377 4.24898 25.7927 4.24898Z" fill="url(#paint1_linear_25_2)"/>
<path d="M25.0808 17.1051C26.0913 17.1051 26.9105 16.3117 26.9105 15.3331C26.9105 14.3545 26.0913 13.5611 25.0808 13.5611C24.0703 13.5611 23.2511 14.3545 23.2511 15.3331C23.2511 16.3117 24.0703 17.1051 25.0808 17.1051Z" fill="url(#paint2_linear_25_2)"/>
<path d="M21.1927 24.5766C22.9718 24.5766 24.414 23.1799 24.414 21.457C24.414 19.734 22.9718 18.3373 21.1927 18.3373C19.4137 18.3373 17.9715 19.734 17.9715 21.457C17.9715 23.1799 19.4137 24.5766 21.1927 24.5766Z" fill="url(#paint3_linear_25_2)"/>
<path d="M15.4106 56.3409C19.1128 56.3409 22.114 53.4344 22.114 49.8489C22.114 46.2635 19.1128 43.3569 15.4106 43.3569C11.7083 43.3569 8.70709 46.2635 8.70709 49.8489C8.70709 53.4344 11.7083 56.3409 15.4106 56.3409Z" fill="url(#paint4_linear_25_2)"/>
<path d="M36.2329 47.2846C38.1258 47.2846 39.6603 45.7985 39.6603 43.9653C39.6603 42.1321 38.1258 40.646 36.2329 40.646C34.3399 40.646 32.8054 42.1321 32.8054 43.9653C32.8054 45.7985 34.3399 47.2846 36.2329 47.2846Z" fill="url(#paint5_linear_25_2)"/>
<path d="M53.3604 52.4975C54.805 52.4975 55.976 51.3634 55.976 49.9644C55.976 48.5654 54.805 47.4312 53.3604 47.4312C51.9158 47.4312 50.7447 48.5654 50.7447 49.9644C50.7447 51.3634 51.9158 52.4975 53.3604 52.4975Z" fill="#00A9CB"/>
<path d="M29.2717 40.933C30.3196 40.933 31.169 40.1103 31.169 39.0955C31.169 38.0807 30.3196 37.258 29.2717 37.258C28.2238 37.258 27.3744 38.0807 27.3744 39.0955C27.3744 40.1103 28.2238 40.933 29.2717 40.933Z" fill="url(#paint6_linear_25_2)"/>
<path d="M2.48037 38.9489C3.80755 38.9489 4.88344 37.9069 4.88344 36.6216C4.88344 35.3363 3.80755 34.2943 2.48037 34.2943C1.15319 34.2943 0.077301 35.3363 0.077301 36.6216C0.077301 37.9069 1.15319 38.9489 2.48037 38.9489Z" fill="url(#paint7_linear_25_2)"/>
<path d="M44.2345 45.8121C45.4158 45.8121 46.3734 44.8847 46.3734 43.7407C46.3734 42.5966 45.4158 41.6692 44.2345 41.6692C43.0532 41.6692 42.0956 42.5966 42.0956 43.7407C42.0956 44.8847 43.0532 45.8121 44.2345 45.8121Z" fill="url(#paint8_linear_25_2)"/>
<path d="M29.0269 47.5155C30.2953 47.5155 31.3236 46.5196 31.3236 45.2911C31.3236 44.0627 30.2953 43.0668 29.0269 43.0668C27.7584 43.0668 26.7301 44.0627 26.7301 45.2911C26.7301 46.5196 27.7584 47.5155 29.0269 47.5155Z" fill="url(#paint9_linear_25_2)"/>
<path d="M29.4296 62C33.2065 62 36.2683 59.0348 36.2683 55.377C36.2683 51.7192 33.2065 48.7539 29.4296 48.7539C25.6526 48.7539 22.5908 51.7192 22.5908 55.377C22.5908 59.0348 25.6526 62 29.4296 62Z" fill="url(#paint10_linear_25_2)"/>
<path d="M52.1105 47.0631C54.6759 47.0631 56.7556 45.049 56.7556 42.5646C56.7556 40.0801 54.6759 38.066 52.1105 38.066C49.5451 38.066 47.4655 40.0801 47.4655 42.5646C47.4655 45.049 49.5451 47.0631 52.1105 47.0631Z" fill="url(#paint11_linear_25_2)"/>
<path d="M13.961 41.351C16.7684 41.351 19.0442 39.147 19.0442 36.4282C19.0442 33.7094 16.7684 31.5054 13.961 31.5054C11.1536 31.5054 8.87784 33.7094 8.87784 36.4282C8.87784 39.147 11.1536 41.351 13.961 41.351Z" fill="url(#paint12_linear_25_2)"/>
<path d="M12.9592 12.8779C14.7436 12.8779 16.1901 11.477 16.1901 9.74892C16.1901 8.02081 14.7436 6.6199 12.9592 6.6199C11.1748 6.6199 9.72824 8.02081 9.72824 9.74892C9.72824 11.477 11.1748 12.8779 12.9592 12.8779Z" fill="url(#paint13_linear_25_2)"/>
<path d="M4.81258 24.6266C6.73574 24.6266 8.29477 23.1167 8.29477 21.2542C8.29477 19.3917 6.73574 17.8819 4.81258 17.8819C2.88941 17.8819 1.33038 19.3917 1.33038 21.2542C1.33038 23.1167 2.88941 24.6266 4.81258 24.6266Z" fill="url(#paint14_linear_25_2)"/>
<path d="M25.374 11.8859C26.831 11.8859 28.0122 10.742 28.0122 9.33088C28.0122 7.91979 26.831 6.77588 25.374 6.77588C23.9169 6.77588 22.7357 7.91979 22.7357 9.33088C22.7357 10.742 23.9169 11.8859 25.374 11.8859Z" fill="url(#paint15_linear_25_2)"/>
<path d="M39.86 4.39247C40.7798 4.39247 41.5254 3.67037 41.5254 2.77961C41.5254 1.88885 40.7798 1.16675 39.86 1.16675C38.9402 1.16675 38.1946 1.88885 38.1946 2.77961C38.1946 3.67037 38.9402 4.39247 39.86 4.39247Z" fill="#124372"/>
<path d="M36.0364 7.69619C37.2586 7.69619 38.2494 6.73665 38.2494 5.55299C38.2494 4.36933 37.2586 3.40979 36.0364 3.40979C34.8142 3.40979 33.8234 4.36933 33.8234 5.55299C33.8234 6.73665 34.8142 7.69619 36.0364 7.69619Z" fill="url(#paint16_linear_25_2)"/>
<path d="M21.6373 32.7501C23.3487 32.7501 24.7361 31.4065 24.7361 29.749C24.7361 28.0916 23.3487 26.7479 21.6373 26.7479C19.9258 26.7479 18.5384 28.0916 18.5384 29.749C18.5384 31.4065 19.9258 32.7501 21.6373 32.7501Z" fill="url(#paint17_linear_25_2)"/>
<path d="M5.87884 46.3986C7.80556 46.3986 9.36747 44.886 9.36747 43.02C9.36747 41.1541 7.80556 39.6414 5.87884 39.6414C3.95211 39.6414 2.3902 41.1541 2.3902 43.02C2.3902 44.886 3.95211 46.3986 5.87884 46.3986Z" fill="url(#paint18_linear_25_2)"/>
<path d="M5.01875 33.9231C7.26214 33.9231 9.08077 32.1619 9.08077 29.9892C9.08077 27.8166 7.26214 26.0554 5.01875 26.0554C2.77536 26.0554 0.956726 27.8166 0.956726 29.9892C0.956726 32.1619 2.77536 33.9231 5.01875 33.9231Z" fill="url(#paint19_linear_25_2)"/>
<path d="M13.3039 29.7989C15.3889 29.7989 17.0792 28.162 17.0792 26.1427C17.0792 24.1234 15.3889 22.4865 13.3039 22.4865C11.2188 22.4865 9.52853 24.1234 9.52853 26.1427C9.52853 28.162 11.2188 29.7989 13.3039 29.7989Z" fill="url(#paint20_linear_25_2)"/>
<path d="M13.1492 21.0358C14.8874 21.0358 16.2964 19.6712 16.2964 17.9879C16.2964 16.3046 14.8874 14.94 13.1492 14.94C11.4111 14.94 10.002 16.3046 10.002 17.9879C10.002 19.6712 11.4111 21.0358 13.1492 21.0358Z" fill="url(#paint21_linear_25_2)"/>
<path d="M19.2085 15.9133C20.5285 15.9133 21.5986 14.877 21.5986 13.5986C21.5986 12.3201 20.5285 11.2838 19.2085 11.2838C17.8884 11.2838 16.8183 12.3201 16.8183 13.5986C16.8183 14.877 17.8884 15.9133 19.2085 15.9133Z" fill="url(#paint22_linear_25_2)"/>
<path d="M36.2393 1.89363C36.6645 1.89363 37.0092 1.55981 37.0092 1.14803C37.0092 0.736251 36.6645 0.402435 36.2393 0.402435C35.8141 0.402435 35.4694 0.736251 35.4694 1.14803C35.4694 1.55981 35.8141 1.89363 36.2393 1.89363Z" fill="url(#paint23_linear_25_2)"/>
<path d="M34.3581 9.84874C34.7833 9.84874 35.128 9.51492 35.128 9.10314C35.128 8.69136 34.7833 8.35754 34.3581 8.35754C33.9329 8.35754 33.5882 8.69136 33.5882 9.10314C33.5882 9.51492 33.9329 9.84874 34.3581 9.84874Z" fill="url(#paint24_linear_25_2)"/>
<path d="M0.769884 26.3049C1.19508 26.3049 1.53977 25.9711 1.53977 25.5593C1.53977 25.1475 1.19508 24.8137 0.769884 24.8137C0.344689 24.8137 0 25.1475 0 25.5593C0 25.9711 0.344689 26.3049 0.769884 26.3049Z" fill="url(#paint25_linear_25_2)"/>
<path d="M48.3448 6.33915C48.7807 6.33915 49.1341 5.99695 49.1341 5.57483C49.1341 5.15271 48.7807 4.81052 48.3448 4.81052C47.909 4.81052 47.5556 5.15271 47.5556 5.57483C47.5556 5.99695 47.909 6.33915 48.3448 6.33915Z" fill="#124372"/>
<path d="M31.7972 4.10546C32.9678 4.10546 33.9168 3.18642 33.9168 2.05273C33.9168 0.919039 32.9678 0 31.7972 0C30.6266 0 29.6776 0.919039 29.6776 2.05273C29.6776 3.18642 30.6266 4.10546 31.7972 4.10546Z" fill="url(#paint26_linear_25_2)"/>
<path d="M19.3598 7.53396C20.776 7.53396 21.924 6.42218 21.924 5.05072C21.924 3.67926 20.776 2.56747 19.3598 2.56747C17.9437 2.56747 16.7957 3.67926 16.7957 5.05072C16.7957 6.42218 17.9437 7.53396 19.3598 7.53396Z" fill="url(#paint27_linear_25_2)"/>
<path d="M6.91607 16.7806C8.11872 16.7806 9.09365 15.8364 9.09365 14.6717C9.09365 13.507 8.11872 12.5628 6.91607 12.5628C5.71343 12.5628 4.73849 13.507 4.73849 14.6717C4.73849 15.8364 5.71343 16.7806 6.91607 16.7806Z" fill="url(#paint28_linear_25_2)"/>
<path d="M30.3154 8.07991C31.1409 8.07991 31.81 7.43184 31.81 6.63239C31.81 5.83295 31.1409 5.18488 30.3154 5.18488C29.4899 5.18488 28.8207 5.83295 28.8207 6.63239C28.8207 7.43184 29.4899 8.07991 30.3154 8.07991Z" fill="url(#paint29_linear_25_2)"/>
<path d="M30.5376 11.8235C31.1585 11.8235 31.6619 11.336 31.6619 10.7347C31.6619 10.1334 31.1585 9.64597 30.5376 9.64597C29.9168 9.64597 29.4134 10.1334 29.4134 10.7347C29.4134 11.336 29.9168 11.8235 30.5376 11.8235Z" fill="url(#paint30_linear_25_2)"/>
<path d="M46.3509 9.4276C47.0501 9.4276 47.6169 8.87869 47.6169 8.20158C47.6169 7.52447 47.0501 6.97556 46.3509 6.97556C45.6517 6.97556 45.0849 7.52447 45.0849 8.20158C45.0849 8.87869 45.6517 9.4276 46.3509 9.4276Z" fill="#124372"/>
<path d="M22.9838 43.9403C24.5387 43.9403 25.7992 42.7196 25.7992 41.2138C25.7992 39.7079 24.5387 38.4872 22.9838 38.4872C21.4289 38.4872 20.1684 39.7079 20.1684 41.2138C20.1684 42.7196 21.4289 43.9403 22.9838 43.9403Z" fill="url(#paint31_linear_25_2)"/>
<path d="M44.5921 5.26908C45.2699 5.26908 45.8194 4.73693 45.8194 4.08049C45.8194 3.42406 45.2699 2.89191 44.5921 2.89191C43.9142 2.89191 43.3647 3.42406 43.3647 4.08049C43.3647 4.73693 43.9142 5.26908 44.5921 5.26908Z" fill="#124372"/>
<path d="M50.7189 9.32151C51.4839 9.32151 52.1041 8.72092 52.1041 7.98006C52.1041 7.2392 51.4839 6.63861 50.7189 6.63861C49.9539 6.63861 49.3338 7.2392 49.3338 7.98006C49.3338 8.72092 49.9539 9.32151 50.7189 9.32151Z" fill="#124372"/>
<path d="M41.1582 7.46534C41.7168 7.46534 42.1697 7.02677 42.1697 6.48577C42.1697 5.94476 41.7168 5.5062 41.1582 5.5062C40.5996 5.5062 40.1467 5.94476 40.1467 6.48577C40.1467 7.02677 40.5996 7.46534 41.1582 7.46534Z" fill="#124372"/>
<path d="M53.6342 10.7129C54.1163 10.7129 54.5071 10.3344 54.5071 9.86746C54.5071 9.40054 54.1163 9.02203 53.6342 9.02203C53.152 9.02203 52.7612 9.40054 52.7612 9.86746C52.7612 10.3344 53.152 10.7129 53.6342 10.7129Z" fill="#124372"/>
<path d="M25.622 36.5249C26.5507 36.5249 27.3035 35.7958 27.3035 34.8964C27.3035 33.9971 26.5507 33.268 25.622 33.268C24.6933 33.268 23.9405 33.9971 23.9405 34.8964C23.9405 35.7958 24.6933 36.5249 25.622 36.5249Z" fill="url(#paint32_linear_25_2)"/>
<path d="M56.6203 13.0776C56.8854 13.0776 57.1003 12.8695 57.1003 12.6127C57.1003 12.356 56.8854 12.1479 56.6203 12.1479C56.3552 12.1479 56.1403 12.356 56.1403 12.6127C56.1403 12.8695 56.3552 13.0776 56.6203 13.0776Z" fill="#124372"/>
<path d="M51.1538 11.7642C51.4189 11.7642 51.6338 11.5561 51.6338 11.2994C51.6338 11.0427 51.4189 10.8346 51.1538 10.8346C50.8887 10.8346 50.6738 11.0427 50.6738 11.2994C50.6738 11.5561 50.8887 11.7642 51.1538 11.7642Z" fill="#124372"/>
<path d="M39.0547 8.71631C39.3198 8.71631 39.5347 8.5082 39.5347 8.25148C39.5347 7.99476 39.3198 7.78665 39.0547 7.78665C38.7896 7.78665 38.5747 7.99476 38.5747 8.25148C38.5747 8.5082 38.7896 8.71631 39.0547 8.71631Z" fill="#124372"/>
<path d="M43.7803 7.25943C44.0454 7.25943 44.2603 7.05132 44.2603 6.7946C44.2603 6.53788 44.0454 6.32977 43.7803 6.32977C43.5152 6.32977 43.3004 6.53788 43.3004 6.7946C43.3004 7.05132 43.5152 7.25943 43.7803 7.25943Z" fill="#124372"/>
</g>
<defs>
<linearGradient id="paint0_linear_25_2" x1="38.2333" y1="34.9901" x2="31.2851" y2="9.87772" gradientUnits="userSpaceOnUse">
<stop stop-color="#00A9CB"/>
<stop offset="0.26" stop-color="#0493B8"/>
<stop offset="0.8" stop-color="#0E5A86"/>
<stop offset="1" stop-color="#124372"/>
</linearGradient>
<linearGradient id="paint1_linear_25_2" x1="37.4537" y1="41.9282" x2="28.4475" y2="9.38423" gradientUnits="userSpaceOnUse">
<stop stop-color="#00A9CB"/>
<stop offset="0.26" stop-color="#0493B8"/>
<stop offset="0.8" stop-color="#0E5A86"/>
<stop offset="1" stop-color="#124372"/>
</linearGradient>
<linearGradient id="paint2_linear_25_2" x1="30.4442" y1="33.5144" x2="23.8178" y2="9.56804" gradientUnits="userSpaceOnUse">
<stop stop-color="#00A9CB"/>
<stop offset="0.26" stop-color="#0493B8"/>
<stop offset="0.8" stop-color="#0E5A86"/>
<stop offset="1" stop-color="#124372"/>
</linearGradient>
<linearGradient id="paint3_linear_25_2" x1="26.1309" y1="38.197" x2="18.8762" y2="11.972" gradientUnits="userSpaceOnUse">
<stop stop-color="#00A9CB"/>
<stop offset="0.26" stop-color="#0493B8"/>
<stop offset="0.8" stop-color="#0E5A86"/>
<stop offset="1" stop-color="#124372"/>
</linearGradient>
<linearGradient id="paint4_linear_25_2" x1="13.1557" y1="42.212" x2="5.90091" y2="15.987" gradientUnits="userSpaceOnUse">
<stop stop-color="#00A9CB"/>
<stop offset="0.26" stop-color="#0493B8"/>
<stop offset="0.8" stop-color="#0E5A86"/>
<stop offset="1" stop-color="#124372"/>
</linearGradient>
<linearGradient id="paint5_linear_25_2" x1="33.7138" y1="35.4268" x2="26.456" y2="9.20168" gradientUnits="userSpaceOnUse">
<stop stop-color="#00A9CB"/>
<stop offset="0.26" stop-color="#0493B8"/>
<stop offset="0.8" stop-color="#0E5A86"/>
<stop offset="1" stop-color="#124372"/>
</linearGradient>
<linearGradient id="paint6_linear_25_2" x1="28.6983" y1="37.152" x2="20.9609" y2="9.18735" gradientUnits="userSpaceOnUse">
<stop stop-color="#00A9CB"/>
<stop offset="0.26" stop-color="#0493B8"/>
<stop offset="0.8" stop-color="#0E5A86"/>
<stop offset="1" stop-color="#124372"/>
</linearGradient>
<linearGradient id="paint7_linear_25_2" x1="4.67406" y1="44.0495" x2="-2.58375" y2="17.8244" gradientUnits="userSpaceOnUse">
<stop stop-color="#00A9CB"/>
<stop offset="0.26" stop-color="#0493B8"/>
<stop offset="0.8" stop-color="#0E5A86"/>
<stop offset="1" stop-color="#124372"/>
</linearGradient>
<linearGradient id="paint8_linear_25_2" x1="41.4094" y1="34.1571" x2="34.8346" y2="10.4019" gradientUnits="userSpaceOnUse">
<stop stop-color="#00A9CB"/>
<stop offset="0.26" stop-color="#0493B8"/>
<stop offset="0.8" stop-color="#0E5A86"/>
<stop offset="1" stop-color="#124372"/>
</linearGradient>
<linearGradient id="paint9_linear_25_2" x1="26.8171" y1="37.8009" x2="19.7566" y2="12.2811" gradientUnits="userSpaceOnUse">
<stop stop-color="#00A9CB"/>
<stop offset="0.26" stop-color="#0493B8"/>
<stop offset="0.8" stop-color="#0E5A86"/>
<stop offset="1" stop-color="#124372"/>
</linearGradient>
<linearGradient id="paint10_linear_25_2" x1="24.8135" y1="39.7257" x2="18.0383" y2="15.2464" gradientUnits="userSpaceOnUse">
<stop stop-color="#00A9CB"/>
<stop offset="0.26" stop-color="#0493B8"/>
<stop offset="0.8" stop-color="#0E5A86"/>
<stop offset="1" stop-color="#124372"/>
</linearGradient>
<linearGradient id="paint11_linear_25_2" x1="49.1598" y1="32.5598" x2="42.3816" y2="8.06181" gradientUnits="userSpaceOnUse">
<stop stop-color="#00A9CB"/>
<stop offset="0.26" stop-color="#0493B8"/>
<stop offset="0.8" stop-color="#0E5A86"/>
<stop offset="1" stop-color="#124372"/>
</linearGradient>
<linearGradient id="paint12_linear_25_2" x1="15.3139" y1="41.0172" x2="8.05919" y2="14.7922" gradientUnits="userSpaceOnUse">
<stop stop-color="#00A9CB"/>
<stop offset="0.26" stop-color="#0493B8"/>
<stop offset="0.8" stop-color="#0E5A86"/>
<stop offset="1" stop-color="#124372"/>
</linearGradient>
<linearGradient id="paint13_linear_25_2" x1="22.3041" y1="41.4321" x2="14.2813" y2="12.4363" gradientUnits="userSpaceOnUse">
<stop stop-color="#00A9CB"/>
<stop offset="0.26" stop-color="#0493B8"/>
<stop offset="0.8" stop-color="#0E5A86"/>
<stop offset="1" stop-color="#124372"/>
</linearGradient>
<linearGradient id="paint14_linear_25_2" x1="10.7301" y1="41.3073" x2="3.47224" y2="15.0823" gradientUnits="userSpaceOnUse">
<stop stop-color="#00A9CB"/>
<stop offset="0.26" stop-color="#0493B8"/>
<stop offset="0.8" stop-color="#0E5A86"/>
<stop offset="1" stop-color="#124372"/>
</linearGradient>
<linearGradient id="paint15_linear_25_2" x1="33.1952" y1="35.8448" x2="25.9374" y2="9.61972" gradientUnits="userSpaceOnUse">
<stop stop-color="#00A9CB"/>
<stop offset="0.26" stop-color="#0493B8"/>
<stop offset="0.8" stop-color="#0E5A86"/>
<stop offset="1" stop-color="#124372"/>
</linearGradient>
<linearGradient id="paint16_linear_25_2" x1="44.0831" y1="32.8312" x2="36.8284" y2="6.60936" gradientUnits="userSpaceOnUse">
<stop stop-color="#00A9CB"/>
<stop offset="0.26" stop-color="#0493B8"/>
<stop offset="0.8" stop-color="#0E5A86"/>
<stop offset="1" stop-color="#124372"/>
</linearGradient>
<linearGradient id="paint17_linear_25_2" x1="24.1499" y1="38.2657" x2="16.8921" y2="12.0437" gradientUnits="userSpaceOnUse">
<stop stop-color="#00A9CB"/>
<stop offset="0.26" stop-color="#0493B8"/>
<stop offset="0.8" stop-color="#0E5A86"/>
<stop offset="1" stop-color="#124372"/>
</linearGradient>
<linearGradient id="paint18_linear_25_2" x1="6.04634" y1="43.5909" x2="-0.152097" y2="21.196" gradientUnits="userSpaceOnUse">
<stop stop-color="#00A9CB"/>
<stop offset="0.26" stop-color="#0493B8"/>
<stop offset="0.8" stop-color="#0E5A86"/>
<stop offset="1" stop-color="#124372"/>
</linearGradient>
<linearGradient id="paint19_linear_25_2" x1="8.74254" y1="42.6114" x2="1.48779" y2="16.3864" gradientUnits="userSpaceOnUse">
<stop stop-color="#00A9CB"/>
<stop offset="0.26" stop-color="#0493B8"/>
<stop offset="0.8" stop-color="#0E5A86"/>
<stop offset="1" stop-color="#124372"/>
</linearGradient>
<linearGradient id="paint20_linear_25_2" x1="17.4529" y1="40.1998" x2="10.1981" y2="13.978" gradientUnits="userSpaceOnUse">
<stop stop-color="#00A9CB"/>
<stop offset="0.26" stop-color="#0493B8"/>
<stop offset="0.8" stop-color="#0E5A86"/>
<stop offset="1" stop-color="#124372"/>
</linearGradient>
<linearGradient id="paint21_linear_25_2" x1="19.3953" y1="39.1704" x2="12.3955" y2="13.87" gradientUnits="userSpaceOnUse">
<stop stop-color="#00A9CB"/>
<stop offset="0.26" stop-color="#0493B8"/>
<stop offset="0.8" stop-color="#0E5A86"/>
<stop offset="1" stop-color="#124372"/>
</linearGradient>
<linearGradient id="paint22_linear_25_2" x1="26.3339" y1="37.7447" x2="19.0761" y2="11.5196" gradientUnits="userSpaceOnUse">
<stop stop-color="#00A9CB"/>
<stop offset="0.26" stop-color="#0493B8"/>
<stop offset="0.8" stop-color="#0E5A86"/>
<stop offset="1" stop-color="#124372"/>
</linearGradient>
<linearGradient id="paint23_linear_25_2" x1="45.5584" y1="32.7377" x2="38.3037" y2="6.51576" gradientUnits="userSpaceOnUse">
<stop stop-color="#00A9CB"/>
<stop offset="0.26" stop-color="#0493B8"/>
<stop offset="0.8" stop-color="#0E5A86"/>
<stop offset="1" stop-color="#124372"/>
</linearGradient>
<linearGradient id="paint24_linear_25_2" x1="41.1679" y1="32.1823" x2="33.9131" y2="5.96045" gradientUnits="userSpaceOnUse">
<stop stop-color="#00A9CB"/>
<stop offset="0.26" stop-color="#0493B8"/>
<stop offset="0.8" stop-color="#0E5A86"/>
<stop offset="1" stop-color="#124372"/>
</linearGradient>
<linearGradient id="paint25_linear_25_2" x1="6.11397" y1="43.6783" x2="-1.14077" y2="17.4533" gradientUnits="userSpaceOnUse">
<stop stop-color="#00A9CB"/>
<stop offset="0.26" stop-color="#0493B8"/>
<stop offset="0.8" stop-color="#0E5A86"/>
<stop offset="1" stop-color="#124372"/>
</linearGradient>
<linearGradient id="paint26_linear_25_2" x1="41.1002" y1="33.5893" x2="33.8455" y2="7.36432" gradientUnits="userSpaceOnUse">
<stop stop-color="#00A9CB"/>
<stop offset="0.26" stop-color="#0493B8"/>
<stop offset="0.8" stop-color="#0E5A86"/>
<stop offset="1" stop-color="#124372"/>
</linearGradient>
<linearGradient id="paint27_linear_25_2" x1="28.6339" y1="36.4875" x2="21.3761" y2="10.2655" gradientUnits="userSpaceOnUse">
<stop stop-color="#00A9CB"/>
<stop offset="0.26" stop-color="#0493B8"/>
<stop offset="0.8" stop-color="#0E5A86"/>
<stop offset="1" stop-color="#124372"/>
</linearGradient>
<linearGradient id="paint28_linear_25_2" x1="14.7341" y1="41.1794" x2="7.47935" y2="14.9544" gradientUnits="userSpaceOnUse">
<stop stop-color="#00A9CB"/>
<stop offset="0.26" stop-color="#0493B8"/>
<stop offset="0.8" stop-color="#0E5A86"/>
<stop offset="1" stop-color="#124372"/>
</linearGradient>
<linearGradient id="paint29_linear_25_2" x1="38.3686" y1="33.9325" x2="31.1138" y2="7.70749" gradientUnits="userSpaceOnUse">
<stop stop-color="#00A9CB"/>
<stop offset="0.26" stop-color="#0493B8"/>
<stop offset="0.8" stop-color="#0E5A86"/>
<stop offset="1" stop-color="#124372"/>
</linearGradient>
<linearGradient id="paint30_linear_25_2" x1="37.399" y1="33.9917" x2="30.1411" y2="7.76665" gradientUnits="userSpaceOnUse">
<stop stop-color="#00A9CB"/>
<stop offset="0.26" stop-color="#0493B8"/>
<stop offset="0.8" stop-color="#0E5A86"/>
<stop offset="1" stop-color="#124372"/>
</linearGradient>
<linearGradient id="paint31_linear_25_2" x1="22.2654" y1="38.7804" x2="15.0107" y2="12.5585" gradientUnits="userSpaceOnUse">
<stop stop-color="#00A9CB"/>
<stop offset="0.26" stop-color="#0493B8"/>
<stop offset="0.8" stop-color="#0E5A86"/>
<stop offset="1" stop-color="#124372"/>
</linearGradient>
<linearGradient id="paint32_linear_25_2" x1="26.1213" y1="36.5873" x2="18.8665" y2="10.3623" gradientUnits="userSpaceOnUse">
<stop stop-color="#00A9CB"/>
<stop offset="0.26" stop-color="#0493B8"/>
<stop offset="0.8" stop-color="#0E5A86"/>
<stop offset="1" stop-color="#124372"/>
</linearGradient>
<clipPath id="clip0_25_2">
<rect width="220" height="62" fill="white"/>
</clipPath>
</defs>
</svg>
