<svg width="235" height="68" viewBox="0 0 235 68" fill="none" xmlns="http://www.w3.org/2000/svg">
<g clip-path="url(#clip0_6_582)">
<path d="M82.0759 51.6586C81.6532 51.2671 81.0982 51.0474 80.5206 51.0428C79.1718 51.0428 78.3872 52.0521 78.3976 53.2599C78.3976 54.3069 79.0238 55.3129 80.5206 55.3129C81.0369 55.325 81.539 55.1444 81.9279 54.8065V53.6431H80.321V52.8254H82.7813V55.1726C82.502 55.4947 82.1544 55.7514 81.7636 55.9241C81.3727 56.0969 80.9482 56.1814 80.5206 56.1717C78.4044 56.1717 77.4926 54.7723 77.4926 53.2497C77.4926 51.5971 78.5524 50.1908 80.5206 50.1908C81.318 50.19 82.0835 50.5023 82.6505 51.0599L82.0759 51.6586Z" fill="#00A9CB"/>
<path d="M88.211 56.069H83.9443V50.3413H88.1732V51.2309H84.8665V52.7775H88.0734V53.6294H84.8974V55.1691H88.2282L88.211 56.069Z" fill="#00A9CB"/>
<path d="M92.8356 51.6073C92.6637 51.3991 92.4456 51.2333 92.1985 51.1229C91.9513 51.0125 91.6818 50.9604 91.4111 50.9709C90.6403 50.9709 90.0794 51.2891 90.0794 51.8366C90.0794 52.384 90.7229 52.5483 91.4764 52.6543C92.6636 52.8186 93.7887 53.147 93.7887 54.4301C93.7887 55.7132 92.6051 56.1991 91.4042 56.1991C90.3031 56.1991 89.4532 55.8569 88.9267 54.8989L89.6149 54.4404C89.8023 54.7419 90.0672 54.9881 90.3824 55.1535C90.6976 55.319 91.0516 55.3976 91.4076 55.3813C92.0958 55.3813 92.8666 55.1521 92.8666 54.4301C92.8666 53.8108 92.199 53.5953 91.3939 53.4892C90.248 53.3352 89.1642 53.0478 89.1642 51.8229C89.1642 50.598 90.3478 50.1771 91.3835 50.1771C92.2162 50.1771 93.0455 50.3721 93.5307 51.142L92.8356 51.6073Z" fill="#00A9CB"/>
<path d="M96.1354 51.1659H94.2429V50.3413H98.9466V51.1659H97.0645V56.069H96.1354V51.1659Z" fill="#00A9CB"/>
<path d="M103.286 54.8646H100.165L99.6245 56.069H98.6438L101.228 50.3413H102.233L104.813 56.069H103.836L103.286 54.8646ZM100.437 49.5065C100.595 49.048 100.922 48.7366 101.407 48.8427C101.606 48.894 101.779 49.0138 101.968 49.0822C102.157 49.1506 102.388 49.1541 102.477 48.8667L103.021 49.0719C103.013 49.1861 102.98 49.2972 102.924 49.397C102.868 49.4967 102.79 49.5826 102.696 49.6483C102.601 49.714 102.494 49.7579 102.38 49.7765C102.267 49.7952 102.15 49.7883 102.04 49.7563C101.85 49.6873 101.664 49.6085 101.483 49.5202C101.431 49.4985 101.375 49.4877 101.319 49.4885C101.263 49.4893 101.208 49.5016 101.156 49.5248C101.105 49.5479 101.06 49.5814 101.022 49.623C100.985 49.6646 100.956 49.7135 100.939 49.7665L100.437 49.5065ZM101.73 51.3062L100.512 54.0435H102.948L101.73 51.3062Z" fill="#00A9CB"/>
<path d="M110.928 53.2291C110.928 54.7757 109.982 56.1888 107.982 56.1888C105.983 56.1888 105.037 54.7415 105.037 53.236C105.018 52.8415 105.081 52.4474 105.222 52.0784C105.364 51.7093 105.58 51.3733 105.859 51.0915C106.137 50.8097 106.471 50.5882 106.839 50.4408C107.208 50.2935 107.603 50.2235 108 50.2353C109.964 50.2421 110.928 51.6826 110.928 53.2291ZM107.982 55.3471C109.414 55.3471 110.013 54.3412 110.013 53.2463C110.013 52.1514 109.407 51.0941 108 51.0701C106.665 51.0701 105.935 51.994 105.935 53.2463C105.966 54.259 106.558 55.3471 107.982 55.3471Z" fill="#00A9CB"/>
<path d="M114.069 56.069V50.3413H118.143V51.2343H114.992V52.9759H117.985V53.8279H114.992V56.0622L114.069 56.069Z" fill="#00A9CB"/>
<path d="M119.22 56.069V50.3413H120.132V56.069H119.22Z" fill="#00A9CB"/>
<path d="M125.555 54.4164V50.3413H126.477V56.069H125.789L122.52 52.0247V56.069H121.591V50.3413H122.3L125.555 54.4164Z" fill="#00A9CB"/>
<path d="M131.914 54.8646H128.796L128.253 56.069H127.276L129.856 50.3413H130.861L133.445 56.069H132.461L131.914 54.8646ZM130.359 51.3062L129.141 54.0434H131.577L130.359 51.3062Z" fill="#00A9CB"/>
<path d="M138.218 54.4164V50.3413H139.14V56.069H138.452L135.186 52.0247V56.069H134.257V50.3413H134.963L138.218 54.4164Z" fill="#00A9CB"/>
<path d="M145.433 55.3299C145.147 55.6071 144.808 55.825 144.437 55.9713C144.065 56.1175 143.668 56.1891 143.269 56.1819C141.177 56.1819 140.241 54.7517 140.231 53.2462C140.22 51.7407 141.211 50.2421 143.269 50.2421C143.66 50.2403 144.048 50.3163 144.41 50.4655C144.772 50.6148 145.1 50.8343 145.375 51.1112L144.759 51.7099C144.359 51.3277 143.824 51.1164 143.269 51.1214C142.985 51.1059 142.701 51.1504 142.435 51.2519C142.17 51.3534 141.929 51.5096 141.728 51.7103C141.528 51.911 141.372 52.1516 141.272 52.4163C141.171 52.681 141.128 52.9639 141.146 53.2462C141.146 54.2932 141.779 55.3334 143.269 55.3334C143.84 55.327 144.388 55.1043 144.8 54.7106L145.433 55.3299Z" fill="#00A9CB"/>
<path d="M150.622 56.069H146.369V50.3413H150.598V51.2309H147.291V52.7775H150.467V53.6294H147.291V55.1691H150.622V56.069Z" fill="#00A9CB"/>
<path d="M151.809 56.069V50.3413H152.721V56.069H151.809Z" fill="#00A9CB"/>
<path d="M159.138 56.069H158.061L156.307 54.105H155.092V56.0861H154.17V50.3413C155.064 50.3413 155.956 50.3413 156.85 50.3413C158.185 50.3413 158.884 51.248 158.884 52.2129C158.905 52.6534 158.755 53.0852 158.463 53.4179C158.172 53.7507 157.763 53.9589 157.322 53.999L159.042 55.9048L159.138 56.069ZM155.092 51.1762V53.2531H156.843C156.986 53.2691 157.13 53.2541 157.267 53.2092C157.403 53.1642 157.528 53.0904 157.632 52.9928C157.737 52.8951 157.819 52.7761 157.873 52.6438C157.927 52.5115 157.951 52.3691 157.944 52.2266C157.948 52.0842 157.923 51.9425 157.869 51.8105C157.815 51.6785 157.734 51.5591 157.631 51.46C157.528 51.3609 157.405 51.2842 157.271 51.2347C157.136 51.1852 156.993 51.1641 156.85 51.1727L155.092 51.1762Z" fill="#00A9CB"/>
<path d="M164.09 54.8646H160.972L160.429 56.069H159.451L162.032 50.3413H163.037L165.621 56.069H164.64L164.09 54.8646ZM162.535 51.3062L161.316 54.0434H163.753L162.535 51.3062Z" fill="#00A9CB"/>
<path d="M171.949 54.8646H168.831L168.288 56.069H167.307L169.891 50.3413H170.896L173.48 56.069H172.499L171.949 54.8646ZM170.394 51.3062L169.176 54.0434H171.612L170.394 51.3062Z" fill="#00A9CB"/>
<path d="M178.858 50.3413V53.6876C178.858 55.3744 177.74 56.2161 176.35 56.1682C175.066 56.134 173.972 55.3162 173.972 53.6876V50.3413H174.884V53.6876C174.884 54.7141 175.493 55.2923 176.35 55.3231C177.272 55.3744 177.946 54.7756 177.946 53.6876V50.3413H178.858Z" fill="#00A9CB"/>
<path d="M181.542 51.1659H179.65V50.3413H184.353V51.1659H182.471V56.069H181.542V51.1659Z" fill="#00A9CB"/>
<path d="M190.592 53.2292C190.592 54.7757 189.645 56.1888 187.646 56.1888C185.647 56.1888 184.701 54.7415 184.701 53.236C184.681 52.8417 184.744 52.4477 184.885 52.0786C185.026 51.7096 185.242 51.3736 185.52 51.0917C185.798 50.8098 186.132 50.5882 186.5 50.4408C186.868 50.2935 187.263 50.2235 187.66 50.2353C189.628 50.2421 190.592 51.6826 190.592 53.2292ZM187.646 55.3471C189.078 55.3471 189.676 54.3412 189.676 53.2463C189.676 52.1514 189.067 51.0941 187.66 51.0702C186.328 51.0702 185.613 51.994 185.613 53.2463C185.63 54.259 186.222 55.3471 187.646 55.3471Z" fill="#00A9CB"/>
<path d="M196.696 51.6826L194.741 54.389H194.542L192.608 51.6826V56.0758H191.689V50.3413H192.759L194.659 53.0238L196.551 50.3413H197.621V56.069H196.699L196.696 51.6826Z" fill="#00A9CB"/>
<path d="M203.055 54.8646H199.937L199.394 56.069H198.413L200.997 50.3413H202.002L204.586 56.069H203.605L203.055 54.8646ZM201.499 51.3062L200.281 54.0434H202.717L201.499 51.3062Z" fill="#00A9CB"/>
<path d="M206.172 51.1659H204.28V50.3413H208.987V51.1659H207.101V56.069H206.172V51.1659Z" fill="#00A9CB"/>
<path d="M209.85 56.069V50.3413H210.762V56.069H209.85Z" fill="#00A9CB"/>
<path d="M211.963 50.3413H216.168V50.7587L213.002 55.2068H216.168V56.0827H211.695V55.566L214.792 51.1967H211.942L211.963 50.3413Z" fill="#00A9CB"/>
<path d="M221.212 54.8646H218.095L217.551 56.069H216.571L219.172 50.3413H220.177L222.761 56.069H221.78L221.212 54.8646ZM219.657 51.3062L218.439 54.0434H220.892L219.657 51.3062Z" fill="#00A9CB"/>
<path d="M225.71 50.3413C227.678 50.3413 228.572 51.7407 228.596 53.1538C228.621 54.5669 227.726 56.069 225.71 56.069H223.542V50.3413H225.71ZM224.443 55.1828H225.71C227.117 55.1828 227.709 54.1563 227.685 53.1299C227.695 52.8707 227.651 52.6123 227.555 52.3711C227.459 52.1299 227.313 51.9115 227.127 51.7297C226.941 51.5479 226.719 51.4069 226.475 51.3157C226.231 51.2245 225.97 51.1851 225.71 51.2001H224.443V55.1828Z" fill="#00A9CB"/>
<path d="M233.472 54.8646H230.351L229.811 56.069H228.83L231.415 50.3413H232.419L235 56.069H234.023L233.472 54.8646ZM231.903 51.3062L230.685 54.0434H233.121L231.903 51.3062Z" fill="#00A9CB"/>
<path d="M99.9411 38.5643C96.9819 41.4726 93.3827 42.6291 89.4085 42.6291C79.0857 42.6291 75.084 36.1795 75.0461 29.0969C75.0083 22.3838 79.5468 15.2635 89.4085 15.2635C91.2968 15.2448 93.1695 15.6048 94.9148 16.322C96.66 17.0392 98.2419 18.0989 99.566 19.4378L94.993 23.9132C94.2635 23.1805 93.3931 22.6014 92.4336 22.2105C91.4741 21.8196 90.4453 21.6248 89.4085 21.6379C84.3469 21.6379 82.358 25.7437 82.3959 29.1311C82.4337 32.5184 84.2333 36.3642 89.4085 36.3642C91.7379 36.3062 93.9557 35.3591 95.6021 33.7194L99.9411 38.5643Z" fill="#143C68"/>
<path d="M115.353 42.5916C106.751 42.5916 100.767 37.6337 100.767 28.9053C100.767 20.3309 106.764 15.2191 115.353 15.2191C123.941 15.2191 129.935 20.2146 129.935 28.9053C129.935 37.5961 123.976 42.5916 115.353 42.5916ZM115.353 21.5285C111.114 21.5285 108.189 24.5839 108.189 28.9088C108.189 33.2336 111.152 36.2925 115.353 36.2925C119.702 36.2925 122.513 33.2336 122.513 28.9088C122.513 24.4368 119.702 21.5285 115.353 21.5285Z" fill="#143C68"/>
<path d="M149.958 23.0921C148.158 21.7509 146.094 21.3026 143.809 21.3026C142.01 21.3026 140.244 21.8638 140.244 23.2427C140.244 25.0321 142.01 25.2956 144.594 25.5522C149.807 26.1134 155.243 28.2005 155.243 34.2019C155.243 40.1315 149.621 42.6668 143.733 42.7045C139.009 42.7421 135.634 41.9209 131.997 38.1162L136.084 33.456C138.672 35.9572 141.559 36.402 143.771 36.402C146.207 36.402 147.9 35.5466 147.9 34.0924C147.9 32.7854 146.4 31.9676 143.513 31.6973C137.777 31.1773 132.829 29.7231 132.829 23.2358C132.829 17.7169 138.266 15.332 143.816 15.332C147.752 15.332 150.825 16.2251 153.636 18.4114L149.958 23.0921Z" fill="#143C68"/>
<path d="M158.767 41.9585V15.8589H166.151V41.9585H158.767Z" fill="#143C68"/>
<path d="M193.41 26.411L186.697 34.3148H185.386L178.824 26.4452V41.9585H171.474V15.8589H179.237L186.119 24.6968L193 15.8589H200.725V41.9585H193.41V26.411Z" fill="#143C68"/>
<path d="M219.203 42.5916C210.601 42.5916 204.62 37.6337 204.62 28.9053C204.62 20.3309 210.618 15.2191 219.203 15.2191C227.788 15.2191 233.789 20.2146 233.789 28.9053C233.789 37.5961 227.826 42.5916 219.203 42.5916ZM219.203 21.5285C214.967 21.5285 212.042 24.5839 212.042 28.9088C212.042 33.2336 215.005 36.2925 219.203 36.2925C223.552 36.2925 226.363 33.2336 226.363 28.9088C226.363 24.4368 223.552 21.5285 219.203 21.5285Z" fill="#143C68"/>
<path d="M46.5761 64.7666C50.1469 64.7666 53.0415 61.8882 53.0415 58.3375C53.0415 54.7869 50.1469 51.9084 46.5761 51.9084C43.0053 51.9084 40.1106 54.7869 40.1106 58.3375C40.1106 61.8882 43.0053 64.7666 46.5761 64.7666Z" fill="url(#paint0_linear_6_582)"/>
<path d="M27.5513 4.66014C28.6782 4.66014 29.5918 3.75173 29.5918 2.63116C29.5918 1.51058 28.6782 0.602173 27.5513 0.602173C26.4244 0.602173 25.5109 1.51058 25.5109 2.63116C25.5109 3.75173 26.4244 4.66014 27.5513 4.66014Z" fill="url(#paint1_linear_6_582)"/>
<path d="M26.7909 18.7604C27.8703 18.7604 28.7453 17.8903 28.7453 16.817C28.7453 15.7436 27.8703 14.8735 26.7909 14.8735C25.7115 14.8735 24.8364 15.7436 24.8364 16.817C24.8364 17.8903 25.7115 18.7604 26.7909 18.7604Z" fill="url(#paint2_linear_6_582)"/>
<path d="M22.6377 26.955C24.5381 26.955 26.0786 25.4232 26.0786 23.5335C26.0786 21.6438 24.5381 20.1119 22.6377 20.1119C20.7373 20.1119 19.1968 21.6438 19.1968 23.5335C19.1968 25.4232 20.7373 26.955 22.6377 26.955Z" fill="url(#paint3_linear_6_582)"/>
<path d="M16.4613 61.7933C20.4159 61.7933 23.6218 58.6054 23.6218 54.673C23.6218 50.7406 20.4159 47.5527 16.4613 47.5527C12.5066 47.5527 9.30076 50.7406 9.30076 54.673C9.30076 58.6054 12.5066 61.7933 16.4613 61.7933Z" fill="url(#paint4_linear_6_582)"/>
<path d="M38.7033 51.8605C40.7253 51.8605 42.3644 50.2306 42.3644 48.22C42.3644 46.2094 40.7253 44.5795 38.7033 44.5795C36.6813 44.5795 35.0422 46.2094 35.0422 48.22C35.0422 50.2306 36.6813 51.8605 38.7033 51.8605Z" fill="url(#paint5_linear_6_582)"/>
<path d="M56.9986 57.578C58.5417 57.578 59.7926 56.3341 59.7926 54.7997C59.7926 53.2653 58.5417 52.0214 56.9986 52.0214C55.4555 52.0214 54.2046 53.2653 54.2046 54.7997C54.2046 56.3341 55.4555 57.578 56.9986 57.578Z" fill="#00A9CB"/>
<path d="M31.2675 44.8942C32.3868 44.8942 33.2942 43.992 33.2942 42.8789C33.2942 41.7659 32.3868 40.8636 31.2675 40.8636C30.1482 40.8636 29.2408 41.7659 29.2408 42.8789C29.2408 43.992 30.1482 44.8942 31.2675 44.8942Z" fill="url(#paint6_linear_6_582)"/>
<path d="M2.6495 42.7181C4.06716 42.7181 5.21641 41.5753 5.21641 40.1656C5.21641 38.7559 4.06716 37.6132 2.6495 37.6132C1.23183 37.6132 0.0825815 38.7559 0.0825815 40.1656C0.0825815 41.5753 1.23183 42.7181 2.6495 42.7181Z" fill="url(#paint7_linear_6_582)"/>
<path d="M47.2505 50.2455C48.5123 50.2455 49.5353 49.2283 49.5353 47.9736C49.5353 46.7188 48.5123 45.7017 47.2505 45.7017C45.9887 45.7017 44.9657 46.7188 44.9657 47.9736C44.9657 49.2283 45.9887 50.2455 47.2505 50.2455Z" fill="url(#paint8_linear_6_582)"/>
<path d="M31.006 52.1138C32.3609 52.1138 33.4594 51.0215 33.4594 49.6742C33.4594 48.3268 32.3609 47.2346 31.006 47.2346C29.651 47.2346 28.5526 48.3268 28.5526 49.6742C28.5526 51.0215 29.651 52.1138 31.006 52.1138Z" fill="url(#paint9_linear_6_582)"/>
<path d="M31.4361 68C35.4706 68 38.7411 64.7478 38.7411 60.736C38.7411 56.7242 35.4706 53.472 31.4361 53.472C27.4016 53.472 24.1311 56.7242 24.1311 60.736C24.1311 64.7478 27.4016 68 31.4361 68Z" fill="url(#paint10_linear_6_582)"/>
<path d="M55.6635 51.6176C58.4038 51.6176 60.6253 49.4087 60.6253 46.6838C60.6253 43.9589 58.4038 41.7499 55.6635 41.7499C52.9232 41.7499 50.7017 43.9589 50.7017 46.6838C50.7017 49.4087 52.9232 51.6176 55.6635 51.6176Z" fill="url(#paint11_linear_6_582)"/>
<path d="M14.9129 45.3528C17.9116 45.3528 20.3426 42.9354 20.3426 39.9535C20.3426 36.9716 17.9116 34.5543 14.9129 34.5543C11.9141 34.5543 9.48313 36.9716 9.48313 39.9535C9.48313 42.9354 11.9141 45.3528 14.9129 45.3528Z" fill="url(#paint12_linear_6_582)"/>
<path d="M13.8428 14.1241C15.7488 14.1241 17.294 12.5877 17.294 10.6923C17.294 8.79698 15.7488 7.2605 13.8428 7.2605C11.9367 7.2605 10.3915 8.79698 10.3915 10.6923C10.3915 12.5877 11.9367 14.1241 13.8428 14.1241Z" fill="url(#paint13_linear_6_582)"/>
<path d="M5.14071 27.0097C7.195 27.0097 8.86033 25.3537 8.86033 23.311C8.86033 21.2683 7.195 19.6123 5.14071 19.6123C3.08642 19.6123 1.42109 21.2683 1.42109 23.311C1.42109 25.3537 3.08642 27.0097 5.14071 27.0097Z" fill="url(#paint14_linear_6_582)"/>
<path d="M27.104 13.0361C28.6604 13.0361 29.9221 11.7815 29.9221 10.2339C29.9221 8.68625 28.6604 7.43164 27.104 7.43164C25.5476 7.43164 24.2859 8.68625 24.2859 10.2339C24.2859 11.7815 25.5476 13.0361 27.104 13.0361Z" fill="url(#paint15_linear_6_582)"/>
<path d="M42.5777 4.81755C43.5602 4.81755 44.3567 4.02557 44.3567 3.04861C44.3567 2.07165 43.5602 1.27966 42.5777 1.27966C41.5953 1.27966 40.7988 2.07165 40.7988 3.04861C40.7988 4.02557 41.5953 4.81755 42.5777 4.81755Z" fill="#124372"/>
<path d="M38.4934 8.44096C39.7989 8.44096 40.8573 7.38856 40.8573 6.09035C40.8573 4.79215 39.7989 3.73975 38.4934 3.73975C37.1878 3.73975 36.1295 4.79215 36.1295 6.09035C36.1295 7.38856 37.1878 8.44096 38.4934 8.44096Z" fill="url(#paint16_linear_6_582)"/>
<path d="M23.1126 35.9195C24.9407 35.9195 26.4227 34.4458 26.4227 32.628C26.4227 30.8101 24.9407 29.3364 23.1126 29.3364C21.2844 29.3364 19.8024 30.8101 19.8024 32.628C19.8024 34.4458 21.2844 35.9195 23.1126 35.9195Z" fill="url(#paint17_linear_6_582)"/>
<path d="M6.27965 50.8887C8.33774 50.8887 10.0061 49.2297 10.0061 47.1832C10.0061 45.1367 8.33774 43.4777 6.27965 43.4777C4.22156 43.4777 2.55315 45.1367 2.55315 47.1832C2.55315 49.2297 4.22156 50.8887 6.27965 50.8887Z" fill="url(#paint18_linear_6_582)"/>
<path d="M5.36093 37.2059C7.75728 37.2059 9.69991 35.2742 9.69991 32.8914C9.69991 30.5085 7.75728 28.5768 5.36093 28.5768C2.96458 28.5768 1.02195 30.5085 1.02195 32.8914C1.02195 35.2742 2.96458 37.2059 5.36093 37.2059Z" fill="url(#paint19_linear_6_582)"/>
<path d="M14.2109 32.6827C16.4382 32.6827 18.2437 30.8874 18.2437 28.6727C18.2437 26.458 16.4382 24.6626 14.2109 24.6626C11.9837 24.6626 10.1782 26.458 10.1782 28.6727C10.1782 30.8874 11.9837 32.6827 14.2109 32.6827Z" fill="url(#paint20_linear_6_582)"/>
<path d="M14.0458 23.0716C15.9024 23.0716 17.4075 21.5749 17.4075 19.7287C17.4075 17.8825 15.9024 16.3859 14.0458 16.3859C12.1891 16.3859 10.684 17.8825 10.684 19.7287C10.684 21.5749 12.1891 23.0716 14.0458 23.0716Z" fill="url(#paint21_linear_6_582)"/>
<path d="M20.5181 17.4533C21.9282 17.4533 23.0713 16.3167 23.0713 14.9145C23.0713 13.5124 21.9282 12.3757 20.5181 12.3757C19.108 12.3757 17.965 13.5124 17.965 14.9145C17.965 16.3167 19.108 17.4533 20.5181 17.4533Z" fill="url(#paint22_linear_6_582)"/>
<path d="M38.7102 2.07691C39.1644 2.07691 39.5326 1.71079 39.5326 1.25916C39.5326 0.807526 39.1644 0.441406 38.7102 0.441406C38.256 0.441406 37.8878 0.807526 37.8878 1.25916C37.8878 1.71079 38.256 2.07691 38.7102 2.07691Z" fill="url(#paint23_linear_6_582)"/>
<path d="M36.7007 10.8019C37.1549 10.8019 37.5231 10.4358 37.5231 9.98413C37.5231 9.5325 37.1549 9.16638 36.7007 9.16638C36.2465 9.16638 35.8783 9.5325 35.8783 9.98413C35.8783 10.4358 36.2465 10.8019 36.7007 10.8019Z" fill="url(#paint24_linear_6_582)"/>
<path d="M0.822376 28.8506C1.27656 28.8506 1.64475 28.4845 1.64475 28.0328C1.64475 27.5812 1.27656 27.2151 0.822376 27.2151C0.36819 27.2151 0 27.5812 0 28.0328C0 28.4845 0.36819 28.8506 0.822376 28.8506Z" fill="url(#paint25_linear_6_582)"/>
<path d="M51.6411 6.95256C52.1067 6.95256 52.4841 6.57725 52.4841 6.11428C52.4841 5.65131 52.1067 5.276 51.6411 5.276C51.1755 5.276 50.7981 5.65131 50.7981 6.11428C50.7981 6.57725 51.1755 6.95256 51.6411 6.95256Z" fill="#124372"/>
<path d="M33.9652 4.50277C35.2156 4.50277 36.2293 3.49479 36.2293 2.25138C36.2293 1.00798 35.2156 0 33.9652 0C32.7147 0 31.701 1.00798 31.701 2.25138C31.701 3.49479 32.7147 4.50277 33.9652 4.50277Z" fill="url(#paint26_linear_6_582)"/>
<path d="M20.6798 8.26303C22.1925 8.26303 23.4188 7.04366 23.4188 5.53948C23.4188 4.0353 22.1925 2.81592 20.6798 2.81592C19.1671 2.81592 17.9409 4.0353 17.9409 5.53948C17.9409 7.04366 19.1671 8.26303 20.6798 8.26303Z" fill="url(#paint27_linear_6_582)"/>
<path d="M7.38762 18.4045C8.67226 18.4045 9.71367 17.369 9.71367 16.0915C9.71367 14.8141 8.67226 13.7786 7.38762 13.7786C6.10298 13.7786 5.06157 14.8141 5.06157 16.0915C5.06157 17.369 6.10298 18.4045 7.38762 18.4045Z" fill="url(#paint28_linear_6_582)"/>
<path d="M32.3823 8.86185C33.2641 8.86185 33.9789 8.15106 33.9789 7.27425C33.9789 6.39744 33.2641 5.68665 32.3823 5.68665C31.5006 5.68665 30.7858 6.39744 30.7858 7.27425C30.7858 8.15106 31.5006 8.86185 32.3823 8.86185Z" fill="url(#paint29_linear_6_582)"/>
<path d="M32.6198 12.9677C33.283 12.9677 33.8206 12.4331 33.8206 11.7736C33.8206 11.1141 33.283 10.5795 32.6198 10.5795C31.9565 10.5795 31.4189 11.1141 31.4189 11.7736C31.4189 12.4331 31.9565 12.9677 32.6198 12.9677Z" fill="url(#paint30_linear_6_582)"/>
<path d="M49.5112 10.34C50.258 10.34 50.8635 9.73795 50.8635 8.99531C50.8635 8.25266 50.258 7.65063 49.5112 7.65063C48.7643 7.65063 48.1589 8.25266 48.1589 8.99531C48.1589 9.73795 48.7643 10.34 49.5112 10.34Z" fill="#124372"/>
<path d="M24.5509 48.1926C26.2118 48.1926 27.5582 46.8537 27.5582 45.2021C27.5582 43.5505 26.2118 42.2117 24.5509 42.2117C22.8899 42.2117 21.5435 43.5505 21.5435 45.2021C21.5435 46.8537 22.8899 48.1926 24.5509 48.1926Z" fill="url(#paint31_linear_6_582)"/>
<path d="M47.6324 5.77898C48.3565 5.77898 48.9434 5.19533 48.9434 4.47537C48.9434 3.7554 48.3565 3.17175 47.6324 3.17175C46.9084 3.17175 46.3214 3.7554 46.3214 4.47537C46.3214 5.19533 46.9084 5.77898 47.6324 5.77898Z" fill="#124372"/>
<path d="M54.177 10.2237C54.9942 10.2237 55.6566 9.56496 55.6566 8.7524C55.6566 7.93984 54.9942 7.28113 54.177 7.28113C53.3599 7.28113 52.6974 7.93984 52.6974 8.7524C52.6974 9.56496 53.3599 10.2237 54.177 10.2237Z" fill="#124372"/>
<path d="M43.9644 8.1878C44.5611 8.1878 45.0449 7.70679 45.0449 7.11343C45.0449 6.52007 44.5611 6.03906 43.9644 6.03906C43.3677 6.03906 42.884 6.52007 42.884 7.11343C42.884 7.70679 43.3677 8.1878 43.9644 8.1878Z" fill="#124372"/>
<path d="M57.2911 11.7496C57.8061 11.7496 58.2235 11.3345 58.2235 10.8224C58.2235 10.3103 57.8061 9.89514 57.2911 9.89514C56.7761 9.89514 56.3586 10.3103 56.3586 10.8224C56.3586 11.3345 56.7761 11.7496 57.2911 11.7496Z" fill="#124372"/>
<path d="M27.369 40.0595C28.3609 40.0595 29.1651 39.2599 29.1651 38.2735C29.1651 37.2871 28.3609 36.4874 27.369 36.4874C26.377 36.4874 25.5728 37.2871 25.5728 38.2735C25.5728 39.2599 26.377 40.0595 27.369 40.0595Z" fill="url(#paint32_linear_6_582)"/>
<path d="M60.4808 14.3431C60.7639 14.3431 60.9935 14.1149 60.9935 13.8333C60.9935 13.5517 60.7639 13.3235 60.4808 13.3235C60.1976 13.3235 59.9681 13.5517 59.9681 13.8333C59.9681 14.1149 60.1976 14.3431 60.4808 14.3431Z" fill="#124372"/>
<path d="M54.6416 12.9027C54.9247 12.9027 55.1542 12.6744 55.1542 12.3929C55.1542 12.1113 54.9247 11.8831 54.6416 11.8831C54.3584 11.8831 54.1289 12.1113 54.1289 12.3929C54.1289 12.6744 54.3584 12.9027 54.6416 12.9027Z" fill="#124372"/>
<path d="M41.7175 9.55979C42.0007 9.55979 42.2302 9.33153 42.2302 9.04997C42.2302 8.76841 42.0007 8.54016 41.7175 8.54016C41.4344 8.54016 41.2048 8.76841 41.2048 9.04997C41.2048 9.33153 41.4344 9.55979 41.7175 9.55979Z" fill="#124372"/>
<path d="M46.7653 7.96201C47.0485 7.96201 47.278 7.73376 47.278 7.45219C47.278 7.17063 47.0485 6.94238 46.7653 6.94238C46.4822 6.94238 46.2526 7.17063 46.2526 7.45219C46.2526 7.73376 46.4822 7.96201 46.7653 7.96201Z" fill="#124372"/>
</g>
<defs>
<linearGradient id="paint0_linear_6_582" x1="40.8401" y1="38.3762" x2="33.0456" y2="10.9395" gradientUnits="userSpaceOnUse">
<stop stop-color="#00A9CB"/>
<stop offset="0.26" stop-color="#0493B8"/>
<stop offset="0.8" stop-color="#0E5A86"/>
<stop offset="1" stop-color="#124372"/>
</linearGradient>
<linearGradient id="paint1_linear_6_582" x1="40.0074" y1="45.9857" x2="29.9042" y2="10.4296" gradientUnits="userSpaceOnUse">
<stop stop-color="#00A9CB"/>
<stop offset="0.26" stop-color="#0493B8"/>
<stop offset="0.8" stop-color="#0E5A86"/>
<stop offset="1" stop-color="#124372"/>
</linearGradient>
<linearGradient id="paint2_linear_6_582" x1="32.52" y1="36.7578" x2="25.0864" y2="10.595" gradientUnits="userSpaceOnUse">
<stop stop-color="#00A9CB"/>
<stop offset="0.26" stop-color="#0493B8"/>
<stop offset="0.8" stop-color="#0E5A86"/>
<stop offset="1" stop-color="#124372"/>
</linearGradient>
<linearGradient id="paint3_linear_6_582" x1="27.9126" y1="41.8936" x2="19.7742" y2="13.2412" gradientUnits="userSpaceOnUse">
<stop stop-color="#00A9CB"/>
<stop offset="0.26" stop-color="#0493B8"/>
<stop offset="0.8" stop-color="#0E5A86"/>
<stop offset="1" stop-color="#124372"/>
</linearGradient>
<linearGradient id="paint4_linear_6_582" x1="14.0527" y1="46.297" x2="5.91423" y2="17.6446" gradientUnits="userSpaceOnUse">
<stop stop-color="#00A9CB"/>
<stop offset="0.26" stop-color="#0493B8"/>
<stop offset="0.8" stop-color="#0E5A86"/>
<stop offset="1" stop-color="#124372"/>
</linearGradient>
<linearGradient id="paint5_linear_6_582" x1="36.0125" y1="38.8552" x2="27.8707" y2="10.2028" gradientUnits="userSpaceOnUse">
<stop stop-color="#00A9CB"/>
<stop offset="0.26" stop-color="#0493B8"/>
<stop offset="0.8" stop-color="#0E5A86"/>
<stop offset="1" stop-color="#124372"/>
</linearGradient>
<linearGradient id="paint6_linear_6_582" x1="30.655" y1="40.7473" x2="21.9752" y2="10.1943" gradientUnits="userSpaceOnUse">
<stop stop-color="#00A9CB"/>
<stop offset="0.26" stop-color="#0493B8"/>
<stop offset="0.8" stop-color="#0E5A86"/>
<stop offset="1" stop-color="#124372"/>
</linearGradient>
<linearGradient id="paint7_linear_6_582" x1="4.99275" y1="48.3124" x2="-3.14908" y2="19.6599" gradientUnits="userSpaceOnUse">
<stop stop-color="#00A9CB"/>
<stop offset="0.26" stop-color="#0493B8"/>
<stop offset="0.8" stop-color="#0E5A86"/>
<stop offset="1" stop-color="#124372"/>
</linearGradient>
<linearGradient id="paint8_linear_6_582" x1="44.2328" y1="37.4626" x2="36.8572" y2="11.5086" gradientUnits="userSpaceOnUse">
<stop stop-color="#00A9CB"/>
<stop offset="0.26" stop-color="#0493B8"/>
<stop offset="0.8" stop-color="#0E5A86"/>
<stop offset="1" stop-color="#124372"/>
</linearGradient>
<linearGradient id="paint9_linear_6_582" x1="28.6455" y1="41.459" x2="20.725" y2="13.5771" gradientUnits="userSpaceOnUse">
<stop stop-color="#00A9CB"/>
<stop offset="0.26" stop-color="#0493B8"/>
<stop offset="0.8" stop-color="#0E5A86"/>
<stop offset="1" stop-color="#124372"/>
</linearGradient>
<linearGradient id="paint10_linear_6_582" x1="26.5053" y1="43.5701" x2="18.9049" y2="16.8251" gradientUnits="userSpaceOnUse">
<stop stop-color="#00A9CB"/>
<stop offset="0.26" stop-color="#0493B8"/>
<stop offset="0.8" stop-color="#0E5A86"/>
<stop offset="1" stop-color="#124372"/>
</linearGradient>
<linearGradient id="paint11_linear_6_582" x1="52.5116" y1="35.7108" x2="44.9078" y2="8.9453" gradientUnits="userSpaceOnUse">
<stop stop-color="#00A9CB"/>
<stop offset="0.26" stop-color="#0493B8"/>
<stop offset="0.8" stop-color="#0E5A86"/>
<stop offset="1" stop-color="#124372"/>
</linearGradient>
<linearGradient id="paint12_linear_6_582" x1="16.3581" y1="44.9866" x2="8.21964" y2="16.3342" gradientUnits="userSpaceOnUse">
<stop stop-color="#00A9CB"/>
<stop offset="0.26" stop-color="#0493B8"/>
<stop offset="0.8" stop-color="#0E5A86"/>
<stop offset="1" stop-color="#124372"/>
</linearGradient>
<linearGradient id="paint13_linear_6_582" x1="23.8248" y1="45.4416" x2="14.8249" y2="13.762" gradientUnits="userSpaceOnUse">
<stop stop-color="#00A9CB"/>
<stop offset="0.26" stop-color="#0493B8"/>
<stop offset="0.8" stop-color="#0E5A86"/>
<stop offset="1" stop-color="#124372"/>
</linearGradient>
<linearGradient id="paint14_linear_6_582" x1="11.4617" y1="45.3048" x2="3.31982" y2="16.6524" gradientUnits="userSpaceOnUse">
<stop stop-color="#00A9CB"/>
<stop offset="0.26" stop-color="#0493B8"/>
<stop offset="0.8" stop-color="#0E5A86"/>
<stop offset="1" stop-color="#124372"/>
</linearGradient>
<linearGradient id="paint15_linear_6_582" x1="35.4585" y1="39.3137" x2="27.3167" y2="10.6613" gradientUnits="userSpaceOnUse">
<stop stop-color="#00A9CB"/>
<stop offset="0.26" stop-color="#0493B8"/>
<stop offset="0.8" stop-color="#0E5A86"/>
<stop offset="1" stop-color="#124372"/>
</linearGradient>
<linearGradient id="paint16_linear_6_582" x1="47.0888" y1="36.0084" x2="38.9503" y2="7.35946" gradientUnits="userSpaceOnUse">
<stop stop-color="#00A9CB"/>
<stop offset="0.26" stop-color="#0493B8"/>
<stop offset="0.8" stop-color="#0E5A86"/>
<stop offset="1" stop-color="#124372"/>
</linearGradient>
<linearGradient id="paint17_linear_6_582" x1="25.7965" y1="41.9688" x2="17.6546" y2="13.3198" gradientUnits="userSpaceOnUse">
<stop stop-color="#00A9CB"/>
<stop offset="0.26" stop-color="#0493B8"/>
<stop offset="0.8" stop-color="#0E5A86"/>
<stop offset="1" stop-color="#124372"/>
</linearGradient>
<linearGradient id="paint18_linear_6_582" x1="6.45858" y1="47.8094" x2="-0.494839" y2="23.3416" gradientUnits="userSpaceOnUse">
<stop stop-color="#00A9CB"/>
<stop offset="0.26" stop-color="#0493B8"/>
<stop offset="0.8" stop-color="#0E5A86"/>
<stop offset="1" stop-color="#124372"/>
</linearGradient>
<linearGradient id="paint19_linear_6_582" x1="9.33861" y1="46.735" x2="1.20019" y2="18.0826" gradientUnits="userSpaceOnUse">
<stop stop-color="#00A9CB"/>
<stop offset="0.26" stop-color="#0493B8"/>
<stop offset="0.8" stop-color="#0E5A86"/>
<stop offset="1" stop-color="#124372"/>
</linearGradient>
<linearGradient id="paint20_linear_6_582" x1="18.6428" y1="44.0902" x2="10.5044" y2="15.4412" gradientUnits="userSpaceOnUse">
<stop stop-color="#00A9CB"/>
<stop offset="0.26" stop-color="#0493B8"/>
<stop offset="0.8" stop-color="#0E5A86"/>
<stop offset="1" stop-color="#124372"/>
</linearGradient>
<linearGradient id="paint21_linear_6_582" x1="20.7177" y1="42.9611" x2="12.8653" y2="15.3189" gradientUnits="userSpaceOnUse">
<stop stop-color="#00A9CB"/>
<stop offset="0.26" stop-color="#0493B8"/>
<stop offset="0.8" stop-color="#0E5A86"/>
<stop offset="1" stop-color="#124372"/>
</linearGradient>
<linearGradient id="paint22_linear_6_582" x1="28.1294" y1="41.3974" x2="19.9876" y2="12.745" gradientUnits="userSpaceOnUse">
<stop stop-color="#00A9CB"/>
<stop offset="0.26" stop-color="#0493B8"/>
<stop offset="0.8" stop-color="#0E5A86"/>
<stop offset="1" stop-color="#124372"/>
</linearGradient>
<linearGradient id="paint23_linear_6_582" x1="48.6647" y1="35.9058" x2="40.5263" y2="7.25686" gradientUnits="userSpaceOnUse">
<stop stop-color="#00A9CB"/>
<stop offset="0.26" stop-color="#0493B8"/>
<stop offset="0.8" stop-color="#0E5A86"/>
<stop offset="1" stop-color="#124372"/>
</linearGradient>
<linearGradient id="paint24_linear_6_582" x1="43.9748" y1="35.2968" x2="35.8364" y2="6.64782" gradientUnits="userSpaceOnUse">
<stop stop-color="#00A9CB"/>
<stop offset="0.26" stop-color="#0493B8"/>
<stop offset="0.8" stop-color="#0E5A86"/>
<stop offset="1" stop-color="#124372"/>
</linearGradient>
<linearGradient id="paint25_linear_6_582" x1="6.53084" y1="47.9052" x2="-1.60758" y2="19.2528" gradientUnits="userSpaceOnUse">
<stop stop-color="#00A9CB"/>
<stop offset="0.26" stop-color="#0493B8"/>
<stop offset="0.8" stop-color="#0E5A86"/>
<stop offset="1" stop-color="#124372"/>
</linearGradient>
<linearGradient id="paint26_linear_6_582" x1="43.9025" y1="36.8399" x2="35.7641" y2="8.18749" gradientUnits="userSpaceOnUse">
<stop stop-color="#00A9CB"/>
<stop offset="0.26" stop-color="#0493B8"/>
<stop offset="0.8" stop-color="#0E5A86"/>
<stop offset="1" stop-color="#124372"/>
</linearGradient>
<linearGradient id="paint27_linear_6_582" x1="30.5862" y1="40.0185" x2="22.4444" y2="11.3695" gradientUnits="userSpaceOnUse">
<stop stop-color="#00A9CB"/>
<stop offset="0.26" stop-color="#0493B8"/>
<stop offset="0.8" stop-color="#0E5A86"/>
<stop offset="1" stop-color="#124372"/>
</linearGradient>
<linearGradient id="paint28_linear_6_582" x1="15.7387" y1="45.1645" x2="7.60027" y2="16.5121" gradientUnits="userSpaceOnUse">
<stop stop-color="#00A9CB"/>
<stop offset="0.26" stop-color="#0493B8"/>
<stop offset="0.8" stop-color="#0E5A86"/>
<stop offset="1" stop-color="#124372"/>
</linearGradient>
<linearGradient id="paint29_linear_6_582" x1="40.9846" y1="37.2163" x2="32.8462" y2="8.56388" gradientUnits="userSpaceOnUse">
<stop stop-color="#00A9CB"/>
<stop offset="0.26" stop-color="#0493B8"/>
<stop offset="0.8" stop-color="#0E5A86"/>
<stop offset="1" stop-color="#124372"/>
</linearGradient>
<linearGradient id="paint30_linear_6_582" x1="39.9489" y1="37.2813" x2="31.8071" y2="8.62887" gradientUnits="userSpaceOnUse">
<stop stop-color="#00A9CB"/>
<stop offset="0.26" stop-color="#0493B8"/>
<stop offset="0.8" stop-color="#0E5A86"/>
<stop offset="1" stop-color="#124372"/>
</linearGradient>
<linearGradient id="paint31_linear_6_582" x1="23.7835" y1="42.5333" x2="15.6451" y2="13.8843" gradientUnits="userSpaceOnUse">
<stop stop-color="#00A9CB"/>
<stop offset="0.26" stop-color="#0493B8"/>
<stop offset="0.8" stop-color="#0E5A86"/>
<stop offset="1" stop-color="#124372"/>
</linearGradient>
<linearGradient id="paint32_linear_6_582" x1="27.9023" y1="40.128" x2="19.7639" y2="11.4756" gradientUnits="userSpaceOnUse">
<stop stop-color="#00A9CB"/>
<stop offset="0.26" stop-color="#0493B8"/>
<stop offset="0.8" stop-color="#0E5A86"/>
<stop offset="1" stop-color="#124372"/>
</linearGradient>
<clipPath id="clip0_6_582">
<rect width="235" height="68" fill="white"/>
</clipPath>
</defs>
</svg>
