<svg width="256" height="73" viewBox="0 0 256 73" fill="none" xmlns="http://www.w3.org/2000/svg">
<path d="M89.4103 54.8079C88.9499 54.3925 88.3453 54.1593 87.7161 54.1545C86.2467 54.1545 85.3921 55.2254 85.4033 56.5068C85.4033 57.6176 86.0855 58.6849 87.7161 58.6849C88.2785 58.6978 88.8255 58.5061 89.2492 58.1476V56.9134H87.4987V56.0458H90.1788V58.5361C89.8745 58.8778 89.4959 59.1501 89.0701 59.3334C88.6443 59.5167 88.1819 59.6064 87.7161 59.5961C85.4108 59.5961 84.4175 58.1113 84.4175 56.4959C84.4175 54.7426 85.572 53.2506 87.7161 53.2506C88.5847 53.2497 89.4186 53.5811 90.0363 54.1726L89.4103 54.8079Z" fill="white"/>
<path d="M96.0937 59.4872H91.4457V53.4103H96.0525V54.3541H92.4502V55.995H95.9437V56.8989H92.484V58.5324H96.1124L96.0937 59.4872Z" fill="white"/>
<path d="M101.131 54.7534C100.944 54.5325 100.707 54.3566 100.437 54.2394C100.168 54.1223 99.8746 54.0671 99.5796 54.0782C98.74 54.0782 98.129 54.4158 98.129 54.9967C98.129 55.5775 98.83 55.7517 99.6508 55.8643C100.944 56.0385 102.17 56.387 102.17 57.7483C102.17 59.1096 100.88 59.6251 99.5721 59.6251C98.3726 59.6251 97.4468 59.2621 96.8733 58.2456L97.623 57.7592C97.827 58.0791 98.1157 58.3403 98.4591 58.5158C98.8024 58.6914 99.188 58.7748 99.5759 58.7575C100.326 58.7575 101.165 58.5143 101.165 57.7483C101.165 57.0913 100.438 56.8626 99.5609 56.75C98.3127 56.5867 97.1319 56.2817 97.1319 54.9821C97.1319 53.6825 98.4214 53.236 99.5496 53.236C100.457 53.236 101.36 53.443 101.889 54.2597L101.131 54.7534Z" fill="white"/>
<path d="M104.726 54.2852H102.665V53.4103H107.789V54.2852H105.738V59.4872H104.726V54.2852Z" fill="white"/>
<path d="M112.515 58.2093H109.116L108.527 59.4871H107.459L110.274 53.4103H111.368L114.18 59.4871H113.115L112.515 58.2093ZM109.412 52.5245C109.584 52.0381 109.94 51.7077 110.469 51.8203C110.686 51.8747 110.874 52.0018 111.08 52.0744C111.286 52.147 111.537 52.1506 111.635 51.8457L112.227 52.0635C112.219 52.1846 112.183 52.3025 112.122 52.4083C112.06 52.5142 111.975 52.6053 111.873 52.675C111.77 52.7447 111.653 52.7912 111.529 52.811C111.405 52.8309 111.279 52.8235 111.159 52.7895C110.952 52.7164 110.749 52.6328 110.551 52.539C110.495 52.516 110.434 52.5046 110.373 52.5054C110.312 52.5063 110.252 52.5194 110.196 52.5439C110.14 52.5685 110.091 52.604 110.05 52.6481C110.009 52.6923 109.978 52.7441 109.959 52.8004L109.412 52.5245ZM110.821 54.434L109.494 57.3381H112.148L110.821 54.434Z" fill="white"/>
<path d="M120.841 56.4742C120.841 58.115 119.81 59.6142 117.632 59.6142C115.454 59.6142 114.423 58.0787 114.423 56.4814C114.402 56.0629 114.471 55.6448 114.625 55.2532C114.779 54.8617 115.015 54.5052 115.318 54.2062C115.621 53.9072 115.985 53.6722 116.386 53.5159C116.788 53.3595 117.218 53.2853 117.651 53.2978C119.791 53.305 120.841 54.8333 120.841 56.4742ZM117.632 58.7212C119.191 58.7212 119.844 57.654 119.844 56.4923C119.844 55.3307 119.184 54.2089 117.651 54.1835C116.196 54.1835 115.402 55.1637 115.402 56.4923C115.435 57.5668 116.08 58.7212 117.632 58.7212Z" fill="white"/>
<path d="M124.263 59.4872V53.4103H128.701V54.3578H125.267V56.2055H128.528V57.1094H125.267V59.4799L124.263 59.4872Z" fill="white"/>
<path d="M129.874 59.4872V53.4103H130.867V59.4872H129.874Z" fill="white"/>
<path d="M136.775 57.7338V53.4103H137.779V59.4872H137.03L133.469 55.1963V59.4872H132.457V53.4103H133.229L136.775 57.7338Z" fill="white"/>
<path d="M143.702 58.2094H140.306L139.714 59.4872H138.649L141.46 53.4103H142.555L145.37 59.4872H144.298L143.702 58.2094ZM142.008 54.434L140.681 57.3381H143.335L142.008 54.434Z" fill="white"/>
<path d="M150.569 57.7338V53.4103H151.574V59.4872H150.824L147.267 55.1963V59.4872H146.255V53.4103H147.023L150.569 57.7338Z" fill="white"/>
<path d="M158.429 58.703C158.118 58.9971 157.749 59.2283 157.344 59.3835C156.939 59.5386 156.507 59.6146 156.072 59.6069C153.793 59.6069 152.773 58.0895 152.762 56.4923C152.751 54.895 153.83 53.305 156.072 53.305C156.498 53.3032 156.921 53.3837 157.315 53.5421C157.709 53.7004 158.066 53.9333 158.366 54.2271L157.695 54.8623C157.259 54.4568 156.676 54.2327 156.072 54.238C155.762 54.2215 155.453 54.2687 155.163 54.3764C154.874 54.484 154.612 54.6498 154.393 54.8627C154.175 55.0756 154.005 55.3309 153.896 55.6118C153.787 55.8926 153.74 56.1927 153.759 56.4923C153.759 57.6031 154.449 58.7067 156.072 58.7067C156.694 58.6999 157.291 58.4636 157.74 58.046L158.429 58.703Z" fill="white"/>
<path d="M164.082 59.4872H159.449V53.4103H164.056V54.3541H160.454V55.995H163.913V56.8989H160.454V58.5324H164.082V59.4872Z" fill="white"/>
<path d="M165.375 59.4872V53.4103H166.369V59.4872H165.375Z" fill="white"/>
<path d="M173.359 59.4872H172.186L170.274 57.4035H168.951V59.5053H167.947V53.4103C168.921 53.4103 169.892 53.4103 170.867 53.4103C172.321 53.4103 173.082 54.3723 173.082 55.396C173.105 55.8634 172.941 56.3214 172.624 56.6745C172.307 57.0276 171.861 57.2484 171.38 57.2909L173.254 59.3129L173.359 59.4872ZM168.951 54.2961V56.4996H170.859C171.014 56.5166 171.172 56.5007 171.32 56.453C171.469 56.4053 171.604 56.327 171.719 56.2234C171.833 56.1198 171.922 55.9935 171.981 55.8532C172.04 55.7128 172.066 55.5618 172.059 55.4105C172.063 55.2594 172.035 55.1091 171.976 54.969C171.917 54.829 171.829 54.7024 171.717 54.5972C171.605 54.492 171.471 54.4106 171.325 54.3582C171.178 54.3057 171.022 54.2833 170.867 54.2924L168.951 54.2961Z" fill="white"/>
<path d="M178.753 58.2094H175.357L174.765 59.4872H173.7L176.512 53.4103H177.606L180.421 59.4872H179.353L178.753 58.2094ZM177.059 54.434L175.732 57.3381H178.386L177.059 54.434Z" fill="white"/>
<path d="M187.315 58.2094H183.919L183.326 59.4872H182.258L185.073 53.4103H186.168L188.983 59.4872H187.914L187.315 58.2094ZM185.62 54.434L184.293 57.3381H186.947L185.62 54.434Z" fill="white"/>
<path d="M194.841 53.4103V56.9606C194.841 58.7502 193.623 59.6433 192.109 59.5924C190.71 59.5561 189.518 58.6885 189.518 56.9606V53.4103H190.512V56.9606C190.512 58.0496 191.175 58.6631 192.109 58.6958C193.113 58.7502 193.848 58.115 193.848 56.9606V53.4103H194.841Z" fill="white"/>
<path d="M197.765 54.2852H195.703V53.4103H200.827V54.2852H198.777V59.4872H197.765V54.2852Z" fill="white"/>
<path d="M207.623 56.4741C207.623 58.115 206.593 59.6142 204.415 59.6142C202.237 59.6142 201.206 58.0787 201.206 56.4814C201.185 56.0631 201.253 55.645 201.407 55.2535C201.56 54.8619 201.796 54.5054 202.099 54.2064C202.401 53.9073 202.765 53.6722 203.166 53.5158C203.567 53.3595 203.997 53.2852 204.43 53.2978C206.574 53.305 207.623 54.8333 207.623 56.4741ZM204.415 58.7212C205.974 58.7212 206.626 57.6539 206.626 56.4923C206.626 55.3306 205.963 54.2089 204.43 54.1835C202.979 54.1835 202.199 55.1637 202.199 56.4923C202.218 57.5668 202.863 58.7212 204.415 58.7212Z" fill="white"/>
<path d="M214.273 54.8333L212.144 57.7048H211.926L209.82 54.8333V59.4944H208.819V53.4103H209.985L212.054 56.2563L214.116 53.4103H215.281V59.4872H214.277L214.273 54.8333Z" fill="white"/>
<path d="M221.2 58.2094H217.804L217.212 59.4872H216.143L218.958 53.4103H220.053L222.868 59.4872H221.8L221.2 58.2094ZM219.506 54.434L218.179 57.3381H220.833L219.506 54.434Z" fill="white"/>
<path d="M224.596 54.2852H222.534V53.4103H227.662V54.2852H225.608V59.4872H224.596V54.2852Z" fill="white"/>
<path d="M228.603 59.4872V53.4103H229.596V59.4872H228.603Z" fill="white"/>
<path d="M230.905 53.4103H235.485V53.8532L232.037 58.5724H235.485V59.5017H230.612V58.9535L233.986 54.3178H230.882L230.905 53.4103Z" fill="white"/>
<path d="M240.98 58.2094H237.584L236.992 59.4872H235.924L238.757 53.4103H239.852L242.667 59.4872H241.599L240.98 58.2094ZM239.286 54.434L237.959 57.3381H240.632L239.286 54.434Z" fill="white"/>
<path d="M245.879 53.4103C248.024 53.4103 248.998 54.895 249.024 56.3943C249.051 57.8935 248.076 59.4872 245.879 59.4872H243.518V53.4103H245.879ZM244.5 58.547H245.879C247.413 58.547 248.057 57.4579 248.031 56.3689C248.042 56.0939 247.994 55.8197 247.89 55.5638C247.785 55.308 247.626 55.0762 247.424 54.8833C247.221 54.6905 246.979 54.5408 246.713 54.4441C246.447 54.3473 246.163 54.3055 245.879 54.3215H244.5V58.547Z" fill="white"/>
<path d="M254.336 58.2094H250.936L250.347 59.4872H249.279L252.094 53.4103H253.189L256 59.4872H254.935L254.336 58.2094ZM252.626 54.434L251.3 57.3381H253.953L252.626 54.434Z" fill="white"/>
<path d="M108.872 40.9153C105.648 44.001 101.728 45.228 97.3981 45.228C86.1529 45.228 81.7936 38.3851 81.7523 30.8707C81.7111 23.7484 86.6552 16.1941 97.3981 16.1941C99.4552 16.1742 101.495 16.5561 103.396 17.3171C105.298 18.078 107.021 19.2023 108.463 20.6228L103.482 25.3711C102.687 24.5937 101.739 23.9793 100.694 23.5646C99.6483 23.1498 98.5276 22.9432 97.3981 22.957C91.8842 22.957 89.7177 27.3132 89.7589 30.907C89.8001 34.5009 91.7605 38.5812 97.3981 38.5812C99.9358 38.5195 102.352 37.5148 104.145 35.7751L108.872 40.9153Z" fill="white"/>
<path d="M125.661 45.188C116.29 45.188 109.772 39.9279 109.772 30.6675C109.772 21.5703 116.305 16.1469 125.661 16.1469C135.017 16.1469 141.547 21.4469 141.547 30.6675C141.547 39.888 135.054 45.188 125.661 45.188ZM125.661 22.8409C121.043 22.8409 117.857 26.0826 117.857 30.6711C117.857 35.2596 121.084 38.5049 125.661 38.5049C130.399 38.5049 133.461 35.2596 133.461 30.6711C133.461 25.9265 130.399 22.8409 125.661 22.8409Z" fill="white"/>
<path d="M163.359 24.4998C161.398 23.0768 159.149 22.6013 156.66 22.6013C154.7 22.6013 152.777 23.1966 152.777 24.6596C152.777 26.5581 154.7 26.8376 157.515 27.1099C163.194 27.7052 169.116 29.9196 169.116 36.2869C169.116 42.5779 162.991 45.2679 156.578 45.3078C151.431 45.3477 147.754 44.4765 143.792 40.4398L148.245 35.4955C151.064 38.1492 154.209 38.6211 156.619 38.6211C159.273 38.6211 161.117 37.7135 161.117 36.1707C161.117 34.784 159.483 33.9164 156.338 33.6296C150.089 33.0778 144.699 31.535 144.699 24.6523C144.699 18.7969 150.622 16.2667 156.668 16.2667C160.956 16.2667 164.303 17.2141 167.366 19.5338L163.359 24.4998Z" fill="white"/>
<path d="M172.954 44.5164V16.8257H180.998V44.5164H172.954Z" fill="white"/>
<path d="M210.693 28.0211L203.38 36.4067H201.952L194.804 28.0574V44.5164H186.797V16.8257H195.254L202.75 26.2024L210.247 16.8257H218.662V44.5164H210.693V28.0211Z" fill="white"/>
<path d="M238.791 45.188C229.42 45.188 222.905 39.9279 222.905 30.6675C222.905 21.5703 229.439 16.1469 238.791 16.1469C248.143 16.1469 254.68 21.4469 254.68 30.6675C254.68 39.888 248.185 45.188 238.791 45.188ZM238.791 22.8409C234.177 22.8409 230.991 26.0826 230.991 30.6711C230.991 35.2596 234.218 38.5049 238.791 38.5049C243.529 38.5049 246.591 35.2596 246.591 30.6711C246.591 25.9265 243.529 22.8409 238.791 22.8409Z" fill="white"/>
<path d="M50.7383 68.715C54.6282 68.715 57.7815 65.6611 57.7815 61.8939C57.7815 58.1268 54.6282 55.0729 50.7383 55.0729C46.8484 55.0729 43.6951 58.1268 43.6951 61.8939C43.6951 65.6611 46.8484 68.715 50.7383 68.715Z" fill="white"/>
<path d="M30.0134 4.94426C31.2411 4.94426 32.2362 3.98047 32.2362 2.79158C32.2362 1.60269 31.2411 0.638908 30.0134 0.638908C28.7858 0.638908 27.7906 1.60269 27.7906 2.79158C27.7906 3.98047 28.7858 4.94426 30.0134 4.94426Z" fill="white"/>
<path d="M29.1847 19.9041C30.3606 19.9041 31.3138 18.9809 31.3138 17.8422C31.3138 16.7034 30.3606 15.7802 29.1847 15.7802C28.0089 15.7802 27.0557 16.7034 27.0557 17.8422C27.0557 18.9809 28.0089 19.9041 29.1847 19.9041Z" fill="white"/>
<path d="M24.6606 28.5983C26.7308 28.5983 28.409 26.973 28.409 24.9681C28.409 22.9633 26.7308 21.338 24.6606 21.338C22.5904 21.338 20.9122 22.9633 20.9122 24.9681C20.9122 26.973 22.5904 28.5983 24.6606 28.5983Z" fill="white"/>
<path d="M17.9324 65.5604C22.2404 65.5604 25.7328 62.1782 25.7328 58.0061C25.7328 53.8339 22.2404 50.4517 17.9324 50.4517C13.6243 50.4517 10.132 53.8339 10.132 58.0061C10.132 62.1782 13.6243 65.5604 17.9324 65.5604Z" fill="white"/>
<path d="M42.1619 55.0221C44.3645 55.0221 46.1502 53.2928 46.1502 51.1596C46.1502 49.0264 44.3645 47.2971 42.1619 47.2971C39.9592 47.2971 38.1736 49.0264 38.1736 51.1596C38.1736 53.2928 39.9592 55.0221 42.1619 55.0221Z" fill="white"/>
<path d="M62.0922 61.088C63.7731 61.088 65.1358 59.7683 65.1358 58.1404C65.1358 56.5124 63.7731 55.1927 62.0922 55.1927C60.4112 55.1927 59.0485 56.5124 59.0485 58.1404C59.0485 59.7683 60.4112 61.088 62.0922 61.088Z" fill="white"/>
<path d="M34.0616 47.6311C35.2809 47.6311 36.2694 46.6738 36.2694 45.4929C36.2694 44.3121 35.2809 43.3548 34.0616 43.3548C32.8422 43.3548 31.8538 44.3121 31.8538 45.4929C31.8538 46.6738 32.8422 47.6311 34.0616 47.6311Z" fill="white"/>
<path d="M2.88626 45.3223C4.43062 45.3223 5.68256 44.1099 5.68256 42.6142C5.68256 41.1186 4.43062 39.9062 2.88626 39.9062C1.34191 39.9062 0.0899658 41.1186 0.0899658 42.6142C0.0899658 44.1099 1.34191 45.3223 2.88626 45.3223Z" fill="white"/>
<path d="M51.4728 53.3086C52.8474 53.3086 53.9618 52.2295 53.9618 50.8982C53.9618 49.567 52.8474 48.4878 51.4728 48.4878C50.0982 48.4878 48.9839 49.567 48.9839 50.8982C48.9839 52.2295 50.0982 53.3086 51.4728 53.3086Z" fill="white"/>
<path d="M33.7767 55.2907C35.2528 55.2907 36.4493 54.1319 36.4493 52.7024C36.4493 51.2729 35.2528 50.1141 33.7767 50.1141C32.3007 50.1141 31.1041 51.2729 31.1041 52.7024C31.1041 54.1319 32.3007 55.2907 33.7767 55.2907Z" fill="white"/>
<path d="M34.2453 72.1455C38.6403 72.1455 42.2031 68.695 42.2031 64.4387C42.2031 60.1823 38.6403 56.7319 34.2453 56.7319C29.8503 56.7319 26.2875 60.1823 26.2875 64.4387C26.2875 68.695 29.8503 72.1455 34.2453 72.1455Z" fill="white"/>
<path d="M60.6378 54.7643C63.623 54.7643 66.043 52.4207 66.043 49.5297C66.043 46.6386 63.623 44.295 60.6378 44.295C57.6526 44.295 55.2327 46.6386 55.2327 49.5297C55.2327 52.4207 57.6526 54.7643 60.6378 54.7643Z" fill="white"/>
<path d="M16.2454 48.1175C19.5121 48.1175 22.1604 45.5529 22.1604 42.3892C22.1604 39.2255 19.5121 36.6608 16.2454 36.6608C12.9787 36.6608 10.3304 39.2255 10.3304 42.3892C10.3304 45.5529 12.9787 48.1175 16.2454 48.1175Z" fill="white"/>
<path d="M15.0798 14.9852C17.1562 14.9852 18.8395 13.3551 18.8395 11.3442C18.8395 9.33329 17.1562 7.70315 15.0798 7.70315C13.0034 7.70315 11.3202 9.33329 11.3202 11.3442C11.3202 13.3551 13.0034 14.9852 15.0798 14.9852Z" fill="white"/>
<path d="M5.6001 28.6563C7.83797 28.6563 9.65211 26.8994 9.65211 24.7322C9.65211 22.5649 7.83797 20.808 5.6001 20.808C3.36224 20.808 1.5481 22.5649 1.5481 24.7322C1.5481 26.8994 3.36224 28.6563 5.6001 28.6563Z" fill="white"/>
<path d="M29.526 13.8308C31.2215 13.8308 32.5959 12.4998 32.5959 10.8578C32.5959 9.21577 31.2215 7.88467 29.526 7.88467C27.8305 7.88467 26.4561 9.21577 26.4561 10.8578C26.4561 12.4998 27.8305 13.8308 29.526 13.8308Z" fill="white"/>
<path d="M46.3825 5.11123C47.4528 5.11123 48.3204 4.27097 48.3204 3.23445C48.3204 2.19793 47.4528 1.35767 46.3825 1.35767C45.3122 1.35767 44.4446 2.19793 44.4446 3.23445C44.4446 4.27097 45.3122 5.11123 46.3825 5.11123Z" fill="white"/>
<path d="M41.9332 8.95555C43.3554 8.95555 44.5083 7.83899 44.5083 6.46164C44.5083 5.0843 43.3554 3.96774 41.9332 3.96774C40.511 3.96774 39.358 5.0843 39.358 6.46164C39.358 7.83899 40.511 8.95555 41.9332 8.95555Z" fill="white"/>
<path d="M25.1781 38.1092C27.1696 38.1092 28.784 36.5457 28.784 34.617C28.784 32.6883 27.1696 31.1248 25.1781 31.1248C23.1866 31.1248 21.5721 32.6883 21.5721 34.617C21.5721 36.5457 23.1866 38.1092 25.1781 38.1092Z" fill="white"/>
<path d="M6.84076 53.9911C9.08276 53.9911 10.9003 52.2309 10.9003 50.0597C10.9003 47.8884 9.08276 46.1282 6.84076 46.1282C4.59875 46.1282 2.78125 47.8884 2.78125 50.0597C2.78125 52.2309 4.59875 53.9911 6.84076 53.9911Z" fill="white"/>
<path d="M5.83988 39.4742C8.45037 39.4742 10.5666 37.4247 10.5666 34.8966C10.5666 32.3684 8.45037 30.3189 5.83988 30.3189C3.22938 30.3189 1.11316 32.3684 1.11316 34.8966C1.11316 37.4247 3.22938 39.4742 5.83988 39.4742Z" fill="white"/>
<path d="M15.4809 34.6751C17.9071 34.6751 19.874 32.7703 19.874 30.4206C19.874 28.0709 17.9071 26.1661 15.4809 26.1661C13.0546 26.1661 11.0878 28.0709 11.0878 30.4206C11.0878 32.7703 13.0546 34.6751 15.4809 34.6751Z" fill="white"/>
<path d="M15.301 24.4781C17.3235 24.4781 18.9631 22.8902 18.9631 20.9314C18.9631 18.9727 17.3235 17.3848 15.301 17.3848C13.2784 17.3848 11.6388 18.9727 11.6388 20.9314C11.6388 22.8902 13.2784 24.4781 15.301 24.4781Z" fill="white"/>
<path d="M22.3516 18.5173C23.8877 18.5173 25.1329 17.3114 25.1329 15.8238C25.1329 14.3362 23.8877 13.1302 22.3516 13.1302C20.8155 13.1302 19.5703 14.3362 19.5703 15.8238C19.5703 17.3114 20.8155 18.5173 22.3516 18.5173Z" fill="white"/>
<path d="M42.1694 2.20349C42.6642 2.20349 43.0653 1.81505 43.0653 1.33589C43.0653 0.856724 42.6642 0.468285 42.1694 0.468285C41.6747 0.468285 41.2736 0.856724 41.2736 1.33589C41.2736 1.81505 41.6747 2.20349 42.1694 2.20349Z" fill="white"/>
<path d="M39.9805 11.4604C40.4752 11.4604 40.8763 11.0719 40.8763 10.5928C40.8763 10.1136 40.4752 9.72516 39.9805 9.72516C39.4857 9.72516 39.0846 10.1136 39.0846 10.5928C39.0846 11.0719 39.4857 11.4604 39.9805 11.4604Z" fill="white"/>
<path d="M0.895865 30.6094C1.39064 30.6094 1.79173 30.2209 1.79173 29.7417C1.79173 29.2626 1.39064 28.8741 0.895865 28.8741C0.401092 28.8741 0 29.2626 0 29.7417C0 30.2209 0.401092 30.6094 0.895865 30.6094Z" fill="white"/>
<path d="M56.2559 7.37646C56.7631 7.37646 57.1742 6.97827 57.1742 6.48707C57.1742 5.99588 56.7631 5.59769 56.2559 5.59769C55.7487 5.59769 55.3375 5.99588 55.3375 6.48707C55.3375 6.97827 55.7487 7.37646 56.2559 7.37646Z" fill="white"/>
<path d="M37.0005 4.77727C38.3627 4.77727 39.4669 3.70784 39.4669 2.38863C39.4669 1.06943 38.3627 0 37.0005 0C35.6383 0 34.5341 1.06943 34.5341 2.38863C34.5341 3.70784 35.6383 4.77727 37.0005 4.77727Z" fill="white"/>
<path d="M22.5278 8.7668C24.1756 8.7668 25.5115 7.47308 25.5115 5.8772C25.5115 4.28133 24.1756 2.98761 22.5278 2.98761C20.8799 2.98761 19.5441 4.28133 19.5441 5.8772C19.5441 7.47308 20.8799 8.7668 22.5278 8.7668Z" fill="white"/>
<path d="M8.04783 19.5265C9.44727 19.5265 10.5817 18.4279 10.5817 17.0726C10.5817 15.7173 9.44727 14.6186 8.04783 14.6186C6.64839 14.6186 5.51392 15.7173 5.51392 17.0726C5.51392 18.4279 6.64839 19.5265 8.04783 19.5265Z" fill="white"/>
<path d="M35.276 9.40207C36.2366 9.40207 37.0152 8.64795 37.0152 7.71769C37.0152 6.78743 36.2366 6.0333 35.276 6.0333C34.3154 6.0333 33.5367 6.78743 33.5367 7.71769C33.5367 8.64795 34.3154 9.40207 35.276 9.40207Z" fill="white"/>
<path d="M35.5348 13.7582C36.2572 13.7582 36.8429 13.191 36.8429 12.4913C36.8429 11.7916 36.2572 11.2244 35.5348 11.2244C34.8123 11.2244 34.2266 11.7916 34.2266 12.4913C34.2266 13.191 34.8123 13.7582 35.5348 13.7582Z" fill="white"/>
<path d="M53.9355 10.9703C54.7491 10.9703 55.4086 10.3316 55.4086 9.54364C55.4086 8.75573 54.7491 8.117 53.9355 8.117C53.1219 8.117 52.4624 8.75573 52.4624 9.54364C52.4624 10.3316 53.1219 10.9703 53.9355 10.9703Z" fill="white"/>
<path d="M26.7447 51.1306C28.5541 51.1306 30.0208 49.7101 30.0208 47.9578C30.0208 46.2055 28.5541 44.7851 26.7447 44.7851C24.9354 44.7851 23.4686 46.2055 23.4686 47.9578C23.4686 49.7101 24.9354 51.1306 26.7447 51.1306Z" fill="white"/>
<path d="M51.889 6.13132C52.6777 6.13132 53.3171 5.51209 53.3171 4.74823C53.3171 3.98438 52.6777 3.36515 51.889 3.36515C51.1002 3.36515 50.4608 3.98438 50.4608 4.74823C50.4608 5.51209 51.1002 6.13132 51.889 6.13132Z" fill="white"/>
<path d="M59.0183 10.8469C59.9085 10.8469 60.6301 10.148 60.6301 9.2859C60.6301 8.4238 59.9085 7.72494 59.0183 7.72494C58.1281 7.72494 57.4065 8.4238 57.4065 9.2859C57.4065 10.148 58.1281 10.8469 59.0183 10.8469Z" fill="white"/>
<path d="M47.8931 8.68693C48.5431 8.68693 49.0701 8.1766 49.0701 7.54707C49.0701 6.91754 48.5431 6.4072 47.8931 6.4072C47.243 6.4072 46.7161 6.91754 46.7161 7.54707C46.7161 8.1766 47.243 8.68693 47.8931 8.68693Z" fill="white"/>
<path d="M62.4107 12.4659C62.9717 12.4659 63.4265 12.0255 63.4265 11.4821C63.4265 10.9388 62.9717 10.4984 62.4107 10.4984C61.8497 10.4984 61.3949 10.9388 61.3949 11.4821C61.3949 12.0255 61.8497 12.4659 62.4107 12.4659Z" fill="white"/>
<path d="M29.8147 42.5017C30.8953 42.5017 31.7714 41.6533 31.7714 40.6068C31.7714 39.5602 30.8953 38.7118 29.8147 38.7118C28.7341 38.7118 27.858 39.5602 27.858 40.6068C27.858 41.6533 28.7341 42.5017 29.8147 42.5017Z" fill="white"/>
<path d="M65.8855 15.2176C66.194 15.2176 66.444 14.9754 66.444 14.6767C66.444 14.3779 66.194 14.1358 65.8855 14.1358C65.5771 14.1358 65.327 14.3779 65.327 14.6767C65.327 14.9754 65.5771 15.2176 65.8855 15.2176Z" fill="white"/>
<path d="M59.5245 13.6893C59.8329 13.6893 60.083 13.4471 60.083 13.1484C60.083 12.8497 59.8329 12.6075 59.5245 12.6075C59.216 12.6075 58.9659 12.8497 58.9659 13.1484C58.9659 13.4471 59.216 13.6893 59.5245 13.6893Z" fill="white"/>
<path d="M45.4455 10.1426C45.7539 10.1426 46.004 9.90045 46.004 9.60172C46.004 9.303 45.7539 9.06083 45.4455 9.06083C45.137 9.06083 44.887 9.303 44.887 9.60172C44.887 9.90045 45.137 10.1426 45.4455 10.1426Z" fill="white"/>
<path d="M50.9443 8.44734C51.2527 8.44734 51.5028 8.20517 51.5028 7.90645C51.5028 7.60772 51.2527 7.36555 50.9443 7.36555C50.6358 7.36555 50.3857 7.60772 50.3857 7.90645C50.3857 8.20517 50.6358 8.44734 50.9443 8.44734Z" fill="white"/>
</svg>
