<svg width="236" height="70" viewBox="0 0 236 70" fill="none" xmlns="http://www.w3.org/2000/svg">
<path d="M82.2275 52.5886C81.814 52.183 81.2076 51.968 80.6701 51.968C79.3194 51.968 78.5373 52.9872 78.5442 54.2144C78.5442 55.2752 79.1713 56.3048 80.6701 56.3048C81.1628 56.3048 81.6176 56.18 82.0793 55.7918V54.6131H80.4737V53.7846H82.9373V56.1627C82.3619 56.8006 81.6452 57.175 80.6701 57.175C78.5545 57.175 77.638 55.7571 77.638 54.2144C77.638 52.54 78.6992 51.1152 80.6701 51.1152C81.435 51.1152 82.2103 51.4064 82.8029 51.9923L82.2275 52.5886Z" fill="white"/>
<path d="M88.371 57.0571H84.1122C84.1122 55.1262 84.1122 53.1848 84.1122 51.2539H88.3469V52.1587H85.0357V53.7256H88.2159V54.5888H85.0357V56.1488H88.371V57.0571Z" fill="white"/>
<path d="M93.0019 52.5365C92.7297 52.1378 92.1784 51.8986 91.5754 51.8882C90.8001 51.8882 90.2419 52.2106 90.2419 52.7687C90.2419 53.3338 90.8863 53.4898 91.6409 53.5973C92.8261 53.7637 93.9563 54.093 93.9563 55.3965C93.9494 56.6965 92.771 57.1887 91.5685 57.1887C90.4659 57.1887 89.6149 56.849 89.0877 55.8714L89.7802 55.4069C90.1937 56.1106 90.9104 56.3602 91.5754 56.3602C92.268 56.3602 93.0329 56.1279 93.0329 55.3999C93.0329 54.769 92.3644 54.5541 91.5582 54.4466C90.4142 54.2906 89.3254 53.9994 89.3254 52.7549C89.3185 51.5519 90.5107 51.0874 91.5513 51.0874C92.3851 51.0874 93.2155 51.285 93.7013 52.065L93.0019 52.5365Z" fill="white"/>
<path d="M96.3062 52.0894H94.4111V51.2539C96.0685 51.2539 97.4674 51.2539 99.1247 51.2539V52.0928H97.2365V57.0571H96.3062V52.0894Z" fill="white"/>
<path d="M103.466 55.8368H100.344L99.8001 57.0536H98.8181L101.406 51.2504H102.412L104.999 57.0536H104.017L103.466 55.8368ZM100.613 50.408C100.768 49.9434 101.099 49.628 101.585 49.7354C101.781 49.784 101.957 49.9088 102.147 49.9746C102.336 50.0405 102.567 50.0509 102.656 49.7597L103.201 49.9677C103.101 50.6229 102.598 50.7616 102.219 50.6714C102.022 50.6229 101.84 50.4981 101.657 50.4322C101.468 50.3664 101.244 50.3906 101.113 50.6818L100.613 50.408ZM101.909 52.2314L100.689 54.9909H103.128L101.909 52.2314Z" fill="white"/>
<path d="M111.119 54.1798C111.119 55.7467 110.171 57.1819 108.169 57.1819C106.168 57.1819 105.22 55.7155 105.22 54.1902C105.22 52.4256 106.447 51.1499 108.187 51.1499C110.154 51.1534 111.119 52.6128 111.119 54.1798ZM108.169 56.3256C109.603 56.3256 110.206 55.3064 110.206 54.1971C110.206 53.1294 109.596 52.0166 108.187 51.9923C106.853 51.9923 106.137 52.9283 106.137 54.1971C106.15 55.2232 106.743 56.3256 108.169 56.3256Z" fill="white"/>
<path d="M114.265 57.057V51.2642H118.341V52.169H115.185V53.9335H118.182V54.7967H115.185V57.0604H114.265V57.057Z" fill="white"/>
<path d="M119.423 57.0571V51.2539H120.336V57.0571H119.423Z" fill="white"/>
<path d="M125.766 55.3827V51.2539H126.689V57.0571H125.99L122.72 52.963V57.0571H121.79V51.2539H122.5L125.766 55.3827Z" fill="white"/>
<path d="M132.134 55.8369H129.012L128.467 57.0537H127.485L130.073 51.2505H131.079L133.667 57.0537H132.685L132.134 55.8369ZM130.576 52.2316L129.356 54.991H131.796L130.576 52.2316Z" fill="white"/>
<path d="M138.446 55.3827V51.2539H139.369V57.0571H138.67L135.4 52.963V57.0571H134.47V51.2539H135.179L138.446 55.3827Z" fill="white"/>
<path d="M145.671 56.3083C145.079 56.8976 144.31 57.1715 143.504 57.1715C141.413 57.1715 140.472 55.7224 140.465 54.1971C140.458 52.6717 141.444 51.1533 143.504 51.1533C144.279 51.1533 145.027 51.4445 145.613 52.0304L144.996 52.6267C144.582 52.2211 144.042 52.0304 143.504 52.0304C142.036 52.0304 141.371 53.1155 141.378 54.1867C141.385 55.2475 142.012 56.3013 143.504 56.3013C144.038 56.3013 144.634 56.076 145.037 55.6704L145.671 56.3083Z" fill="white"/>
<path d="M150.867 57.0571H146.608C146.608 55.1262 146.608 53.1848 146.608 51.2539H150.843V52.1587H147.532V53.7256H150.712V54.5888H147.532V56.1488H150.867V57.0571Z" fill="white"/>
<path d="M152.056 57.0571V51.2539H152.969V57.0571H152.056Z" fill="white"/>
<path d="M159.395 57.0572H158.317L156.563 55.05H155.343V57.0572H154.42V51.2471C155.319 51.2471 156.208 51.254 157.104 51.254C158.437 51.254 159.14 52.1727 159.14 53.1537C159.14 53.9823 158.713 54.7935 157.576 54.9599L159.299 56.8908L159.395 57.0572ZM155.343 52.0999V54.2041H157.097C157.862 54.2041 158.199 53.7153 158.199 53.1676C158.199 52.6441 157.862 52.0999 157.104 52.0999H155.343Z" fill="white"/>
<path d="M164.353 55.8369H161.232L160.687 57.0537H159.705L162.293 51.2505H163.299L165.887 57.0537H164.905L164.353 55.8369ZM162.796 52.2316L161.576 54.991H164.016L162.796 52.2316Z" fill="white"/>
<path d="M172.223 55.8369H169.101L168.557 57.0537H167.575L170.163 51.2505H171.169L173.756 57.0537H172.774L172.223 55.8369ZM170.666 52.2316L169.446 54.991H171.885L170.666 52.2316Z" fill="white"/>
<path d="M179.142 51.2607V54.6511C179.142 56.3567 178.022 57.213 176.63 57.161C175.345 57.1263 174.249 56.2978 174.249 54.6511V51.2607H175.162V54.6511C175.162 55.705 175.772 56.277 176.63 56.3082C177.553 56.3567 178.229 55.7535 178.229 54.6511V51.2607H179.142Z" fill="white"/>
<path d="M181.829 52.0894H179.934V51.2539C181.592 51.2539 182.991 51.2539 184.648 51.2539V52.0928H182.76V57.0571H181.829V52.0894Z" fill="white"/>
<path d="M190.891 54.1798C190.891 55.7467 189.944 57.1819 187.942 57.1819C185.94 57.1819 184.992 55.7155 184.992 54.1902C184.992 52.4256 186.219 51.1499 187.959 51.1499C189.926 51.1534 190.891 52.6128 190.891 54.1798ZM187.942 56.3256C189.375 56.3256 189.978 55.3064 189.978 54.1971C189.978 53.1294 189.368 52.0166 187.959 51.9923C186.626 51.9923 185.909 52.9283 185.909 54.1971C185.923 55.2232 186.515 56.3256 187.942 56.3256Z" fill="white"/>
<path d="M197.004 52.6127L195.043 55.3583H194.847L192.91 52.6127V57.0639H191.987V51.2607C192.349 51.2607 192.686 51.2607 193.059 51.2607L194.961 53.9786L196.856 51.2607H197.927V57.0639H197.004V52.6127Z" fill="white"/>
<path d="M203.371 55.8369H200.249L199.705 57.0537H198.723L201.311 51.2505H202.317L204.904 57.0537H203.922L203.371 55.8369ZM201.814 52.2316L200.594 54.991H203.034L201.814 52.2316Z" fill="white"/>
<path d="M206.493 52.0894H204.598V51.2539C206.255 51.2539 207.654 51.2539 209.311 51.2539V52.0928H207.423V57.0571H206.493V52.0894Z" fill="white"/>
<path d="M210.176 57.0571V51.2539H211.089V57.0571H210.176Z" fill="white"/>
<path d="M212.292 51.2539H216.502V51.6768L213.329 56.1696H216.502V57.0571H212.03V56.5336L215.145 52.1067H212.295V51.2539H212.292Z" fill="white"/>
<path d="M221.554 55.8369H218.432L217.888 57.0537H216.906L219.493 51.2505H220.499L223.087 57.0537H222.105L221.554 55.8369ZM219.996 52.2316L218.776 54.991H221.216L219.996 52.2316Z" fill="white"/>
<path d="M226.067 51.2539C228.035 51.2539 228.934 52.6718 228.958 54.107C228.993 55.5734 228.086 57.0571 226.067 57.0571C225.375 57.0571 224.575 57.0571 223.883 57.0571V51.2539H226.067ZM224.799 56.1592H226.067C227.477 56.1592 228.069 55.1158 228.045 54.0966C228.021 53.119 227.428 52.1414 226.067 52.1414H224.799V56.1592Z" fill="white"/>
<path d="M233.83 55.8369H230.709L230.164 57.0537H229.182L231.77 51.2505H232.776L235.364 57.0537H234.382L233.83 55.8369ZM232.273 52.2316L231.053 54.991H233.493L232.273 52.2316Z" fill="white"/>
<path d="M100.117 39.3214C97.1504 42.268 93.5463 43.4398 89.5666 43.4398C79.2436 43.4398 75.226 36.9051 75.1881 29.7291C75.1502 22.931 79.695 15.7134 89.5666 15.7134C93.3602 15.7134 96.7748 17.0342 99.7414 19.9427L95.1622 24.4771C93.2844 22.664 91.3342 22.1718 89.5666 22.1718C84.4981 22.1718 82.51 26.3283 82.5445 29.7638C82.5824 33.2027 84.3844 37.0923 89.5666 37.0923C91.3307 37.0923 93.8839 36.3366 95.7618 34.4091L100.117 39.3214Z" fill="white"/>
<path d="M115.55 43.4017C106.953 43.4017 100.944 38.3785 100.944 29.5385C100.944 20.851 106.95 15.6753 115.55 15.6753C124.185 15.6753 130.156 20.7366 130.156 29.5385C130.152 38.3785 124.185 43.4017 115.55 43.4017ZM115.55 22.0609C111.308 22.0609 108.38 25.1601 108.38 29.542C108.38 33.962 111.346 37.0196 115.55 37.0196C119.905 37.0196 122.72 33.9238 122.72 29.542C122.72 25.0076 119.905 22.0609 115.55 22.0609Z" fill="white"/>
<path d="M150.202 23.645C148.4 22.286 146.336 21.8319 144.045 21.8319C142.243 21.8319 140.479 22.397 140.479 23.7975C140.479 25.6106 142.243 25.874 144.834 26.141C150.054 26.706 155.498 28.8242 155.498 34.9047C155.498 40.9124 149.868 43.4778 143.973 43.5159C139.242 43.554 135.862 42.722 132.22 38.8706L136.313 34.149C138.904 36.6796 141.795 37.1338 144.01 37.1338C146.45 37.1338 148.142 36.2636 148.142 34.7903C148.142 33.4695 146.639 32.6375 143.749 32.374C138.005 31.8436 133.05 30.3703 133.05 23.801C133.05 18.2092 138.494 15.793 144.052 15.793C147.994 15.793 151.074 16.7012 153.889 18.9268L150.202 23.645Z" fill="white"/>
<path d="M159.023 42.7601V16.3164H166.421V42.7567H159.023V42.7601Z" fill="white"/>
<path d="M193.713 27.0076L186.994 35.0156H185.682L179.111 27.0457V42.7601H171.751V16.3164H179.524L186.433 25.2673L193.341 16.3164H201.076V42.7567H193.717V27.0076H193.713Z" fill="white"/>
<path d="M219.541 43.4017C210.945 43.4017 204.935 38.3785 204.935 29.5385C204.935 20.851 210.941 15.6753 219.541 15.6753C228.176 15.6753 234.147 20.7366 234.147 29.5385C234.147 38.3785 228.176 43.4017 219.541 43.4017ZM219.541 22.0609C215.3 22.0609 212.371 25.1601 212.371 29.542C212.371 33.962 215.338 37.0196 219.541 37.0196C223.897 37.0196 226.712 33.9238 226.712 29.542C226.712 25.0076 223.897 22.0609 219.541 22.0609Z" fill="white"/>
<path d="M46.6793 65.8725C50.2549 65.8725 53.1536 62.9561 53.1536 59.3586C53.1536 55.7611 50.2549 52.8447 46.6793 52.8447C43.1036 52.8447 40.205 55.7611 40.205 59.3586C40.205 62.9561 43.1036 65.8725 46.6793 65.8725Z" fill="white"/>
<path d="M27.6286 4.96987C28.757 4.96987 29.6718 4.04948 29.6718 2.91413C29.6718 1.77878 28.757 0.858398 27.6286 0.858398C26.5001 0.858398 25.5854 1.77878 25.5854 2.91413C25.5854 4.04948 26.5001 4.96987 27.6286 4.96987Z" fill="white"/>
<path d="M26.8671 19.2599C27.948 19.2599 28.8242 18.3783 28.8242 17.2908C28.8242 16.2034 27.948 15.3218 26.8671 15.3218C25.7862 15.3218 24.91 16.2034 24.91 17.2908C24.91 18.3783 25.7862 19.2599 26.8671 19.2599Z" fill="white"/>
<path d="M22.7083 27.5622C24.6112 27.5622 26.1539 26.0102 26.1539 24.0956C26.1539 22.181 24.6112 20.6289 22.7083 20.6289C20.8053 20.6289 19.2627 22.181 19.2627 24.0956C19.2627 26.0102 20.8053 27.5622 22.7083 27.5622Z" fill="white"/>
<path d="M16.52 62.8565C20.48 62.8565 23.6903 59.6266 23.6903 55.6424C23.6903 51.6581 20.48 48.4282 16.52 48.4282C12.5599 48.4282 9.3497 51.6581 9.3497 55.6424C9.3497 59.6266 12.5599 62.8565 16.52 62.8565Z" fill="white"/>
<path d="M38.7923 52.7926C40.817 52.7926 42.4584 51.1412 42.4584 49.1041C42.4584 47.0669 40.817 45.4155 38.7923 45.4155C36.7676 45.4155 35.1262 47.0669 35.1262 49.1041C35.1262 51.1412 36.7676 52.7926 38.7923 52.7926Z" fill="white"/>
<path d="M57.116 58.5889C58.6612 58.5889 59.9138 57.3286 59.9138 55.7739C59.9138 54.2193 58.6612 52.959 57.116 52.959C55.5708 52.959 54.3182 54.2193 54.3182 55.7739C54.3182 57.3286 55.5708 58.5889 57.116 58.5889Z" fill="white"/>
<path d="M31.3498 45.738C32.4707 45.738 33.3793 44.8239 33.3793 43.6962C33.3793 42.5685 32.4707 41.6543 31.3498 41.6543C30.229 41.6543 29.3204 42.5685 29.3204 43.6962C29.3204 44.8239 30.229 45.738 31.3498 45.738Z" fill="white"/>
<path d="M2.69282 43.5297C4.11242 43.5297 5.26324 42.3718 5.26324 40.9436C5.26324 39.5153 4.11242 38.3574 2.69282 38.3574C1.27322 38.3574 0.122406 39.5153 0.122406 40.9436C0.122406 42.3718 1.27322 43.5297 2.69282 43.5297Z" fill="white"/>
<path d="M47.3546 51.1599C48.6182 51.1599 49.6425 50.1293 49.6425 48.858C49.6425 47.5867 48.6182 46.5562 47.3546 46.5562C46.0911 46.5562 45.0667 47.5867 45.0667 48.858C45.0667 50.1293 46.0911 51.1599 47.3546 51.1599Z" fill="white"/>
<path d="M31.088 53.0494C32.4448 53.0494 33.5447 51.9428 33.5447 50.5777C33.5447 49.2126 32.4448 48.106 31.088 48.106C29.7312 48.106 28.6313 49.2126 28.6313 50.5777C28.6313 51.9428 29.7312 53.0494 31.088 53.0494Z" fill="white"/>
<path d="M31.5187 69.1453C35.5586 69.1453 38.8337 65.8502 38.8337 61.7855C38.8337 57.7209 35.5586 54.4258 31.5187 54.4258C27.4787 54.4258 24.2037 57.7209 24.2037 61.7855C24.2037 65.8502 27.4787 69.1453 31.5187 69.1453Z" fill="white"/>
<path d="M55.7791 52.5467C58.5231 52.5467 60.7476 50.3086 60.7476 47.5478C60.7476 44.7869 58.5231 42.5488 55.7791 42.5488C53.035 42.5488 50.8105 44.7869 50.8105 47.5478C50.8105 50.3086 53.035 52.5467 55.7791 52.5467Z" fill="white"/>
<path d="M14.9729 46.1991C17.9758 46.1991 20.4101 43.7499 20.4101 40.7287C20.4101 37.7075 17.9758 35.2583 14.9729 35.2583C11.9701 35.2583 9.53577 37.7075 9.53577 40.7287C9.53577 43.7499 11.9701 46.1991 14.9729 46.1991Z" fill="white"/>
<path d="M13.8979 14.5625C15.8065 14.5625 17.3538 13.0058 17.3538 11.0855C17.3538 9.16513 15.8065 7.6084 13.8979 7.6084C11.9892 7.6084 10.442 9.16513 10.442 11.0855C10.442 13.0058 11.9892 14.5625 13.8979 14.5625Z" fill="white"/>
<path d="M5.18743 27.618C7.24452 27.618 8.91212 25.9402 8.91212 23.8705C8.91212 21.8008 7.24452 20.123 5.18743 20.123C3.13034 20.123 1.46274 21.8008 1.46274 23.8705C1.46274 25.9402 3.13034 27.618 5.18743 27.618Z" fill="white"/>
<path d="M27.1772 13.4601C28.7357 13.4601 29.9992 12.189 29.9992 10.6209C29.9992 9.05289 28.7357 7.78174 27.1772 7.78174C25.6187 7.78174 24.3553 9.05289 24.3553 10.6209C24.3553 12.189 25.6187 13.4601 27.1772 13.4601Z" fill="white"/>
<path d="M42.6755 5.12946C43.6593 5.12946 44.4569 4.32703 44.4569 3.33719C44.4569 2.34735 43.6593 1.54492 42.6755 1.54492C41.6917 1.54492 40.8941 2.34735 40.8941 3.33719C40.8941 4.32703 41.6917 5.12946 42.6755 5.12946Z" fill="white"/>
<path d="M38.5856 8.80422C39.8929 8.80422 40.9527 7.73794 40.9527 6.42262C40.9527 5.10729 39.8929 4.04102 38.5856 4.04102C37.2782 4.04102 36.2184 5.10729 36.2184 6.42262C36.2184 7.73794 37.2782 8.80422 38.5856 8.80422Z" fill="white"/>
<path d="M23.1838 36.645C25.0144 36.645 26.4984 35.1519 26.4984 33.31C26.4984 31.4682 25.0144 29.9751 23.1838 29.9751C21.3531 29.9751 19.8691 31.4682 19.8691 33.31C19.8691 35.1519 21.3531 36.645 23.1838 36.645Z" fill="white"/>
<path d="M6.32448 51.8081C8.38537 51.8081 10.0561 50.1272 10.0561 48.0537C10.0561 45.9802 8.38537 44.2993 6.32448 44.2993C4.26358 44.2993 2.5929 45.9802 2.5929 48.0537C2.5929 50.1272 4.26358 51.8081 6.32448 51.8081Z" fill="white"/>
<path d="M5.40795 37.9451C7.80757 37.9451 9.75284 35.9879 9.75284 33.5736C9.75284 31.1593 7.80757 29.2021 5.40795 29.2021C3.00833 29.2021 1.06305 31.1593 1.06305 33.5736C1.06305 35.9879 3.00833 37.9451 5.40795 37.9451Z" fill="white"/>
<path d="M14.27 33.3622C16.5003 33.3622 18.3083 31.5432 18.3083 29.2993C18.3083 27.0554 16.5003 25.2363 14.27 25.2363C12.0398 25.2363 10.2318 27.0554 10.2318 29.2993C10.2318 31.5432 12.0398 33.3622 14.27 33.3622Z" fill="white"/>
<path d="M14.1012 23.6279C15.9604 23.6279 17.4675 22.1115 17.4675 20.2409C17.4675 18.3704 15.9604 16.854 14.1012 16.854C12.242 16.854 10.7348 18.3704 10.7348 20.2409C10.7348 22.1115 12.242 23.6279 14.1012 23.6279Z" fill="white"/>
<path d="M20.5858 17.9321C21.9978 17.9321 23.1424 16.7805 23.1424 15.3599C23.1424 13.9392 21.9978 12.7876 20.5858 12.7876C19.1738 12.7876 18.0291 13.9392 18.0291 15.3599C18.0291 16.7805 19.1738 17.9321 20.5858 17.9321Z" fill="white"/>
<path d="M38.8027 2.35287C39.2575 2.35287 39.6262 1.98192 39.6262 1.52433C39.6262 1.06675 39.2575 0.695801 38.8027 0.695801C38.3478 0.695801 37.9792 1.06675 37.9792 1.52433C37.9792 1.98192 38.3478 2.35287 38.8027 2.35287Z" fill="white"/>
<path d="M36.7904 11.1961C37.2452 11.1961 37.6139 10.8252 37.6139 10.3676C37.6139 9.91001 37.2452 9.53906 36.7904 9.53906C36.3356 9.53906 35.9669 9.91001 35.9669 10.3676C35.9669 10.8252 36.3356 11.1961 36.7904 11.1961Z" fill="white"/>
<path d="M0.863201 29.4793C1.31801 29.4793 1.6867 29.1084 1.6867 28.6508C1.6867 28.1932 1.31801 27.8223 0.863201 27.8223C0.408396 27.8223 0.0397034 28.1932 0.0397034 28.6508C0.0397034 29.1084 0.408396 29.4793 0.863201 29.4793Z" fill="white"/>
<path d="M51.7512 7.29632C52.2174 7.29632 52.5954 6.91606 52.5954 6.44699C52.5954 5.97792 52.2174 5.59766 51.7512 5.59766C51.285 5.59766 50.907 5.97792 50.907 6.44699C50.907 6.91606 51.285 7.29632 51.7512 7.29632Z" fill="white"/>
<path d="M34.0512 4.81409C35.3033 4.81409 36.3184 3.79282 36.3184 2.53302C36.3184 1.27322 35.3033 0.251953 34.0512 0.251953C32.799 0.251953 31.784 1.27322 31.784 2.53302C31.784 3.79282 32.799 4.81409 34.0512 4.81409Z" fill="white"/>
<path d="M20.7443 8.6205C22.259 8.6205 23.487 7.38504 23.487 5.86103C23.487 4.33702 22.259 3.10156 20.7443 3.10156C19.2295 3.10156 18.0016 4.33702 18.0016 5.86103C18.0016 7.38504 19.2295 8.6205 20.7443 8.6205Z" fill="white"/>
<path d="M7.43741 18.8993C8.7238 18.8993 9.76663 17.8501 9.76663 16.5559C9.76663 15.2616 8.7238 14.2124 7.43741 14.2124C6.15101 14.2124 5.10818 15.2616 5.10818 16.5559C5.10818 17.8501 6.15101 18.8993 7.43741 18.8993Z" fill="white"/>
<path d="M32.4662 9.23074C33.3492 9.23074 34.065 8.51057 34.065 7.6222C34.065 6.73384 33.3492 6.01367 32.4662 6.01367C31.5832 6.01367 30.8675 6.73384 30.8675 7.6222C30.8675 8.51057 31.5832 9.23074 32.4662 9.23074Z" fill="white"/>
<path d="M32.7039 13.3904C33.3681 13.3904 33.9065 12.8488 33.9065 12.1806C33.9065 11.5124 33.3681 10.9707 32.7039 10.9707C32.0398 10.9707 31.5014 11.5124 31.5014 12.1806C31.5014 12.8488 32.0398 13.3904 32.7039 13.3904Z" fill="white"/>
<path d="M49.6184 10.7248C50.3662 10.7248 50.9725 10.1148 50.9725 9.3624C50.9725 8.60997 50.3662 8 49.6184 8C48.8705 8 48.2643 8.60997 48.2643 9.3624C48.2643 10.1148 48.8705 10.7248 49.6184 10.7248Z" fill="white"/>
<path d="M24.624 49.0763C26.2872 49.0763 27.6355 47.7198 27.6355 46.0465C27.6355 44.3731 26.2872 43.0166 24.624 43.0166C22.9609 43.0166 21.6126 44.3731 21.6126 46.0465C21.6126 47.7198 22.9609 49.0763 24.624 49.0763Z" fill="white"/>
<path d="M47.7371 6.10693C48.4621 6.10693 49.0499 5.51559 49.0499 4.78613C49.0499 4.05667 48.4621 3.46533 47.7371 3.46533C47.0121 3.46533 46.4243 4.05667 46.4243 4.78613C46.4243 5.51559 47.0121 6.10693 47.7371 6.10693Z" fill="white"/>
<path d="M54.2906 10.6102C55.1089 10.6102 55.7722 9.94284 55.7722 9.11957C55.7722 8.2963 55.1089 7.62891 54.2906 7.62891C53.4723 7.62891 52.809 8.2963 52.809 9.11957C52.809 9.94284 53.4723 10.6102 54.2906 10.6102Z" fill="white"/>
<path d="M44.0606 8.54767C44.6582 8.54767 45.1426 8.06032 45.1426 7.45914C45.1426 6.85796 44.6582 6.37061 44.0606 6.37061C43.4631 6.37061 42.9787 6.85796 42.9787 7.45914C42.9787 8.06032 43.4631 8.54767 44.0606 8.54767Z" fill="white"/>
<path d="M57.4054 12.1529C57.9211 12.1529 58.3392 11.7322 58.3392 11.2134C58.3392 10.6945 57.9211 10.2739 57.4054 10.2739C56.8897 10.2739 56.4717 10.6945 56.4717 11.2134C56.4717 11.7322 56.8897 12.1529 57.4054 12.1529Z" fill="white"/>
<path d="M27.446 40.836C28.4393 40.836 29.2446 40.0258 29.2446 39.0264C29.2446 38.027 28.4393 37.2168 27.446 37.2168C26.4526 37.2168 25.6474 38.027 25.6474 39.0264C25.6474 40.0258 26.4526 40.836 27.446 40.836Z" fill="white"/>
<path d="M60.6029 14.7806C60.8865 14.7806 61.1163 14.5494 61.1163 14.2641C61.1163 13.9788 60.8865 13.7476 60.6029 13.7476C60.3194 13.7476 60.0895 13.9788 60.0895 14.2641C60.0895 14.5494 60.3194 14.7806 60.6029 14.7806Z" fill="white"/>
<path d="M54.7558 13.3246C55.0393 13.3246 55.2692 13.0933 55.2692 12.808C55.2692 12.5228 55.0393 12.2915 54.7558 12.2915C54.4722 12.2915 54.2424 12.5228 54.2424 12.808C54.2424 13.0933 54.4722 13.3246 54.7558 13.3246Z" fill="white"/>
<path d="M41.8141 9.93443C42.0977 9.93443 42.3275 9.70317 42.3275 9.4179C42.3275 9.13263 42.0977 8.90137 41.8141 8.90137C41.5306 8.90137 41.3007 9.13263 41.3007 9.4179C41.3007 9.70317 41.5306 9.93443 41.8141 9.93443Z" fill="white"/>
<path d="M46.8688 8.31529C47.1523 8.31529 47.3822 8.08403 47.3822 7.79876C47.3822 7.51349 47.1523 7.28223 46.8688 7.28223C46.5853 7.28223 46.3554 7.51349 46.3554 7.79876C46.3554 8.08403 46.5853 8.31529 46.8688 8.31529Z" fill="white"/>
</svg>
