<svg width="57" height="57" viewBox="0 0 57 57" fill="none" xmlns="http://www.w3.org/2000/svg">
<g id="gps-fixed 1" clip-path="url(#clip0_9_1032)">
<path id="Vector" d="M28.5 19C23.2512 19 19 23.2512 19 28.5C19 33.7488 23.2512 38 28.5 38C33.7488 38 38 33.7488 38 28.5C38 23.2512 33.7488 19 28.5 19ZM49.7325 26.125C49.1945 21.3088 47.0349 16.8187 43.6081 13.3919C40.1814 9.96514 35.6912 7.80547 30.875 7.2675V2.375H26.125V7.2675C21.3088 7.80547 16.8187 9.96514 13.3919 13.3919C9.96514 16.8187 7.80547 21.3088 7.2675 26.125H2.375V30.875H7.2675C7.80547 35.6912 9.96514 40.1814 13.3919 43.6081C16.8187 47.0349 21.3088 49.1945 26.125 49.7325V54.625H30.875V49.7325C35.6912 49.1945 40.1814 47.0349 43.6081 43.6081C47.0349 40.1814 49.1945 35.6912 49.7325 30.875H54.625V26.125H49.7325ZM28.5 45.125C19.3088 45.125 11.875 37.6912 11.875 28.5C11.875 19.3088 19.3088 11.875 28.5 11.875C37.6912 11.875 45.125 19.3088 45.125 28.5C45.125 37.6912 37.6912 45.125 28.5 45.125Z" fill="#0470B6"/>
</g>
<defs>
<clipPath id="clip0_9_1032">
<rect width="57" height="57" fill="white"/>
</clipPath>
</defs>
</svg>
