<svg width="298" height="354" viewBox="0 0 298 354" fill="none" xmlns="http://www.w3.org/2000/svg">
<rect width="298" height="354" rx="16" fill="white" fill-opacity="0.9"/>
<path d="M60.64 323.34C58.5733 323.34 56.7467 322.967 55.16 322.22V319.32C56.8267 320.2 58.6533 320.64 60.64 320.64C61.4933 320.64 62.12 320.48 62.52 320.16C62.9333 319.84 63.14 319.42 63.14 318.9C63.14 318.393 62.9533 318.013 62.58 317.76C62.22 317.507 61.6133 317.26 60.76 317.02L59.4 316.64C58.6133 316.413 57.9267 316.153 57.34 315.86C56.7667 315.553 56.28 315.107 55.88 314.52C55.48 313.933 55.28 313.173 55.28 312.24C55.28 310.707 55.74 309.547 56.66 308.76C57.5933 307.96 58.9 307.56 60.58 307.56C61.58 307.56 62.46 307.653 63.22 307.84C63.9933 308.013 64.7733 308.287 65.56 308.66V311.46C64.08 310.66 62.42 310.26 60.58 310.26C59.8067 310.26 59.2533 310.407 58.92 310.7C58.6 310.993 58.44 311.413 58.44 311.96C58.4533 312.48 58.6133 312.86 58.92 313.1C59.24 313.327 59.8267 313.56 60.68 313.8L62.06 314.18C62.9 314.407 63.62 314.68 64.22 315C64.82 315.32 65.3133 315.787 65.7 316.4C66.1 317 66.3 317.787 66.3 318.76C66.2867 320.187 65.78 321.307 64.78 322.12C63.78 322.933 62.4 323.34 60.64 323.34ZM71.3613 318.22C71.6013 319.913 72.6546 320.76 74.5213 320.76C75.0279 320.76 75.5213 320.693 76.0013 320.56C76.4946 320.427 77.0479 320.213 77.6613 319.92L78.4813 322.32C77.8013 322.693 77.1213 322.953 76.4413 323.1C75.7746 323.26 75.0013 323.34 74.1213 323.34C72.8413 323.34 71.7479 323.093 70.8413 322.6C69.9346 322.093 69.2479 321.393 68.7813 320.5C68.3146 319.593 68.0813 318.547 68.0813 317.36C68.0813 316.107 68.3213 315.033 68.8013 314.14C69.2813 313.247 69.9346 312.573 70.7613 312.12C71.5879 311.653 72.5079 311.42 73.5213 311.42C75.1346 311.42 76.3946 311.893 77.3013 312.84C78.2213 313.787 78.6813 315.173 78.6813 317V318.22H71.3613ZM73.5213 314C72.9613 314 72.5013 314.147 72.1413 314.44C71.7946 314.733 71.5546 315.213 71.4213 315.88H75.4613C75.3946 315.227 75.2013 314.753 74.8813 314.46C74.5613 314.153 74.1079 314 73.5213 314ZM91.3716 311.74V323.02C91.3716 324.513 90.9316 325.72 90.0516 326.64C89.1849 327.56 87.9116 328.02 86.2316 328.02C85.2049 328.02 84.3049 327.967 83.5316 327.86C82.7582 327.753 82.0249 327.567 81.3316 327.3V324.44C82.0116 324.733 82.6982 324.947 83.3916 325.08C84.0849 325.213 84.7116 325.28 85.2716 325.28C86.3782 325.28 87.1582 325.073 87.6116 324.66C88.0649 324.247 88.2916 323.633 88.2916 322.82V321.8C87.2916 322.56 86.2649 322.94 85.2116 322.94C83.6516 322.94 82.4049 322.467 81.4716 321.52C80.5382 320.573 80.0716 319.127 80.0716 317.18C80.0716 315.94 80.2916 314.887 80.7316 314.02C81.1716 313.153 81.7782 312.507 82.5516 312.08C83.3249 311.64 84.2116 311.42 85.2116 311.42C86.2782 311.42 87.3049 311.807 88.2916 312.58V311.74H91.3716ZM85.8316 320.2C86.6049 320.2 87.4249 319.893 88.2916 319.28V315.08C87.4516 314.48 86.6316 314.18 85.8316 314.18C84.9916 314.18 84.3516 314.44 83.9116 314.96C83.4849 315.48 83.2716 316.22 83.2716 317.18C83.2716 318.247 83.4782 319.02 83.8916 319.5C84.3182 319.967 84.9649 320.2 85.8316 320.2ZM104.869 311.74V323H101.789V322.04C100.789 322.84 99.7157 323.24 98.5691 323.24C97.1024 323.24 96.0024 322.867 95.2691 322.12C94.5491 321.373 94.1891 320.173 94.1891 318.52V311.74H97.2691V318.52C97.2691 319.187 97.4157 319.687 97.7091 320.02C98.0157 320.34 98.5224 320.5 99.2291 320.5C100.069 320.5 100.922 320.14 101.789 319.42V311.74H104.869ZM114.543 311.5V314.26H114.083C113.03 314.26 111.983 314.647 110.943 315.42V323H107.863V311.74H110.943V312.82C111.97 311.94 113.017 311.5 114.083 311.5H114.543ZM121.872 323.34C120.606 323.34 119.526 323.08 118.632 322.56C117.739 322.04 117.066 321.333 116.612 320.44C116.172 319.533 115.952 318.513 115.952 317.38C115.952 316.26 116.172 315.253 116.612 314.36C117.066 313.453 117.739 312.74 118.632 312.22C119.526 311.687 120.606 311.42 121.872 311.42C123.139 311.42 124.212 311.687 125.092 312.22C125.972 312.74 126.632 313.453 127.072 314.36C127.526 315.253 127.752 316.26 127.752 317.38C127.752 318.513 127.526 319.533 127.072 320.44C126.632 321.333 125.972 322.04 125.092 322.56C124.212 323.08 123.139 323.34 121.872 323.34ZM121.872 320.7C122.739 320.7 123.399 320.413 123.852 319.84C124.306 319.253 124.532 318.433 124.532 317.38C124.532 316.34 124.306 315.533 123.852 314.96C123.399 314.373 122.739 314.08 121.872 314.08C120.992 314.08 120.319 314.373 119.852 314.96C119.399 315.533 119.172 316.34 119.172 317.38C119.172 318.42 119.399 319.233 119.852 319.82C120.319 320.407 120.992 320.7 121.872 320.7Z" fill="#2E3135"/>
<ellipse cx="42" cy="314.5" rx="6" ry="5.5" fill="#04ADBF"/>
<g clip-path="url(#clip0_46_125)">
<path d="M99.3721 67.5129V105.529H86.5284V118.371H48.5142V67.5129H99.3721Z" fill="#AFDEE2"/>
<path d="M137.901 118.885V144.057H125.057V156.9H99.885V144.057H87.0426V118.885H99.885V106.042H125.057V118.885H137.901Z" fill="#AFDEE2"/>
<path d="M176.429 67.5129V105.529H163.585V118.371H138.413V105.529H125.571V67.5129H176.429Z" fill="#AFDEE2"/>
<path d="M214.957 118.885V144.057H202.115V156.9H176.942V144.057H164.099V118.885H176.942V106.042H202.115V118.885H214.957Z" fill="#AFDEE2"/>
<path d="M253.486 67.5129V118.371H215.472V105.529H202.628V67.5129H253.486Z" fill="#AFDEE2"/>
<path d="M99.3721 157.414V182.586H86.5284V195.428H48.5142V144.57H86.5284V157.414H99.3721Z" fill="#AFDEE2"/>
<path d="M137.901 195.943V221.115H125.057V233.957H99.885V221.115H87.0426V195.943H99.885V183.099H125.057V195.943H137.901Z" fill="#AFDEE2"/>
<path d="M176.429 157.414V182.586H163.585V195.428H138.413V182.586H125.571V157.414H138.413V144.57H163.585V157.414H176.429Z" fill="#AFDEE2"/>
<path d="M214.957 195.943V221.115H202.115V233.957H176.942V221.115H164.099V195.943H176.942V183.099H202.115V195.943H214.957Z" fill="#AFDEE2"/>
<path d="M253.486 144.57V195.428H215.472V182.586H202.628V157.414H215.472V144.57H253.486Z" fill="#AFDEE2"/>
<path d="M99.3721 234.471V272.486H48.5142V221.629H86.5284V234.471H99.3721Z" fill="#AFDEE2"/>
<path d="M176.429 234.471V272.486H125.571V234.471H138.413V221.629H163.585V234.471H176.429Z" fill="#AFDEE2"/>
<path d="M253.486 221.629V272.486H202.628V234.471H215.472V221.629H253.486Z" fill="#AFDEE2"/>
</g>
<path d="M78.252 152H220.742C223.088 152 224.994 153.9 224.994 156.24V255.914C224.994 258.254 223.088 260.154 220.742 260.154H78.252C75.9054 260.154 74 258.254 74 255.914V156.24C74 153.9 75.9054 152 78.252 152Z" fill="url(#paint0_linear_46_125)"/>
<path d="M103.004 144.28H89.0473V132.287C89.0412 99.0462 116.164 72 149.5 72C182.836 72 209.953 99.0462 209.953 132.281V140.175H195.996V132.281C195.996 106.72 175.14 85.9172 149.5 85.9172C123.86 85.9172 103.004 106.72 103.004 132.281V144.274V144.28Z" fill="url(#paint1_linear_46_125)"/>
<g style="mix-blend-mode:screen" opacity="0.35">
<path d="M224.848 255.914C224.848 258.254 222.961 260.154 220.627 260.154H79.2213C76.887 260.154 75 258.254 75 255.914V156.24C75 153.9 76.887 152 79.2213 152H220.627C222.955 152 224.848 153.9 224.848 156.24V255.914Z" fill="#009247"/>
</g>
<path d="M142.24 236.892L111.238 210.946L120.061 200.462L142.05 218.869L191.088 176.024L200.131 186.313L142.24 236.892Z" fill="white"/>
<defs>
<linearGradient id="paint0_linear_46_125" x1="74" y1="206.08" x2="225" y2="206.08" gradientUnits="userSpaceOnUse">
<stop stop-color="#04ADBF"/>
<stop offset="0.65" stop-color="#2965B5"/>
<stop offset="1" stop-color="#0C4DA2"/>
</linearGradient>
<linearGradient id="paint1_linear_46_125" x1="107.5" y1="144" x2="206" y2="67" gradientUnits="userSpaceOnUse">
<stop stop-color="#1C6D9D"/>
<stop offset="1" stop-color="#05BCC5"/>
</linearGradient>
<clipPath id="clip0_46_125">
<rect width="206" height="206" fill="white" transform="translate(48 67)"/>
</clipPath>
</defs>
</svg>
