<svg width="236" height="208" viewBox="0 0 236 208" fill="none" xmlns="http://www.w3.org/2000/svg">
<rect width="236" height="208" rx="16" fill="white" fill-opacity="0.9"/>
<path d="M42.64 186.34C40.5733 186.34 38.7467 185.967 37.16 185.22V182.32C38.8267 183.2 40.6533 183.64 42.64 183.64C43.4933 183.64 44.12 183.48 44.52 183.16C44.9333 182.84 45.14 182.42 45.14 181.9C45.14 181.393 44.9533 181.013 44.58 180.76C44.22 180.507 43.6133 180.26 42.76 180.02L41.4 179.64C40.6133 179.413 39.9267 179.153 39.34 178.86C38.7667 178.553 38.28 178.107 37.88 177.52C37.48 176.933 37.28 176.173 37.28 175.24C37.28 173.707 37.74 172.547 38.66 171.76C39.5933 170.96 40.9 170.56 42.58 170.56C43.58 170.56 44.46 170.653 45.22 170.84C45.9933 171.013 46.7733 171.287 47.56 171.66V174.46C46.08 173.66 44.42 173.26 42.58 173.26C41.8067 173.26 41.2533 173.407 40.92 173.7C40.6 173.993 40.44 174.413 40.44 174.96C40.4533 175.48 40.6133 175.86 40.92 176.1C41.24 176.327 41.8267 176.56 42.68 176.8L44.06 177.18C44.9 177.407 45.62 177.68 46.22 178C46.82 178.32 47.3133 178.787 47.7 179.4C48.1 180 48.3 180.787 48.3 181.76C48.2867 183.187 47.78 184.307 46.78 185.12C45.78 185.933 44.4 186.34 42.64 186.34ZM50.7813 169.86H53.8613V172.88H50.7813V169.86ZM50.7813 174.74H53.8613V186H50.7813V174.74ZM70.2355 174.5C71.6621 174.5 72.7221 174.873 73.4155 175.62C74.1088 176.367 74.4555 177.573 74.4555 179.24V186H71.3755V179.24C71.3755 178.573 71.2421 178.08 70.9755 177.76C70.7088 177.427 70.2488 177.26 69.5955 177.26C68.7955 177.26 67.9821 177.62 67.1555 178.34C67.1821 178.713 67.1955 179.013 67.1955 179.24V186H64.1155V179.24C64.1155 178.573 63.9821 178.08 63.7155 177.76C63.4488 177.427 62.9888 177.26 62.3355 177.26C61.5355 177.26 60.7355 177.607 59.9355 178.3V186H56.8555V174.74H59.9355V175.7C60.4288 175.287 60.9155 174.987 61.3955 174.8C61.8888 174.6 62.4155 174.5 62.9755 174.5C64.7488 174.5 65.9555 175.087 66.5955 176.26C67.1955 175.66 67.7821 175.22 68.3555 174.94C68.9421 174.647 69.5688 174.5 70.2355 174.5ZM83.4452 174.42C84.4452 174.42 85.3318 174.647 86.1052 175.1C86.8785 175.54 87.4785 176.207 87.9052 177.1C88.3452 177.993 88.5652 179.087 88.5652 180.38C88.5652 181.673 88.3452 182.767 87.9052 183.66C87.4785 184.553 86.8785 185.227 86.1052 185.68C85.3318 186.12 84.4452 186.34 83.4452 186.34C82.3918 186.34 81.3652 185.96 80.3652 185.2V190.68H77.2852V174.74H80.3652V175.58C81.3518 174.807 82.3785 174.42 83.4452 174.42ZM82.8052 183.6C83.6452 183.6 84.2785 183.327 84.7052 182.78C85.1452 182.233 85.3652 181.433 85.3652 180.38C85.3652 179.34 85.1452 178.547 84.7052 178C84.2785 177.453 83.6452 177.18 82.8052 177.18C82.0052 177.18 81.1918 177.48 80.3652 178.08V182.68C81.2052 183.293 82.0185 183.6 82.8052 183.6ZM94.2189 186.26C91.9922 186.26 90.8789 185.287 90.8789 183.34V169.08H93.9589V182.26C93.9589 182.74 94.0322 183.073 94.1789 183.26C94.3389 183.433 94.6189 183.52 95.0189 183.52C95.4322 183.52 95.8122 183.467 96.1589 183.36V186.02C95.3856 186.18 94.7389 186.26 94.2189 186.26ZM100.744 181.22C100.984 182.913 102.037 183.76 103.904 183.76C104.411 183.76 104.904 183.693 105.384 183.56C105.877 183.427 106.431 183.213 107.044 182.92L107.864 185.32C107.184 185.693 106.504 185.953 105.824 186.1C105.157 186.26 104.384 186.34 103.504 186.34C102.224 186.34 101.131 186.093 100.224 185.6C99.3174 185.093 98.6307 184.393 98.1641 183.5C97.6974 182.593 97.4641 181.547 97.4641 180.36C97.4641 179.107 97.7041 178.033 98.1841 177.14C98.6641 176.247 99.3174 175.573 100.144 175.12C100.971 174.653 101.891 174.42 102.904 174.42C104.517 174.42 105.777 174.893 106.684 175.84C107.604 176.787 108.064 178.173 108.064 180V181.22H100.744ZM102.904 177C102.344 177 101.884 177.147 101.524 177.44C101.177 177.733 100.937 178.213 100.804 178.88H104.844C104.777 178.227 104.584 177.753 104.264 177.46C103.944 177.153 103.491 177 102.904 177ZM114.294 186.34C113.374 186.34 112.561 186.267 111.854 186.12C111.161 185.973 110.434 185.72 109.674 185.36V182.6C110.408 183.013 111.148 183.313 111.894 183.5C112.654 183.673 113.454 183.76 114.294 183.76C115.294 183.76 115.794 183.427 115.794 182.76C115.794 182.493 115.714 182.287 115.554 182.14C115.394 181.993 115.141 181.88 114.794 181.8L113.014 181.42C111.934 181.193 111.134 180.813 110.614 180.28C110.094 179.747 109.834 179.007 109.834 178.06C109.834 175.633 111.354 174.42 114.394 174.42C115.648 174.42 116.981 174.66 118.394 175.14V177.8C117.874 177.56 117.268 177.367 116.574 177.22C115.894 177.073 115.214 177 114.534 177C113.948 177 113.534 177.073 113.294 177.22C113.068 177.367 112.954 177.58 112.954 177.86C112.954 178.1 113.028 178.28 113.174 178.4C113.321 178.507 113.554 178.6 113.874 178.68L115.654 179.06C116.788 179.287 117.614 179.667 118.134 180.2C118.654 180.733 118.914 181.533 118.914 182.6C118.914 183.84 118.494 184.773 117.654 185.4C116.828 186.027 115.708 186.34 114.294 186.34Z" fill="#2E3135"/>
<circle cx="24" cy="178" r="6" fill="#04ADBF"/>
<g clip-path="url(#clip0_9_1242)">
<path d="M86.923 31.3087V54.192H79.1919V61.9224H56.3095V31.3087H86.923Z" fill="#AFDEE2"/>
<path d="M110.115 62.2319V77.384H102.384V85.1144H87.2318V77.384H79.5014V62.2319H87.2318V54.5008H102.384V62.2319H110.115Z" fill="#AFDEE2"/>
<path d="M133.307 31.3087V54.192H125.576V61.9224H110.424V54.192H102.693V31.3087H133.307Z" fill="#AFDEE2"/>
<path d="M156.499 62.2319V77.384H148.768V85.1144H133.616V77.384H125.885V62.2319H133.616V54.5008H148.768V62.2319H156.499Z" fill="#AFDEE2"/>
<path d="M179.69 31.3087V61.9224H156.808V54.192H149.077V31.3087H179.69Z" fill="#AFDEE2"/>
<path d="M86.923 85.424V100.576H79.1919V108.306H56.3095V77.6928H79.1919V85.424H86.923Z" fill="#AFDEE2"/>
<path d="M110.115 108.616V123.768H102.384V131.498H87.2318V123.768H79.5014V108.616H87.2318V100.885H102.384V108.616H110.115Z" fill="#AFDEE2"/>
<path d="M133.307 85.424V100.576H125.576V108.306H110.424V100.576H102.693V85.424H110.424V77.6928H125.576V85.424H133.307Z" fill="#AFDEE2"/>
<path d="M156.499 108.616V123.768H148.768V131.498H133.616V123.768H125.885V108.616H133.616V100.885H148.768V108.616H156.499Z" fill="#AFDEE2"/>
<path d="M179.69 77.6928V108.306H156.808V100.576H149.077V85.424H156.808V77.6928H179.69Z" fill="#AFDEE2"/>
<path d="M86.923 131.808V154.69H56.3095V124.078H79.1919V131.808H86.923Z" fill="#AFDEE2"/>
<path d="M133.307 131.808V154.69H102.693V131.808H110.424V124.078H125.576V131.808H133.307Z" fill="#AFDEE2"/>
<path d="M179.69 124.078V154.69H149.077V131.808H156.808V124.078H179.69Z" fill="#AFDEE2"/>
</g>
<path style="mix-blend-mode:multiply" d="M116.665 120.396C116.642 120.396 116.621 120.396 116.598 120.397C116.532 120.398 116.466 120.399 116.399 120.399C116.333 120.399 116.266 120.399 116.2 120.397C116.178 120.397 116.156 120.397 116.134 120.396C112.341 120.326 108.602 118.652 106.013 115.484L83.1489 87.4942C80.9587 84.8128 79.9814 81.5383 80.149 78.3335C75.8117 83.0756 76.8172 91.2557 80.5613 93.5396C89.2325 98.8276 102.259 111.201 107.734 117.989C111.529 122.695 121.686 123.106 126.146 116.994C130.916 110.456 151.948 93.0593 167.624 87.8974C167.031 81.9797 165.405 76.3665 162.928 71.2411L126.786 115.485C124.198 118.653 120.459 120.327 116.666 120.397L116.665 120.396Z" fill="url(#paint0_radial_9_1242)"/>
<path d="M117.937 142.875C145.517 142.875 167.875 120.517 167.875 92.9373C167.875 65.3577 145.517 43 117.937 43C90.3577 43 68 65.3577 68 92.9373C68 120.517 90.3577 142.875 117.937 142.875Z" fill="url(#paint1_radial_9_1242)"/>
<path d="M164.857 68.8792L126.785 115.484C124.197 118.652 120.458 120.326 116.665 120.396C116.643 120.396 116.621 120.396 116.599 120.397C116.532 120.398 116.466 120.399 116.399 120.399C116.333 120.399 116.267 120.399 116.2 120.397C116.178 120.397 116.156 120.397 116.134 120.396C112.341 120.326 108.602 118.652 106.013 115.484L83.1491 87.4942C78.4742 81.7715 79.3237 73.3417 85.0465 68.6668C90.7692 63.9919 99.1989 64.8414 103.874 70.5641L116.4 85.898L144.133 51.9483C148.808 46.2256 157.237 45.376 162.96 50.0509C168.683 54.7258 169.532 63.1548 164.858 68.8783L164.857 68.8792Z" fill="url(#paint2_radial_9_1242)"/>
<path d="M162.959 50.052C157.236 45.3771 148.807 46.2267 144.132 51.9494L116.399 85.8991L103.873 70.5652C99.1978 64.8425 90.7689 63.993 85.0454 68.6679C79.3226 73.3428 78.4731 81.7717 83.148 87.4953L106.012 115.485C108.601 118.653 112.34 120.328 116.133 120.397C116.155 120.397 116.177 120.397 116.199 120.398C116.266 120.399 116.332 120.4 116.398 120.4C116.465 120.4 116.531 120.4 116.597 120.398C116.62 120.398 116.641 120.398 116.664 120.397C120.457 120.327 124.196 118.653 126.784 115.485L164.856 68.8803C169.531 63.1576 168.681 54.7278 162.958 50.0529L162.959 50.052ZM164.343 68.4597L126.272 115.064C123.905 117.962 120.399 119.664 116.652 119.733H116.588C116.529 119.735 116.47 119.736 116.41 119.736H116.387C116.327 119.736 116.267 119.736 116.208 119.734H116.147C112.399 119.664 108.893 117.962 106.526 115.064L83.6616 87.0747C79.2256 81.644 80.0345 73.6174 85.4651 69.1814C87.73 67.3314 90.5839 66.3126 93.5025 66.3126C97.3412 66.3126 100.933 68.0158 103.358 70.9842L116.398 86.9477L144.645 52.3692C147.071 49.4 150.663 47.6976 154.501 47.6976C157.42 47.6976 160.274 48.7164 162.539 50.5664C165.169 52.7151 166.805 55.7598 167.146 59.1397C167.487 62.5196 166.491 65.8289 164.342 68.4597H164.343Z" fill="url(#paint3_linear_9_1242)"/>
<defs>
<radialGradient id="paint0_radial_9_1242" cx="0" cy="0" r="1" gradientUnits="userSpaceOnUse" gradientTransform="translate(115.851 120.467) scale(72.7112 72.7112)">
<stop stop-color="#256AB0"/>
<stop offset="1" stop-color="white"/>
</radialGradient>
<radialGradient id="paint1_radial_9_1242" cx="0" cy="0" r="1" gradientUnits="userSpaceOnUse" gradientTransform="translate(110.936 97.5251) scale(58.5753)">
<stop offset="0.598958" stop-color="#0D71AC"/>
<stop offset="0.8125" stop-color="#06BBC5"/>
<stop offset="1" stop-color="#E2FCFF"/>
</radialGradient>
<radialGradient id="paint2_radial_9_1242" cx="0" cy="0" r="1" gradientUnits="userSpaceOnUse" gradientTransform="translate(137.254 41.3864) scale(130.386 130.386)">
<stop stop-color="white"/>
<stop offset="0.734375" stop-color="#E0FFFD"/>
<stop offset="1" stop-color="#81ECF2"/>
</radialGradient>
<linearGradient id="paint3_linear_9_1242" x1="152.771" y1="40.4907" x2="92.653" y2="106.555" gradientUnits="userSpaceOnUse">
<stop stop-color="white"/>
<stop offset="0.51" stop-color="white"/>
<stop offset="1" stop-color="white"/>
</linearGradient>
<clipPath id="clip0_9_1242">
<rect width="124" height="124" fill="white" transform="translate(56 31)"/>
</clipPath>
</defs>
</svg>
