<svg width="303" height="151" viewBox="0 0 303 151" fill="none" xmlns="http://www.w3.org/2000/svg">
<rect width="303" height="151" rx="16" fill="white" fill-opacity="0.9"/>
<path d="M48.92 67.58V71.38H54.54V74.12H48.92V80H45.74V64.84H55.54V67.58H48.92ZM62.0428 68.74C63.4428 68.74 64.5028 68.94 65.2228 69.34C65.9428 69.7267 66.4228 70.2467 66.6628 70.9C66.9028 71.5533 67.0228 72.3867 67.0228 73.4V80H63.9428V79.04C63.4628 79.48 62.9895 79.7933 62.5228 79.98C62.0695 80.1667 61.5628 80.26 61.0028 80.26C59.7761 80.26 58.8028 79.9267 58.0828 79.26C57.3628 78.58 57.0028 77.6467 57.0028 76.46C57.0028 75.2467 57.3695 74.3133 58.1028 73.66C58.8495 73.0067 59.8761 72.68 61.1828 72.68C62.2361 72.68 63.1561 72.88 63.9428 73.28C63.9295 72.84 63.8695 72.4933 63.7628 72.24C63.6561 71.9733 63.4428 71.7733 63.1228 71.64C62.8161 71.4933 62.3561 71.42 61.7428 71.42H59.6628V68.74H62.0428ZM61.6228 77.84C62.3695 77.84 63.1428 77.5067 63.9428 76.84V75.42C63.2495 75.0867 62.5628 74.92 61.8828 74.92C61.3495 74.92 60.9228 75.04 60.6028 75.28C60.2828 75.52 60.1228 75.9 60.1228 76.42C60.1228 77.3667 60.6228 77.84 61.6228 77.84ZM62.5828 63.82H66.1028L63.6828 66.88H60.5828L62.5828 63.82ZM74.7764 80.34C72.9497 80.3267 71.5497 79.8 70.5764 78.76C69.6031 77.7067 69.1164 76.24 69.1164 74.36C69.1164 72.4933 69.6031 71.04 70.5764 70C71.5497 68.96 72.9497 68.4333 74.7764 68.42C75.4297 68.42 75.9897 68.4667 76.4564 68.56C76.9364 68.64 77.4364 68.78 77.9564 68.98V71.8C77.4631 71.5733 76.9964 71.4133 76.5564 71.32C76.1164 71.2267 75.6364 71.18 75.1164 71.18C74.1431 71.1933 73.4364 71.4733 72.9964 72.02C72.5564 72.5533 72.3364 73.3267 72.3364 74.34C72.3364 76.5 73.2364 77.5867 75.0364 77.6C75.9564 77.6 76.9097 77.3 77.8964 76.7L78.7764 79.28C77.5631 79.9867 76.2297 80.34 74.7764 80.34ZM80.7344 63.86H83.8144V66.88H80.7344V63.86ZM80.7344 68.74H83.8144V80H80.7344V68.74ZM90.1486 80.26C87.9219 80.26 86.8086 79.2867 86.8086 77.34V63.08H89.8886V76.26C89.8886 76.74 89.9619 77.0733 90.1086 77.26C90.2686 77.4333 90.5486 77.52 90.9486 77.52C91.3619 77.52 91.7419 77.4667 92.0886 77.36V80.02C91.3153 80.18 90.6686 80.26 90.1486 80.26Z" fill="#2E3135"/>
<circle cx="34" cy="73" r="6" fill="#04ADBF"/>
<g clip-path="url(#clip0_46_122)">
<path d="M191.923 14.3087V37.192H184.192V44.9224H161.31V14.3087H191.923Z" fill="#AFDEE2"/>
<path d="M215.115 45.2319V60.384H207.384V68.1144H192.232V60.384H184.501V45.2319H192.232V37.5008H207.384V45.2319H215.115Z" fill="#AFDEE2"/>
<path d="M238.307 14.3087V37.192H230.576V44.9224H215.424V37.192H207.693V14.3087H238.307Z" fill="#AFDEE2"/>
<path d="M261.499 45.2319V60.384H253.768V68.1144H238.616V60.384H230.885V45.2319H238.616V37.5008H253.768V45.2319H261.499Z" fill="#AFDEE2"/>
<path d="M284.69 14.3087V44.9224H261.808V37.192H254.077V14.3087H284.69Z" fill="#AFDEE2"/>
<path d="M191.923 68.424V83.576H184.192V91.3065H161.31V60.6928H184.192V68.424H191.923Z" fill="#AFDEE2"/>
<path d="M215.115 91.616V106.768H207.384V114.498H192.232V106.768H184.501V91.616H192.232V83.8848H207.384V91.616H215.115Z" fill="#AFDEE2"/>
<path d="M238.307 68.424V83.576H230.576V91.3065H215.424V83.576H207.693V68.424H215.424V60.6928H230.576V68.424H238.307Z" fill="#AFDEE2"/>
<path d="M261.499 91.616V106.768H253.768V114.498H238.616V106.768H230.885V91.616H238.616V83.8848H253.768V91.616H261.499Z" fill="#AFDEE2"/>
<path d="M284.69 60.6928V91.3065H261.808V83.576H254.077V68.424H261.808V60.6928H284.69Z" fill="#AFDEE2"/>
<path d="M191.923 114.808V137.69H161.31V107.078H184.192V114.808H191.923Z" fill="#AFDEE2"/>
<path d="M238.307 114.808V137.69H207.693V114.808H215.424V107.078H230.576V114.808H238.307Z" fill="#AFDEE2"/>
<path d="M284.69 107.078V137.69H254.077V114.808H261.808V107.078H284.69Z" fill="#AFDEE2"/>
</g>
<circle cx="223" cy="75" r="50" fill="url(#paint0_linear_46_122)"/>
<g clip-path="url(#clip1_46_122)">
<path style="mix-blend-mode:screen" opacity="0.2" d="M196.842 76.715C207.796 76.715 216.675 67.8364 216.675 56.8842C216.675 45.9319 207.796 37.0533 196.842 37.0533C185.889 37.0533 177.009 45.9319 177.009 56.8842C177.009 67.8364 185.889 76.715 196.842 76.715Z" fill="url(#paint1_radial_46_122)"/>
<path d="M249.032 69.0081C248.971 66.9808 247.202 65.4178 245.173 65.4178H231.121C234.399 58.482 235.556 52.3904 230.776 48.6632C230.129 48.1597 229.331 47.8844 228.512 47.8844C226.932 47.8844 225.653 49.0875 225.451 50.6549C224.944 54.5806 221.03 60.6165 216.186 65.4169H215.815C214.52 65.4169 213.471 66.4668 213.471 67.7614V92.4581C213.471 93.7527 214.52 94.8026 215.815 94.8026H238.753C240.781 94.8026 242.55 93.2396 242.611 91.2122C242.674 89.1143 240.992 87.3945 238.908 87.3945H240.728C242.756 87.3945 244.525 85.8315 244.586 83.8042C244.649 81.7063 242.967 79.9865 240.883 79.9865H243.23C245.113 79.9865 246.792 78.6317 247.027 76.7629C247.251 74.9804 246.206 73.4113 244.674 72.8259H245.329C247.413 72.8259 249.094 71.1052 249.032 69.0081Z" fill="white"/>
<path d="M208.987 65.1713H200.667C199.009 65.1713 197.665 66.515 197.665 68.1726V91.8029C197.665 93.4605 199.009 94.8043 200.667 94.8043H208.987C210.645 94.8043 211.988 93.4605 211.988 91.8029V68.1726C211.988 66.515 210.645 65.1713 208.987 65.1713Z" fill="white"/>
</g>
<defs>
<linearGradient id="paint0_linear_46_122" x1="173" y1="75.0028" x2="273.004" y2="75.0028" gradientUnits="userSpaceOnUse">
<stop stop-color="#04ADBF"/>
<stop offset="0.65" stop-color="#2965B5"/>
<stop offset="1" stop-color="#0C4DA2"/>
</linearGradient>
<radialGradient id="paint1_radial_46_122" cx="0" cy="0" r="1" gradientUnits="userSpaceOnUse" gradientTransform="translate(196.842 56.8842) scale(19.8329 19.8309)">
<stop stop-color="white"/>
<stop offset="1" stop-color="#1D1D1B" stop-opacity="0"/>
</radialGradient>
<clipPath id="clip0_46_122">
<rect width="124" height="124" fill="white" transform="translate(161 14)"/>
</clipPath>
<clipPath id="clip1_46_122">
<rect width="91.7453" height="90.8019" fill="white" transform="translate(177.009 25.9434)"/>
</clipPath>
</defs>
</svg>
