<svg width="50" height="52" viewBox="0 0 50 52" fill="none" xmlns="http://www.w3.org/2000/svg">
<path d="M49.966 25.1756C49.9648 23.3092 49.7498 21.449 49.3252 19.6316L49.3108 19.574C47.9981 14.134 44.8894 9.29561 40.4872 5.84062C36.085 2.38563 30.6465 0.515889 25.0504 0.533557L25.0216 0.529956H24.9532C19.3503 0.489078 13.8993 2.35053 9.49175 5.8099C5.08416 9.26927 1.9808 14.1218 0.689196 19.574L0.674797 19.6316C-0.348863 24.0519 -0.137142 28.6686 1.2868 32.9768C1.50508 33.6436 1.85711 34.2589 2.32136 34.7851C2.7856 35.3112 3.3523 35.7371 3.9868 36.0368C4.71613 36.3908 5.51607 36.5754 6.3268 36.5768C6.91032 36.5766 7.49005 36.483 8.044 36.2996L10.1716 35.5652C11.331 35.1844 12.3234 34.4151 12.9812 33.3873C13.6391 32.3596 13.9221 31.1362 13.7824 29.924L13.0048 23.3C12.8437 22.0726 12.2672 20.9374 11.3711 20.0833C10.4751 19.2292 9.31365 18.7077 8.08 18.6056L4.7752 18.3752C6.21228 14.2274 8.90269 10.6286 12.4743 8.07662C16.046 5.52462 20.3223 4.14548 24.712 4.12996H25.0216C29.4643 4.05831 33.815 5.39921 37.4466 7.95937C41.0782 10.5195 43.803 14.1667 45.2284 18.3752L41.8984 18.6092C40.6653 18.716 39.5059 19.2418 38.6132 20.0992C37.7204 20.9566 37.1482 22.0937 36.9916 23.3216L36.2176 29.9456C36.0807 31.1523 36.363 32.3694 37.0172 33.3926C37.6714 34.4159 38.6576 35.1829 39.8104 35.5652L41.9812 36.314C42.3112 36.4002 42.6488 36.4544 42.9892 36.476C41.3456 39.0696 39.1505 41.2692 36.5602 42.9181C33.9699 44.567 31.048 45.6247 28.0024 46.016C27.6945 45.5796 27.2878 45.2223 26.8154 44.9733C26.343 44.7243 25.8184 44.5906 25.2844 44.5832C24.6698 44.5746 24.064 44.7305 23.53 45.035C22.996 45.3394 22.5532 45.7811 22.2474 46.3144C21.9417 46.8476 21.7841 47.453 21.7912 48.0676C21.7983 48.6823 21.9697 49.2838 22.2876 49.8099C22.6055 50.336 23.0584 50.7674 23.5993 51.0595C24.1401 51.3516 24.7493 51.4936 25.3636 51.4709C25.9778 51.4481 26.5748 51.2615 27.0926 50.9303C27.6105 50.599 28.0302 50.1353 28.3084 49.5872C32.8515 49.0394 37.1504 47.2302 40.718 44.3644C44.2856 41.4986 46.9792 37.6909 48.4936 33.3728C48.5512 33.2396 48.6628 33.1388 48.7096 32.9984C49.5527 30.4781 49.9771 27.8367 49.966 25.1792V25.1756ZM7.8028 22.1876C8.2102 22.2215 8.59383 22.3934 8.89034 22.6749C9.18684 22.9563 9.37848 23.3305 9.4336 23.7356L10.204 30.3236C10.2481 30.7196 10.1539 31.1188 9.93737 31.4534C9.72087 31.788 9.39536 32.0375 9.016 32.1596L6.8992 32.8868C6.45296 33.0299 5.96895 32.9977 5.5456 32.7968C5.34679 32.7041 5.16912 32.5717 5.02359 32.4076C4.87807 32.2435 4.76779 32.0512 4.6996 31.8428C3.64661 28.6453 3.37018 25.2431 3.8932 21.9176L7.8028 22.1876ZM44.4508 32.7968C44.0379 32.997 43.5644 33.033 43.126 32.8976L40.966 32.1524C40.5928 32.0302 40.2728 31.7838 40.0592 31.4543C39.8457 31.1248 39.7515 30.7321 39.7924 30.3416L40.5664 23.75C40.6177 23.346 40.805 22.9716 41.0975 22.6882C41.39 22.4049 41.7702 22.2296 42.1756 22.1912L46.1068 21.9176C46.618 25.1485 46.364 28.4543 45.3652 31.5692C45.3544 31.5944 45.3328 31.6124 45.3256 31.6412C45.2608 31.8392 45.16 32.0156 45.088 32.2172C44.9328 32.463 44.7138 32.6621 44.4544 32.7932L44.4508 32.7968ZM25 15.7724C24.5303 15.7752 24.0782 15.5943 23.74 15.2684C23.5689 15.0987 23.4331 14.8968 23.3404 14.6744C23.2477 14.4519 23.2 14.2133 23.2 13.9724C23.1952 13.7364 23.2445 13.5024 23.344 13.2884C23.4283 13.0676 23.5641 12.8702 23.74 12.7124C24.0807 12.3908 24.5315 12.2118 25 12.2118C25.4685 12.2118 25.9193 12.3908 26.26 12.7124C26.4333 12.8728 26.5709 13.0679 26.6639 13.285C26.757 13.502 26.8033 13.7362 26.8 13.9724C26.7998 14.2133 26.752 14.4518 26.6593 14.6742C26.5667 14.8967 26.4309 15.0986 26.26 15.2684C25.9218 15.5943 25.4697 15.7752 25 15.7724ZM19.06 12.7124C19.2333 12.8728 19.3709 13.0679 19.4639 13.285C19.557 13.502 19.6033 13.7362 19.6 13.9724C19.5998 14.2133 19.552 14.4518 19.4593 14.6742C19.3666 14.8967 19.2309 15.0986 19.06 15.2684C18.7218 15.5943 18.2697 15.7752 17.8 15.7724C17.5636 15.7813 17.3287 15.7318 17.116 15.6284C16.9 15.5519 16.7033 15.4291 16.54 15.2684C16.3689 15.0987 16.2331 14.8968 16.1404 14.6744C16.0477 14.4519 16 14.2133 16 13.9724C15.9967 13.7362 16.043 13.502 16.1361 13.285C16.2291 13.0679 16.3667 12.8728 16.54 12.7124C16.8807 12.3908 17.3315 12.2118 17.8 12.2118C18.2685 12.2118 18.7192 12.3908 19.06 12.7124ZM30.94 15.2684C30.7556 15.1035 30.6189 14.8921 30.544 14.6564C30.4405 14.4436 30.3911 14.2087 30.4 13.9724C30.3967 13.7362 30.443 13.502 30.5361 13.285C30.6291 13.0679 30.7667 12.8728 30.94 12.7124C31.2765 12.3825 31.7288 12.1978 32.2 12.1978C32.6712 12.1978 33.1235 12.3825 33.46 12.7124C33.6333 12.8728 33.7709 13.0679 33.8639 13.285C33.957 13.502 34.0033 13.7362 34 13.9724C34.008 14.2086 33.9586 14.4434 33.856 14.6564C33.781 14.892 33.6442 15.1033 33.46 15.2684C33.1201 15.5915 32.669 15.7717 32.2 15.7717C31.731 15.7717 31.2799 15.5915 30.94 15.2684Z" fill="#0470B6"/>
</svg>
