<svg width="56" height="56" viewBox="0 0 56 56" fill="none" xmlns="http://www.w3.org/2000/svg">
<g clip-path="url(#clip0_9_1037)">
<path d="M52.5621 40.188C50.9101 38.5351 48.7121 37.6251 46.375 37.6251H9.625C7.28788 37.6251 5.08987 38.5351 3.43787 40.188C1.785 41.84 0.875 44.038 0.875 46.3751C0.875 48.7122 1.785 50.9102 3.43787 52.5622C5.08987 54.2151 7.28788 55.1251 9.625 55.1251H46.375C48.7121 55.1251 50.9101 54.2151 52.5621 52.5622C54.215 50.9102 55.125 48.7122 55.125 46.3751C55.125 44.038 54.215 41.84 52.5621 40.188ZM50.0876 50.0877C49.0962 51.0791 47.7776 51.6251 46.375 51.6251H9.625C8.22237 51.6251 6.90375 51.0791 5.91237 50.0877C4.921 49.0955 4.375 47.7777 4.375 46.3751C4.375 44.9725 4.921 43.6539 5.91237 42.6625C6.90375 41.6711 8.22237 41.1251 9.625 41.1251H46.375C47.7776 41.1251 49.0962 41.6711 50.0876 42.6625C51.079 43.6539 51.625 44.9725 51.625 46.3751C51.625 47.7777 51.079 49.0955 50.0876 50.0877ZM11.4398 24.0582C12.1975 26.2134 13.363 28.1777 14.903 29.8971C15.302 30.3425 15.8979 30.5534 16.4911 30.4562L20.2073 29.8437C20.8845 30.3057 21.602 30.7091 22.3519 31.0504L23.6521 34.455C23.8682 35.022 24.3626 35.4359 24.9585 35.5496C26.1012 35.7684 27.2519 35.8769 28.4025 35.8769C29.5531 35.8769 30.7037 35.7675 31.8474 35.5496C32.4432 35.4359 32.9376 35.022 33.1537 34.455L34.454 31.0504C35.2039 30.7091 35.9214 30.3049 36.5995 29.8437L40.3148 30.4562C40.9071 30.5534 41.5039 30.3434 41.9029 29.8971C43.4429 28.1777 44.6084 26.2134 45.3661 24.0582C45.5726 23.4711 45.4519 22.8184 45.0485 22.3441L42.6738 19.552C42.742 18.7689 42.742 17.9822 42.6738 17.2L45.0485 14.4079C45.4519 13.9336 45.5726 13.2809 45.3661 12.6937C44.6075 10.5377 43.4429 8.57337 41.9029 6.85487C41.5039 6.40949 40.9062 6.19687 40.3148 6.29662L36.5995 6.90912C35.9222 6.44712 35.2048 6.04374 34.454 5.70249L33.1537 2.29612C32.9376 1.72912 32.4432 1.31524 31.8474 1.20149C29.5619 0.764867 27.244 0.764867 24.9585 1.20149C24.3626 1.31524 23.8682 1.72999 23.6521 2.29612L22.3519 5.70074C21.602 6.04287 20.8845 6.44624 20.2073 6.90737L16.4911 6.29487C15.8979 6.19599 15.302 6.40862 14.903 6.85312C13.363 8.57162 12.1975 10.536 11.4398 12.692C11.2333 13.2791 11.354 13.9319 11.7574 14.4061L14.1321 17.1982C14.0639 17.9814 14.0639 18.768 14.1321 19.5502L11.7574 22.3424C11.3549 22.8175 11.2333 23.4702 11.4398 24.0582ZM17.689 19.8512C17.5446 18.8721 17.5446 17.8781 17.689 16.899C17.7625 16.4002 17.6173 15.8945 17.2909 15.5104L15.1016 12.9361C15.5698 11.8572 16.1735 10.844 16.9059 9.91037L20.356 10.4791C20.8311 10.5579 21.3203 10.4362 21.7035 10.1431C22.5103 9.52624 23.4036 9.02487 24.3591 8.65124C24.8185 8.47099 25.1807 8.10612 25.3566 7.64587L26.5624 4.48974C27.7882 4.33574 29.0211 4.33574 30.2461 4.48974L31.4519 7.64587C31.6278 8.10699 31.99 8.47187 32.4494 8.65124C33.4049 9.02487 34.2982 9.52624 35.1041 10.1431C35.4874 10.4362 35.9748 10.5587 36.4525 10.4791L39.9026 9.91037C40.6341 10.844 41.2379 11.8572 41.7069 12.9361L39.5176 15.5104C39.1912 15.8945 39.046 16.4002 39.1195 16.899C39.2639 17.8781 39.2639 18.8721 39.1195 19.8512C39.046 20.35 39.1912 20.8557 39.5176 21.2399L41.7069 23.8141C41.2388 24.893 40.635 25.9054 39.9026 26.8399L36.4525 26.2711C35.9748 26.1906 35.4883 26.314 35.1041 26.6071C34.2982 27.224 33.4049 27.7254 32.4494 28.099C31.99 28.2784 31.6278 28.6441 31.4519 29.1044L30.2461 32.2596C29.0211 32.4136 27.7874 32.4136 26.5624 32.2596L25.3566 29.1044C25.1807 28.6432 24.8185 28.2784 24.3591 28.099C23.4036 27.7254 22.5103 27.224 21.7035 26.6071C21.3203 26.314 20.8311 26.1906 20.356 26.2711L16.9059 26.8399C16.1744 25.9054 15.5706 24.893 15.1016 23.8141L17.2909 21.2399C17.6173 20.8557 17.7625 20.35 17.689 19.8512Z" fill="#0470B6"/>
<path d="M28.4034 26.25C32.7451 26.25 36.2784 22.7168 36.2784 18.375C36.2784 14.0333 32.7451 10.5 28.4034 10.5C24.0616 10.5 20.5284 14.0333 20.5284 18.375C20.5284 22.7168 24.0616 26.25 28.4034 26.25ZM28.4034 14C30.8157 14 32.7784 15.9626 32.7784 18.375C32.7784 20.7874 30.8157 22.75 28.4034 22.75C25.991 22.75 24.0284 20.7874 24.0284 18.375C24.0284 15.9626 25.991 14 28.4034 14ZM10.5175 44.625H10.5087C9.54275 44.625 8.76312 45.409 8.76312 46.375C8.76312 47.341 9.55062 48.125 10.5175 48.125C11.4844 48.125 12.2675 47.341 12.2675 46.375C12.2675 45.409 11.4844 44.625 10.5175 44.625ZM17.5175 44.625H17.5087C16.5427 44.625 15.7631 45.409 15.7631 46.375C15.7631 47.341 16.5506 48.125 17.5175 48.125C18.4844 48.125 19.2675 47.341 19.2675 46.375C19.2675 45.409 18.4844 44.625 17.5175 44.625ZM24.5175 44.625H24.5087C23.5427 44.625 22.7631 45.409 22.7631 46.375C22.7631 47.341 23.5506 48.125 24.5175 48.125C25.4844 48.125 26.2675 47.341 26.2675 46.375C26.2675 45.409 25.4844 44.625 24.5175 44.625ZM31.5175 44.625H31.5087C30.5427 44.625 29.7631 45.409 29.7631 46.375C29.7631 47.341 30.5506 48.125 31.5175 48.125C32.4844 48.125 33.2675 47.341 33.2675 46.375C33.2675 45.409 32.4844 44.625 31.5175 44.625ZM38.5175 44.625H38.5087C37.5427 44.625 36.7631 45.409 36.7631 46.375C36.7631 47.341 37.5506 48.125 38.5175 48.125C39.4844 48.125 40.2675 47.341 40.2675 46.375C40.2675 45.409 39.4844 44.625 38.5175 44.625ZM45.5175 44.625H45.5087C44.5427 44.625 43.7631 45.409 43.7631 46.375C43.7631 47.341 44.5506 48.125 45.5175 48.125C46.4844 48.125 47.2675 47.341 47.2675 46.375C47.2675 45.409 46.4844 44.625 45.5175 44.625Z" fill="#0470B6"/>
</g>
<defs>
<clipPath id="clip0_9_1037">
<rect width="56" height="56" fill="white"/>
</clipPath>
</defs>
</svg>
