<svg width="40" height="40" viewBox="0 0 40 40" fill="none" xmlns="http://www.w3.org/2000/svg">
<g clip-path="url(#clip0_7_706)">
<path fill-rule="evenodd" clip-rule="evenodd" d="M18.7525 17.9775C18.7507 17.9225 18.7499 17.8675 18.75 17.8125V14.0625C18.7497 13.4468 18.8707 12.8371 19.1061 12.2683C19.3416 11.6994 19.6869 11.1825 20.1222 10.7472C20.5575 10.3119 21.0744 9.9666 21.6433 9.73115C22.2121 9.49569 22.8218 9.37467 23.4375 9.375C24.3397 9.37465 25.2228 9.63479 25.9807 10.1242C26.7386 10.6136 27.3391 11.3114 27.71 12.1338C28.3967 12.4811 28.9997 12.9736 29.4774 13.577C29.955 14.1804 30.2958 14.8803 30.4763 15.6284C30.6568 16.3766 30.6725 17.1549 30.5225 17.9097C30.3725 18.6645 30.0603 19.3777 29.6075 20C30.0603 20.6223 30.3724 21.3356 30.5223 22.0905C30.6722 22.8453 30.6564 23.6238 30.4758 24.3719C30.2952 25.12 29.9542 25.8199 29.4765 26.4233C28.9987 27.0266 28.3956 27.519 27.7088 27.8663C27.3379 28.6884 26.7376 29.3861 25.9799 29.8755C25.2223 30.3649 24.3395 30.6251 23.4375 30.625C22.8217 30.6255 22.2132 30.5046 21.6442 30.2692C21.0751 30.0338 20.5581 29.6886 20.1226 29.2532C19.6872 28.8179 19.3418 28.301 19.1063 27.732C18.8707 27.1631 18.7497 26.5533 18.75 25.9375V22.1875L18.7525 22.0225C18.7507 21.9734 18.7499 21.9242 18.75 21.875V18.125L18.7525 17.9775ZM21.25 25.9375V14.0625C21.2507 13.4825 21.4813 12.9265 21.8914 12.5164C22.3015 12.1063 22.8575 11.8757 23.4375 11.875C23.9069 11.8754 24.3638 12.0266 24.7408 12.3063C25.1178 12.5861 25.3949 12.9796 25.5313 13.4288C25.5871 13.613 25.6847 13.7818 25.8166 13.9221C25.9484 14.0624 26.1109 14.1703 26.2913 14.2375C26.7533 14.4099 27.162 14.7007 27.4763 15.0808C27.7906 15.4609 27.9996 15.9168 28.0822 16.403C28.1649 16.8892 28.1183 17.3886 27.9473 17.8512C27.7762 18.3138 27.4866 18.7233 27.1075 19.0388C26.9664 19.1561 26.8528 19.303 26.7749 19.4691C26.697 19.6352 26.6566 19.8165 26.6566 20C26.6566 20.1835 26.697 20.3648 26.7749 20.5309C26.8528 20.697 26.9664 20.8439 27.1075 20.9613C27.4866 21.2767 27.7762 21.6862 27.9473 22.1488C28.1183 22.6114 28.1649 23.1108 28.0822 23.597C27.9996 24.0832 27.7906 24.5391 27.4763 24.9192C27.162 25.2993 26.7533 25.5901 26.2913 25.7625C26.1109 25.8297 25.9484 25.9376 25.8166 26.0779C25.6847 26.2182 25.5871 26.387 25.5313 26.5713C25.3949 27.0204 25.1178 27.4139 24.7408 27.6937C24.3638 27.9734 23.9069 28.1246 23.4375 28.125C22.8575 28.1243 22.3015 27.8937 21.8914 27.4836C21.4813 27.0735 21.2507 26.5175 21.25 25.9375Z" fill="#0462B4"/>
<path fill-rule="evenodd" clip-rule="evenodd" d="M12.29 12.1338C12.6609 11.3114 13.2614 10.6136 14.0193 10.1242C14.7772 9.63479 15.6603 9.37465 16.5625 9.375C17.1782 9.37467 17.7879 9.49569 18.3567 9.73115C18.9256 9.9666 19.4425 10.3119 19.8778 10.7472C20.3131 11.1825 20.6584 11.6994 20.8939 12.2683C21.1293 12.8371 21.2503 13.4468 21.25 14.0625V17.8125L21.2475 17.9775L21.25 18.125V21.875L21.2475 22.0225L21.25 22.1875V25.9375C21.2503 26.5532 21.1293 27.1629 20.8939 27.7317C20.6584 28.3006 20.3131 28.8175 19.8778 29.2528C19.4425 29.6881 18.9256 30.0334 18.3567 30.2689C17.7879 30.5043 17.1782 30.6253 16.5625 30.625C15.6603 30.6253 14.7772 30.3652 14.0193 29.8758C13.2614 29.3864 12.6609 28.6886 12.29 27.8663C11.6033 27.5189 11.0003 27.0264 10.5226 26.423C10.045 25.8196 9.70416 25.1197 9.52371 24.3716C9.34325 23.6234 9.32748 22.8451 9.47748 22.0903C9.62749 21.3355 9.9397 20.6223 10.3925 20C9.93974 19.3777 9.6276 18.6644 9.47769 17.9095C9.32777 17.1547 9.34365 16.3763 9.52423 15.6281C9.70481 14.88 10.0458 14.1801 10.5235 13.5767C11.0013 12.9734 11.6044 12.481 12.2912 12.1338H12.29ZM18.75 14.0625V25.9375C18.7493 26.5175 18.5187 27.0735 18.1086 27.4836C17.6985 27.8937 17.1425 28.1243 16.5625 28.125C16.0931 28.1246 15.6362 27.9734 15.2592 27.6937C14.8822 27.4139 14.6051 27.0204 14.4687 26.5713C14.4129 26.387 14.3153 26.2182 14.1834 26.0779C14.0516 25.9376 13.8891 25.8297 13.7087 25.7625C13.2467 25.5901 12.838 25.2993 12.5237 24.9192C12.2094 24.5391 12.0004 24.0832 11.9178 23.597C11.8351 23.1108 11.8817 22.6114 12.0527 22.1488C12.2238 21.6862 12.5134 21.2767 12.8925 20.9613C13.0336 20.8439 13.1472 20.697 13.2251 20.5309C13.303 20.3648 13.3434 20.1835 13.3434 20C13.3434 19.8165 13.303 19.6352 13.2251 19.4691C13.1472 19.303 13.0336 19.1561 12.8925 19.0388C12.5134 18.7233 12.2238 18.3138 12.0527 17.8512C11.8817 17.3886 11.8351 16.8892 11.9178 16.403C12.0004 15.9168 12.2094 15.4609 12.5237 15.0808C12.838 14.7007 13.2467 14.4099 13.7087 14.2375C13.8891 14.1703 14.0516 14.0624 14.1834 13.9221C14.3153 13.7818 14.4129 13.613 14.4687 13.4288C14.6051 12.9796 14.8822 12.5861 15.2592 12.3063C15.6362 12.0266 16.0931 11.8754 16.5625 11.875C17.1425 11.8757 17.6985 12.1063 18.1086 12.5164C18.5187 12.9265 18.7493 13.4825 18.75 14.0625Z" fill="#0462B4"/>
<path fill-rule="evenodd" clip-rule="evenodd" d="M36.25 7.5C36.2497 6.50554 35.8545 5.5519 35.1513 4.84872C34.4481 4.14553 33.4945 3.75033 32.5 3.75H7.5C6.50554 3.75033 5.5519 4.14553 4.84872 4.84872C4.14553 5.5519 3.75033 6.50554 3.75 7.5V32.5C3.75033 33.4945 4.14553 34.4481 4.84872 35.1513C5.5519 35.8545 6.50554 36.2497 7.5 36.25H32.5C33.4945 36.2497 34.4481 35.8545 35.1513 35.1513C35.8545 34.4481 36.2497 33.4945 36.25 32.5V7.5ZM33.75 7.5V32.5C33.75 32.8312 33.6188 33.15 33.3838 33.385C33.1492 33.6182 32.832 33.7494 32.5012 33.75H7.49875C7.17 33.75 6.85 33.6175 6.61625 33.385C6.38216 33.1504 6.25048 32.8327 6.25 32.5012V7.5C6.25 7.17 6.38125 6.85125 6.61625 6.61625C6.85 6.3825 7.16875 6.25 7.5 6.25H32.5C32.83 6.25 33.15 6.38125 33.3838 6.615C33.6188 6.85 33.7488 7.16875 33.7488 7.49875L33.75 7.5Z" fill="#0462B4"/>
<path fill-rule="evenodd" clip-rule="evenodd" d="M11.25 1.25V5C11.25 5.33152 11.3817 5.64946 11.6161 5.88388C11.8505 6.1183 12.1685 6.25 12.5 6.25C12.8315 6.25 13.1495 6.1183 13.3839 5.88388C13.6183 5.64946 13.75 5.33152 13.75 5V1.25C13.75 0.918479 13.6183 0.600537 13.3839 0.366117C13.1495 0.131696 12.8315 0 12.5 0C12.1685 0 11.8505 0.131696 11.6161 0.366117C11.3817 0.600537 11.25 0.918479 11.25 1.25ZM38.75 11.25H35C34.6685 11.25 34.3505 11.3817 34.1161 11.6161C33.8817 11.8505 33.75 12.1685 33.75 12.5C33.75 12.8315 33.8817 13.1495 34.1161 13.3839C34.3505 13.6183 34.6685 13.75 35 13.75H38.75C39.0815 13.75 39.3995 13.6183 39.6339 13.3839C39.8683 13.1495 40 12.8315 40 12.5C40 12.1685 39.8683 11.8505 39.6339 11.6161C39.3995 11.3817 39.0815 11.25 38.75 11.25ZM11.25 35V38.75C11.25 39.0815 11.3817 39.3995 11.6161 39.6339C11.8505 39.8683 12.1685 40 12.5 40C12.8315 40 13.1495 39.8683 13.3839 39.6339C13.6183 39.3995 13.75 39.0815 13.75 38.75V35C13.75 34.6685 13.6183 34.3505 13.3839 34.1161C13.1495 33.8817 12.8315 33.75 12.5 33.75C12.1685 33.75 11.8505 33.8817 11.6161 34.1161C11.3817 34.3505 11.25 34.6685 11.25 35ZM5 11.25H1.25C0.918479 11.25 0.600537 11.3817 0.366117 11.6161C0.131696 11.8505 0 12.1685 0 12.5C0 12.8315 0.131696 13.1495 0.366117 13.3839C0.600537 13.6183 0.918479 13.75 1.25 13.75H5C5.33152 13.75 5.64946 13.6183 5.88388 13.3839C6.1183 13.1495 6.25 12.8315 6.25 12.5C6.25 12.1685 6.1183 11.8505 5.88388 11.6161C5.64946 11.3817 5.33152 11.25 5 11.25ZM26.25 1.25V5C26.25 5.33152 26.3817 5.64946 26.6161 5.88388C26.8505 6.1183 27.1685 6.25 27.5 6.25C27.8315 6.25 28.1495 6.1183 28.3839 5.88388C28.6183 5.64946 28.75 5.33152 28.75 5V1.25C28.75 0.918479 28.6183 0.600537 28.3839 0.366117C28.1495 0.131696 27.8315 0 27.5 0C27.1685 0 26.8505 0.131696 26.6161 0.366117C26.3817 0.600537 26.25 0.918479 26.25 1.25ZM38.75 26.25H35C34.6685 26.25 34.3505 26.3817 34.1161 26.6161C33.8817 26.8505 33.75 27.1685 33.75 27.5C33.75 27.8315 33.8817 28.1495 34.1161 28.3839C34.3505 28.6183 34.6685 28.75 35 28.75H38.75C39.0815 28.75 39.3995 28.6183 39.6339 28.3839C39.8683 28.1495 40 27.8315 40 27.5C40 27.1685 39.8683 26.8505 39.6339 26.6161C39.3995 26.3817 39.0815 26.25 38.75 26.25ZM26.25 35V38.75C26.25 39.0815 26.3817 39.3995 26.6161 39.6339C26.8505 39.8683 27.1685 40 27.5 40C27.8315 40 28.1495 39.8683 28.3839 39.6339C28.6183 39.3995 28.75 39.0815 28.75 38.75V35C28.75 34.6685 28.6183 34.3505 28.3839 34.1161C28.1495 33.8817 27.8315 33.75 27.5 33.75C27.1685 33.75 26.8505 33.8817 26.6161 34.1161C26.3817 34.3505 26.25 34.6685 26.25 35ZM5 26.25H1.25C0.918479 26.25 0.600537 26.3817 0.366117 26.6161C0.131696 26.8505 0 27.1685 0 27.5C0 27.8315 0.131696 28.1495 0.366117 28.3839C0.600537 28.6183 0.918479 28.75 1.25 28.75H5C5.33152 28.75 5.64946 28.6183 5.88388 28.3839C6.1183 28.1495 6.25 27.8315 6.25 27.5C6.25 27.1685 6.1183 26.8505 5.88388 26.6161C5.64946 26.3817 5.33152 26.25 5 26.25Z" fill="#0462B4"/>
</g>
<defs>
<clipPath id="clip0_7_706">
<rect width="40" height="40" fill="white"/>
</clipPath>
</defs>
</svg>
